<svg width="1066" height="122" viewBox="0 0 1066 122" fill="none" xmlns="http://www.w3.org/2000/svg">
<g filter="url(#filter0_f_405_3)">
<path d="M65.9323 15.7088C104.94 15.7088 117.871 29.3938 117.871 49.7597H92.117C92.117 49.7597 90.3929 37.26 65.7168 37.26C44.5966 37.26 41.0406 45.6649 41.0406 54.0699C41.0406 63.4447 46.3207 71.0953 65.7168 71.0953C91.9015 71.0953 92.117 60.5353 92.117 60.5353H117.871C117.871 77.884 107.526 92.3233 66.5788 92.3233C27.4634 92.3233 15.0715 80.3624 15.0715 54.932C15.0715 25.9456 32.9589 15.7088 65.9323 15.7088ZM171.568 15.17C204.326 15.17 224.046 23.6827 224.046 53.7466C224.046 83.164 207.343 92.3233 172.215 92.3233C136.225 92.3233 121.354 79.5003 121.354 52.3458C121.354 27.1309 137.625 15.17 171.568 15.17ZM172.538 72.4962C187.193 72.4962 196.46 66.7851 196.46 53.7466C196.46 41.2469 186.331 34.9971 172.215 34.9971C156.375 34.9971 148.94 42.0012 148.94 53.7466C148.94 64.7377 156.375 72.4962 172.538 72.4962ZM293.125 92H272.436L253.902 58.9189V92H228.794V16.3553H258.643L283.103 58.2724L307.672 16.3553H337.628V92H312.629V58.7034L293.125 92ZM344.463 92V16.4631H369.57V92H344.463ZM473.295 92H439.029L401.961 46.4192V92H376.854V16.3553H411.767L448.188 61.1818V16.3553H473.295V92ZM520.513 47.8201H582.042V92.1078H561.999V84.2416C555.965 89.3061 548.961 92.3233 530.75 92.3233C491.635 92.3233 479.243 76.8064 479.243 54.932C479.243 27.993 502.626 15.7088 530.104 15.7088C561.568 15.7088 572.344 23.6827 579.133 37.26L555.75 45.2339C552.732 40.9237 545.836 37.26 529.888 37.26C508.768 37.26 504.35 44.8029 504.35 55.1475C504.35 64.63 508.229 71.7419 529.888 71.7419C545.513 71.7419 548.422 68.7247 551.547 65.5998H520.513V47.8201ZM685.423 16.5708C724.969 16.5708 734.129 22.0664 734.129 43.9408C734.129 43.9408 711.715 43.9408 707.405 43.9408C707.405 40.0616 705.897 37.7988 686.069 37.7988C666.889 37.7988 665.273 38.6608 665.273 41.4625C665.488 43.5098 666.889 43.6176 685.854 45.1262C727.771 48.5743 736.823 49.1131 736.823 68.617C736.823 88.013 729.495 92 686.177 92C646.308 92 640.165 88.1208 640.165 66.0308C640.165 66.0308 662.902 66.0308 666.135 66.0308C666.135 70.5566 667.966 71.6341 687.255 71.6341C705.466 71.6341 707.513 71.7419 707.513 68.2937C707.513 65.9231 705.25 66.3541 685.423 64.7377C654.712 62.2594 639.088 60.7508 639.088 41.2469C639.088 18.8337 652.126 16.5708 685.423 16.5708ZM789.692 15.17C822.45 15.17 842.169 23.6827 842.169 53.7466C842.169 83.164 825.467 92.3233 790.338 92.3233C754.348 92.3233 739.478 79.5003 739.478 52.3458C739.478 27.1309 755.749 15.17 789.692 15.17ZM790.662 72.4962C805.317 72.4962 814.584 66.7851 814.584 53.7466C814.584 41.2469 804.454 34.9971 790.338 34.9971C774.498 34.9971 767.063 42.0012 767.063 53.7466C767.063 64.7377 774.498 72.4962 790.662 72.4962ZM897.132 15.17C929.89 15.17 949.609 23.6827 949.609 53.7466C949.609 83.164 932.907 92.3233 897.779 92.3233C861.788 92.3233 846.918 79.5003 846.918 52.3458C846.918 27.1309 863.189 15.17 897.132 15.17ZM898.102 72.4962C912.757 72.4962 922.024 66.7851 922.024 53.7466C922.024 41.2469 911.895 34.9971 897.779 34.9971C881.939 34.9971 874.503 42.0012 874.503 53.7466C874.503 64.7377 881.939 72.4962 898.102 72.4962ZM1050.8 92H1016.53L979.465 46.4192V92H954.358V16.3553H989.271L1025.69 61.1818V16.3553H1050.8V92Z" fill="#E3EEB2"/>
</g>
<path d="M65.9323 15.7088C104.94 15.7088 117.871 29.3938 117.871 49.7597H92.117C92.117 49.7597 90.3929 37.26 65.7168 37.26C44.5966 37.26 41.0406 45.6649 41.0406 54.0699C41.0406 63.4447 46.3207 71.0953 65.7168 71.0953C91.9015 71.0953 92.117 60.5353 92.117 60.5353H117.871C117.871 77.884 107.526 92.3233 66.5788 92.3233C27.4634 92.3233 15.0715 80.3624 15.0715 54.932C15.0715 25.9456 32.9589 15.7088 65.9323 15.7088ZM171.568 15.17C204.326 15.17 224.046 23.6827 224.046 53.7466C224.046 83.164 207.343 92.3233 172.215 92.3233C136.225 92.3233 121.354 79.5003 121.354 52.3458C121.354 27.1309 137.625 15.17 171.568 15.17ZM172.538 72.4962C187.193 72.4962 196.46 66.7851 196.46 53.7466C196.46 41.2469 186.331 34.9971 172.215 34.9971C156.375 34.9971 148.94 42.0012 148.94 53.7466C148.94 64.7377 156.375 72.4962 172.538 72.4962ZM293.125 92H272.436L253.902 58.9189V92H228.794V16.3553H258.643L283.103 58.2724L307.672 16.3553H337.628V92H312.629V58.7034L293.125 92ZM344.463 92V16.4631H369.57V92H344.463ZM473.295 92H439.029L401.961 46.4192V92H376.854V16.3553H411.767L448.188 61.1818V16.3553H473.295V92ZM520.513 47.8201H582.042V92.1078H561.999V84.2416C555.965 89.3061 548.961 92.3233 530.75 92.3233C491.635 92.3233 479.243 76.8064 479.243 54.932C479.243 27.993 502.626 15.7088 530.104 15.7088C561.568 15.7088 572.344 23.6827 579.133 37.26L555.75 45.2339C552.732 40.9237 545.836 37.26 529.888 37.26C508.768 37.26 504.35 44.8029 504.35 55.1475C504.35 64.63 508.229 71.7419 529.888 71.7419C545.513 71.7419 548.422 68.7247 551.547 65.5998H520.513V47.8201ZM685.423 16.5708C724.969 16.5708 734.129 22.0664 734.129 43.9408C734.129 43.9408 711.715 43.9408 707.405 43.9408C707.405 40.0616 705.897 37.7988 686.069 37.7988C666.889 37.7988 665.273 38.6608 665.273 41.4625C665.488 43.5098 666.889 43.6176 685.854 45.1262C727.771 48.5743 736.823 49.1131 736.823 68.617C736.823 88.013 729.495 92 686.177 92C646.308 92 640.165 88.1208 640.165 66.0308C640.165 66.0308 662.902 66.0308 666.135 66.0308C666.135 70.5566 667.966 71.6341 687.255 71.6341C705.466 71.6341 707.513 71.7419 707.513 68.2937C707.513 65.9231 705.25 66.3541 685.423 64.7377C654.712 62.2594 639.088 60.7508 639.088 41.2469C639.088 18.8337 652.126 16.5708 685.423 16.5708ZM789.692 15.17C822.45 15.17 842.169 23.6827 842.169 53.7466C842.169 83.164 825.467 92.3233 790.338 92.3233C754.348 92.3233 739.478 79.5003 739.478 52.3458C739.478 27.1309 755.749 15.17 789.692 15.17ZM790.662 72.4962C805.317 72.4962 814.584 66.7851 814.584 53.7466C814.584 41.2469 804.454 34.9971 790.338 34.9971C774.498 34.9971 767.063 42.0012 767.063 53.7466C767.063 64.7377 774.498 72.4962 790.662 72.4962ZM897.132 15.17C929.89 15.17 949.609 23.6827 949.609 53.7466C949.609 83.164 932.907 92.3233 897.779 92.3233C861.788 92.3233 846.918 79.5003 846.918 52.3458C846.918 27.1309 863.189 15.17 897.132 15.17ZM898.102 72.4962C912.757 72.4962 922.024 66.7851 922.024 53.7466C922.024 41.2469 911.895 34.9971 897.779 34.9971C881.939 34.9971 874.503 42.0012 874.503 53.7466C874.503 64.7377 881.939 72.4962 898.102 72.4962ZM1050.8 92H1016.53L979.465 46.4192V92H954.358V16.3553H989.271L1025.69 61.1818V16.3553H1050.8V92Z" fill="#E3EEB2"/>
<defs>
<filter id="filter0_f_405_3" x="0.0712891" y="0.169922" width="1065.73" height="107.153" filterUnits="userSpaceOnUse" color-interpolation-filters="sRGB">
<feFlood flood-opacity="0" result="BackgroundImageFix"/>
<feBlend mode="normal" in="SourceGraphic" in2="BackgroundImageFix" result="shape"/>
<feGaussianBlur stdDeviation="7.5" result="effect1_foregroundBlur_405_3"/>
</filter>
</defs>
</svg>
