<svg width="130" height="132" viewBox="0 0 130 132" fill="none" xmlns="http://www.w3.org/2000/svg">
<path d="M34.8211 71.2268L34.8624 71.2252H34.9468L35.0358 71.2284L35.0804 71.2316L35.1727 71.2412L35.2204 71.2475C35.1965 71.2443 35.1742 71.2412 35.1504 71.2396L35.1154 71.2364C35.0915 71.2332 35.0677 71.2316 35.0438 71.23L34.9738 71.2268H34.8322L34.7909 71.2284C34.767 71.23 34.7559 71.2316 34.759 71.2316C34.775 71.23 34.7956 71.2284 34.8211 71.2268ZM57.5234 64.0937L56.5483 64.1494C52.4169 64.4977 48.3636 65.282 44.3866 66.5022C43.5434 66.7567 42.721 67.0558 41.9208 67.3994C38.3702 69.3942 35.9203 70.678 34.5729 71.2507C32.9487 71.825 30.8425 72.3134 28.2574 72.7158C26.6873 73.508 26.3628 74.83 27.2855 76.6833C31.3754 81.1328 33.7568 83.8435 34.4297 84.8171C37.2534 88.5634 39.5712 92.0138 41.3831 95.1684L46.418 101.339C48.7358 104.015 51.9604 106.998 56.0917 110.286C58.1025 111.614 60.1021 112.756 62.0906 113.714C67.2209 115.908 70.3564 117.051 71.4986 117.144C73.6605 117.691 75.8717 118.093 78.1307 118.351C79.8424 118.631 82.6963 118.725 86.6955 118.633C89.5542 118.677 91.0798 117.877 91.2691 116.229C91.3216 115.769 91.2707 115.329 91.1164 114.905C90.3623 114.037 89.6624 112.68 89.0197 110.835C88.6093 109.214 88.4916 107.589 88.6665 105.962C88.552 105.435 88.2911 104.992 87.8871 104.635C87.3255 104.15 86.6462 103.967 85.8492 104.09C85.267 104.134 84.5591 104.653 83.7223 105.644C82.9922 106.065 82.4974 106.29 82.2413 106.32C80.3896 106.772 78.3295 106.888 76.0626 106.668C69.6087 106.148 64.5261 104.788 60.8116 102.588C56.5801 100.342 53.5703 97.4401 51.7838 93.883C51.1904 92.6979 50.7291 91.4396 50.3982 90.1081C50.1485 88.7241 50.2789 86.9281 50.7927 84.72C50.8389 83.4108 52.4249 81.6386 55.5508 79.4036C56.0631 78.9343 57.4471 78.0959 59.7028 76.8901C60.5873 76.4749 61.4463 76.1551 62.2783 75.9292C64.0489 75.4838 65.5061 75.4091 66.653 75.7049C69.1585 76.0167 71.3268 76.6817 73.1594 77.703C76.2726 79.5976 77.8984 81.5655 78.0368 83.608C78.2086 83.9055 77.8841 84.7836 77.0664 86.2408C76.3728 87.2844 74.8075 88.557 72.3704 90.0556C72.0045 90.3674 71.7659 90.8701 71.6529 91.5652C68.1993 91.6686 66.5464 91.6193 66.6928 91.4205C65.6683 91.1294 64.9509 90.5233 64.5404 89.6038C64.6947 89.1472 64.997 88.7591 65.4488 88.4425C66.1344 88.0018 67.135 87.6503 68.4522 87.391C68.7847 87.2939 69.1538 86.9424 69.5562 86.3379C70.2037 84.6898 69.6549 83.5253 67.9066 82.8461C63.1326 83.1244 60.3821 85.3277 59.6535 89.4574C59.9239 92.017 61.1457 93.9689 63.3203 95.3132C64.0171 95.7077 64.8029 95.9988 65.6731 96.1865C65.9197 96.3822 67.5041 96.4601 70.4264 96.4172C75.3881 96.2947 78.5968 95.9065 80.0508 95.2511L88.35 90.2019C90.6264 89.1631 91.9086 88.6223 92.1997 88.5777C92.8329 88.3582 94.22 88.075 96.3597 87.7235C96.9005 87.531 97.2441 87.3703 97.3937 87.2383C98.5311 86.314 98.7761 85.1416 98.1302 83.721C97.8248 83.0163 96.7128 81.9854 94.7959 80.6301L80.7555 70.9484C80.3101 70.616 78.9181 69.8715 76.5812 68.715C73.6478 67.3294 70.0907 66.0074 65.9101 64.7491C63.8771 64.2273 61.0804 64.0094 57.5234 64.0937Z" fill="#005090"/>
<path d="M92.7753 50.5878C90.922 50.6705 88.9128 50.9935 86.7446 51.555C86.6841 51.5709 86.6253 51.5884 86.5664 51.6091C82.9585 52.8499 80.2493 54.5028 78.4422 56.5644C77.564 57.5651 77.6627 59.089 78.6649 59.9656C79.1517 60.3935 79.7609 60.5892 80.3607 60.5621C80.5977 60.551 80.8316 60.5064 81.0559 60.4269H81.0638C81.3072 60.9137 81.7113 61.3066 82.2124 61.5373C86.2116 63.3763 88.6917 65.0784 89.6494 66.6406C90.1202 67.4089 90.9602 67.8273 91.8129 67.7891C92.131 67.7748 92.4508 67.6969 92.7546 67.5505C93.8698 67.0112 94.3947 65.7131 93.9684 64.5503C92.7976 61.3607 92.5239 59.334 93.1475 58.4734H93.1396C93.6248 58.0105 94.7224 57.6303 96.4341 57.3328H96.4325C96.6298 57.301 96.8334 57.2803 97.0466 57.2708C97.9661 57.231 99.0335 57.3948 100.25 57.7655H100.243C101.125 58.0996 101.607 58.58 101.687 59.2084L101.682 59.2099C101.69 59.4915 101.607 59.8335 101.437 60.2344L101.385 60.368V60.3696C101.235 60.7482 100.677 61.4418 99.708 62.4488C99.4408 62.7288 99.2435 63.0692 99.1337 63.4399C98.9047 64.221 99.0001 64.9352 99.4217 65.5811C99.9769 66.4322 100.642 66.841 101.417 66.806C101.905 66.7853 102.439 66.5849 103.015 66.2095V66.2079C103.096 66.157 103.173 66.0997 103.246 66.0393C106.507 63.3094 107.567 60.1183 106.426 56.4674C106.388 56.3465 106.342 56.2304 106.286 56.1174C105.047 53.6135 101.992 51.87 97.123 50.89C95.7851 50.618 94.3359 50.5178 92.7753 50.5878Z" fill="#005090"/>
<path d="M65.3853 53.6501L65.3407 53.6564L65.3201 53.6596L65.2994 53.6612L65.2771 53.6644L65.2564 53.666L65.2358 53.6692L65.2151 53.6708H65.196C65.1928 53.6723 65.1912 53.6723 65.1896 53.6723C65.2214 53.6692 65.2517 53.666 65.2835 53.6628C65.3153 53.6596 65.3455 53.6548 65.3773 53.6501H65.3853ZM96.5841 14.6786L96.4568 14.6866C95.7664 14.7868 95.1699 15.0047 94.6656 15.3388C93.2068 16.1517 90.3084 17.9032 85.9719 20.5932L66.6675 30.1269C65.3169 30.8475 64.3004 31.5109 63.6179 32.1186C62.7541 32.8535 62.0971 33.6616 61.6437 34.5445C59.7332 39.1976 58.2967 42.2361 57.3311 43.6582L54.1399 47.0053L47.5588 51.8334L46.9145 52.5413C46.4786 53.316 46.4627 54.1114 46.8668 54.9275C47.317 55.7674 48.098 56.1842 49.21 56.1763C49.5998 56.1429 49.9672 56.0124 50.3124 55.7897L55.1183 52.2629C55.7005 53.1856 56.5786 53.6994 57.7526 53.8044L58.8057 53.8823C62.0573 53.631 63.9265 53.5435 64.4149 53.6183L65.4537 53.7646L69.1475 54.6952C69.8173 54.6682 70.3104 54.5202 70.6318 54.2482C71.0485 53.9014 71.2999 53.6087 71.3874 53.3669C71.7978 52.177 72.4596 50.8519 73.3695 49.3947C73.9263 48.5754 74.5244 47.8993 75.1655 47.3696C75.9196 46.6983 76.7579 46.1383 77.6758 45.6865L79.4862 44.9277L82.9223 43.6773C83.5538 43.4085 84.0883 42.8517 84.5258 42.0086C84.8408 41.3007 84.8312 40.4655 84.4972 39.5078L82.0617 35.647L81.5224 34.3536L80.7731 31.9388C80.455 31.3613 80.0747 30.9366 79.6325 30.6678C79.8504 30.0155 82.7902 28.6299 88.4487 26.511L90.1557 25.8572C90.2941 26.2278 90.5168 26.6096 90.8222 27.0026C91.5556 27.9077 92.3573 28.7668 93.2259 29.5812L93.3468 29.9058C93.4979 30.1205 93.3929 30.5612 93.0302 31.2261C92.5641 31.8815 91.9215 32.564 91.1022 33.2719C90.9558 33.4119 90.8047 33.6919 90.6472 34.1134C90.3831 34.8691 90.5613 35.6502 91.1817 36.4551C94.1168 38.4006 96.468 38.6234 98.2322 37.1216C99.4825 36.2722 100.155 34.5764 100.251 32.0358C100.315 31.8275 99.7084 29.0945 98.4326 23.8384C98.3674 22.876 98.5885 20.9352 99.096 18.0177C99.1182 17.6073 99.0992 17.2621 99.0371 16.9789C98.5328 15.3452 97.7151 14.5784 96.5841 14.6786Z" fill="#005090"/>
<path d="M56.1424 61.4323C54.1444 61.5214 52.1909 61.7489 50.2819 62.1148C47.525 62.6365 44.8414 63.4224 42.2293 64.4723C42.1593 64.501 42.0909 64.5312 42.024 64.5662C37.0846 67.1083 33.7741 68.5973 32.0895 69.0316C32.0099 69.0522 31.9304 69.0761 31.8525 69.1063C29.4185 70.0099 26.9464 70.5174 24.4377 70.6303C23.8364 70.6574 23.2319 70.6605 22.6274 70.6414C22.5669 70.6399 22.5065 70.6414 22.446 70.643C22.2281 70.6526 22.0149 70.6924 21.8081 70.7592C20.0026 71.3462 19.3838 72.5138 19.9533 74.2653C20.036 74.5214 20.1569 74.7712 20.3112 75.0146C20.4862 75.2866 20.7137 75.5204 20.9809 75.7034C24.6079 78.1803 27.1516 80.3676 28.6152 82.2638H28.6104C34.6364 91.166 39.6203 97.7296 43.5655 101.958L43.5735 101.966C49.986 108.781 54.9748 113.205 58.5397 115.236L58.6209 115.281C67.2764 119.781 76.2533 121.824 85.5484 121.41C87.6705 121.315 89.8085 121.092 91.9625 120.742C93.2765 120.527 94.1689 119.29 93.9542 117.976C93.7569 116.756 92.6752 115.9 91.4709 115.954C91.3771 115.959 91.2832 115.968 91.1878 115.982C89.2327 116.301 87.2919 116.503 85.3654 116.589C76.9374 116.966 68.7925 115.117 60.9307 111.046H60.9259C57.7825 109.255 53.1708 105.13 47.0907 98.6698C43.2999 94.6053 38.4431 88.1959 32.5206 79.4402L32.4315 79.3177C31.4007 77.9798 29.9833 76.564 28.1825 75.0702H28.1761C29.9355 74.7712 31.6791 74.3051 33.4035 73.6719H33.3955C35.4302 73.1263 39.0015 71.5403 44.108 68.9154L44.1 68.917C46.3987 67.9975 48.7611 67.3087 51.1839 66.8506L51.1902 66.849C52.8685 66.5276 54.5914 66.3272 56.3556 66.2492C59.701 66.0997 63.2024 66.3876 66.8612 67.1115C66.928 67.1258 66.9949 67.1353 67.0633 67.1433C69.1249 67.3724 73.3294 69.2352 79.6783 72.7302L79.7563 72.7699C83.9719 74.8968 88.9638 78.3346 94.7337 83.0847C94.8275 83.1626 94.9262 83.2326 95.0311 83.2947C95.7152 83.7035 96.369 84.0853 96.9926 84.4432H96.9846C94.9357 84.8823 93.0808 85.4216 91.4184 86.0643H91.4168C89.8181 86.6592 88.4405 87.2526 87.2887 87.846H87.2871C87.1964 87.8937 87.109 87.9462 87.0246 88.0035C82.3063 91.2487 79.4174 93.0081 78.3548 93.2801L78.3468 93.2817C78.1718 93.2929 78 93.3231 77.8314 93.3708C75.5645 94.0294 73.3072 94.408 71.0578 94.5082C70.466 94.5353 69.8758 94.5417 69.2856 94.5305H69.2777C64.7089 94.1933 62.2336 92.3416 61.8486 88.9723L61.8407 88.9738C61.9282 87.8921 62.8635 86.8008 64.6484 85.6984H64.6421C65.2657 85.4645 65.7572 85.3405 66.1151 85.3245C66.4492 85.3086 66.6687 85.3882 66.7737 85.5616C67.2462 86.3427 68.0925 86.7579 68.9436 86.7213C69.3349 86.7038 69.7263 86.5908 70.0842 86.3729C71.2232 85.6841 71.5859 84.2014 70.8955 83.0624C69.7947 81.2457 68.1927 80.3835 66.0913 80.4774C65.0811 80.5235 63.9564 80.7892 62.714 81.2744C62.5899 81.3237 62.469 81.3825 62.3545 81.4509C58.9009 83.519 57.1223 85.999 57.0173 88.8911C57.0142 88.9898 57.0173 89.09 57.0253 89.1886C57.5709 95.4293 61.5575 98.8145 68.9834 99.3427L69.0979 99.3491C69.8233 99.365 70.5487 99.357 71.2757 99.3252C73.8242 99.2122 76.3758 98.7939 78.9291 98.0716L78.9211 98.0732C79.0643 98.0557 79.209 98.0303 79.357 97.9969H79.3586C80.9685 97.6374 84.3855 95.6648 89.6065 92.0791H89.6002C90.5674 91.5875 91.743 91.0848 93.1238 90.5726L93.154 90.5615C96.3658 89.3222 100.492 88.5046 105.532 88.11C106.747 88.0146 107.702 87.0251 107.751 85.8066C107.802 84.588 106.935 83.5238 105.731 83.3281C104.611 83.1452 101.93 81.7898 97.6878 79.2652H97.6798C91.7191 74.3671 86.4949 70.7814 82.0073 68.5066H82.0041C75.2113 64.7666 70.4533 62.7208 67.733 62.3677H67.725C63.7114 61.5787 59.8506 61.2669 56.1424 61.4323Z" fill="url(#paint0_linear_404_2745)"/>
<path d="M96.0764 104.422C94.8499 104.476 94.1484 105.195 93.9686 106.579C93.8843 107.228 94.0434 107.844 94.4475 108.423C94.5095 108.51 94.5763 108.595 94.6495 108.673C95.491 109.591 96.1035 110.338 96.4869 110.913L96.498 110.93C96.7382 111.285 96.9275 111.632 97.0627 111.974L97.0993 112.063C97.3268 112.572 97.357 113.06 97.1916 113.528H97.19C96.9959 114.024 96.7668 114.425 96.5028 114.731L96.4948 114.732C96.1289 114.961 95.7217 115.178 95.2683 115.38L95.149 115.437C95.1458 115.438 95.1442 115.44 95.1426 115.44C94.6829 115.669 93.625 115.82 91.9642 115.893C91.3708 115.92 90.7011 115.938 89.9534 115.944C89.9248 115.944 89.8946 115.944 89.8659 115.946C88.5758 116.003 87.5529 117.074 87.5641 118.377C87.5768 119.708 88.6649 120.777 89.9964 120.764C90.1857 120.763 90.3702 120.761 90.5532 120.758H90.5452C90.9827 121.086 91.5299 121.266 92.0994 121.24C92.2394 121.234 92.381 121.215 92.5226 121.183C95.3303 120.553 97.1391 120.037 97.9504 119.638C98.1874 119.52 98.399 119.388 98.5851 119.242H98.5788C98.9431 119.013 99.2835 118.752 99.6001 118.458L99.5921 118.459C100.76 117.635 101.681 116.67 102.357 115.561L102.392 115.502C104.379 112.02 102.877 108.482 97.8852 104.89C97.5607 104.656 97.182 104.508 96.7875 104.456C96.533 104.424 96.2976 104.413 96.0764 104.422Z" fill="url(#paint1_linear_404_2745)"/>
<path d="M80.6488 20.8191C80.3895 21.1484 80.2209 21.5397 80.1572 21.9533C80.1827 21.5175 80.345 21.1404 80.6409 20.8207L80.6488 20.8191ZM80.9701 24.1423C81.4267 24.5336 82.0233 24.75 82.6469 24.7213C82.7105 24.7197 82.7725 24.7134 82.8362 24.7054H82.8441C82.7423 24.7197 82.6421 24.7293 82.5466 24.7341C81.896 24.7627 81.3678 24.5654 80.9638 24.1423H80.9701ZM98.908 10.5648C98.6328 10.5775 98.3401 10.6205 98.0315 10.692C97.5002 10.8161 96.8941 11.0579 96.2132 11.4159C96.1353 11.4572 96.0605 11.5018 95.9873 11.5511C92.6021 13.8339 87.7342 16.7164 81.3822 20.2003C81.2485 20.2734 81.1245 20.3578 81.0099 20.4516H81.002C79.5384 21.0991 74.7437 22.9651 66.6147 26.0496L66.5209 26.0878C64.9905 26.7416 63.8102 27.3971 62.983 28.0525L62.9782 28.0572C61.5815 29.1692 60.549 30.3862 59.8809 31.7081C59.8443 31.7797 59.8125 31.8529 59.7838 31.9277C57.886 36.8448 56.5975 39.686 55.9198 40.4512H55.9118C55.5746 40.7168 55.3153 41.0668 55.1578 41.4661H55.1514C54.4928 42.3776 51.9173 44.3168 47.4217 47.2837C47.2881 47.3712 47.1624 47.473 47.0495 47.5859C45.6289 48.9986 44.7921 50.6959 44.5376 52.6749C44.3674 53.9953 45.3012 55.2027 46.6216 55.3729C46.7615 55.3904 46.9015 55.3968 47.0383 55.3904C48.1869 55.3395 49.1684 54.4677 49.3196 53.2889C49.423 52.4776 49.7475 51.7713 50.2915 51.17L50.2836 51.1716C55.3487 47.8182 58.341 45.4256 59.2605 43.9939C59.2907 43.9462 59.3209 43.8969 59.3496 43.8491H59.3432C59.3718 43.8189 59.4005 43.7887 59.4291 43.7585C60.5093 42.594 62.1048 39.2883 64.2126 33.8398H64.2063C64.5594 33.1605 65.1496 32.4908 65.9752 31.8322C66.4541 31.4536 67.2383 31.0289 68.3312 30.558H68.3249C77.569 27.0503 82.6675 25.0459 83.6204 24.5432C83.8718 24.4111 84.0897 24.268 84.2774 24.1152H84.2695C89.4284 21.2757 93.6202 18.8226 96.8432 16.7562H96.8511C96.7525 18.2245 96.7159 19.3842 96.7398 20.2369L96.7413 20.2655L97.2854 33.6028H97.2775C96.4852 34.807 95.6055 35.4306 94.6367 35.4736C94.274 35.4895 93.9002 35.4242 93.5136 35.2779L93.4086 35.2413C92.3953 34.9104 91.5967 34.3648 91.0161 33.6028H91.0081C91.0176 33.6028 91.0272 33.6028 91.0367 33.6028C91.1083 33.5996 91.1831 33.5964 91.261 33.5932C91.6222 33.5837 92.023 33.5869 92.4637 33.6028C92.5321 33.606 92.6005 33.606 92.6673 33.6028C93.9065 33.5471 94.9167 32.5481 94.966 31.2866C95.0169 29.9567 93.9797 28.8367 92.6482 28.7858C92.0994 28.7636 91.5872 28.7604 91.1163 28.7747C91.0367 28.7779 90.9588 28.7795 90.8808 28.7842C89.5239 28.8447 88.4405 29.069 87.6324 29.4603C86.1625 30.1682 85.4498 31.2802 85.496 32.7962C85.5023 33.0174 85.5389 33.2353 85.6057 33.4469C86.6159 36.6571 88.7189 38.784 91.9149 39.826H91.9101C93.0634 40.2491 94.1531 40.4385 95.1776 40.3923C97.8151 40.2746 100.033 38.6074 101.829 35.3892C102.045 35.0011 102.15 34.5604 102.133 34.1166L101.558 20.0682C101.525 18.8338 101.652 16.7419 101.937 13.7941C101.95 13.6653 101.951 13.5364 101.943 13.4091C101.913 12.943 101.797 12.5183 101.593 12.1317V12.1301C101.014 11.0325 100.12 10.5107 98.908 10.5648Z" fill="url(#paint2_linear_404_2745)"/>
<path d="M92.4763 48.0011C89.7974 48.1204 87.1535 48.6295 84.543 49.5283H84.5366C79.1836 51.1573 76.0274 53.6469 75.0682 56.9955C74.7023 58.2761 75.442 59.6108 76.7226 59.9767C76.9803 60.0514 77.2396 60.0801 77.4941 60.0689C78.5011 60.0228 79.411 59.3451 79.7038 58.3222C80.1858 56.6408 82.292 55.2377 86.0224 54.1162L86.1131 54.0859C88.2798 53.3414 90.4735 52.9183 92.6974 52.8197C94.2866 52.7481 95.8902 52.8419 97.5096 53.1028H97.5016C101.483 53.9507 103.615 55.9583 103.897 59.1272H103.892C103.941 61.3066 103.376 62.8147 102.199 63.6482H102.191C102.136 63.6689 102.09 63.6801 102.055 63.6832H102.053C102.042 63.6769 102.031 63.6673 102.018 63.6562L101.935 63.591C101.547 63.2951 101.35 62.864 101.343 62.2977C101.329 60.9662 100.239 59.8971 98.9079 59.9115C98.8793 59.9115 98.8522 59.913 98.8236 59.913C97.5319 59.9719 96.509 61.0441 96.5217 62.347C96.544 64.4882 97.376 66.1824 99.0193 67.4296H99.0177C99.3136 67.6666 99.6254 67.8655 99.9515 68.0261H99.9531C100.573 68.33 101.229 68.4891 101.919 68.505C102.027 68.5066 102.137 68.5066 102.247 68.5002C102.939 68.47 103.639 68.2934 104.348 67.972C104.452 67.9243 104.552 67.8702 104.649 67.8098C107.493 65.9963 108.847 63.004 108.707 58.8329L108.699 58.6993C108.205 53.133 104.772 49.689 98.3989 48.3638L98.2923 48.3447C96.3356 48.0298 94.398 47.9152 92.4763 48.0011Z" fill="url(#paint3_linear_404_2745)"/>
<path d="M50.9105 59.8845C50.6973 59.894 50.4857 59.9051 50.2757 59.9163C50.2185 59.9211 50.1612 59.9258 50.1055 59.9338C46.8953 60.3522 43.8616 60.9917 41.0045 61.8507C40.8836 61.8873 40.7659 61.9334 40.6514 61.9875L29.791 67.2228H29.7846C29.029 67.5219 28.2686 67.7414 27.5018 67.8846C27.4048 67.9021 27.3077 67.926 27.2139 67.9562C27.0755 67.9991 26.9275 68.0405 26.7701 68.0771C26.5076 67.9673 26.2228 67.9037 25.9237 67.8926L13.2387 67.4487C13.1735 67.4471 13.1082 67.4471 13.0446 67.4503C11.8515 67.5028 10.8636 68.4318 10.7539 69.6409C10.6505 70.7656 11.3425 71.7884 12.3765 72.14L12.3701 72.1416C12.5101 72.5123 12.7471 72.8925 13.0796 73.2822C13.1767 73.3967 13.2848 73.5017 13.401 73.5956C22.2919 80.7558 28.6822 86.4286 32.5717 90.614H32.5653C41.4659 102.24 47.3789 109.365 50.3044 111.991L50.3203 112.005C55.0131 116.145 58.5225 118.77 60.8482 119.882L60.853 119.883C67.1573 122.875 77.5182 124.463 91.9388 124.648C91.985 124.649 92.0311 124.648 92.0756 124.646C92.1504 124.643 92.2252 124.635 92.2984 124.625C96.261 124.078 99.4585 122.497 101.892 119.878C102.007 119.756 102.109 119.621 102.195 119.476C104.072 116.339 104.299 112.631 102.879 108.35C102.802 108.121 102.693 107.903 102.553 107.707C102.158 107.157 101.748 106.705 101.318 106.353C101.208 106.263 101.099 106.18 100.987 106.104C100.168 105.537 99.3583 105.272 98.5566 105.307C97.7914 105.342 97.0342 105.65 96.2833 106.232C95.9683 106.477 95.6677 106.773 95.3829 107.122C95.2922 107.231 95.2111 107.349 95.1411 107.475C94.0578 109.416 94.0689 111.872 95.1793 114.843C95.5547 115.849 96.5283 116.455 97.5448 116.409C97.7898 116.399 98.038 116.35 98.2798 116.259C98.3418 116.235 98.4007 116.212 98.4595 116.185L98.4675 116.183C98.38 116.395 98.2814 116.601 98.1716 116.802H98.1636C96.5649 118.423 94.4491 119.431 91.8132 119.824C78.1975 119.638 68.57 118.206 62.9258 115.531C61.0073 114.614 57.8734 112.238 53.5242 108.404C50.8102 105.967 45.0659 99.015 36.2894 87.5469C36.2433 87.4865 36.194 87.4292 36.1415 87.3719C32.7531 83.7194 27.5909 79.025 20.6534 73.2886H20.6471C21.2834 73.2599 21.9086 73.2202 22.521 73.1677H22.5274C23.3148 73.182 24.0498 73.174 24.7322 73.1438C26.253 73.077 27.5114 72.8956 28.5088 72.6013H28.5024C29.5842 72.3929 30.65 72.0748 31.7015 71.6484L31.8415 71.5864L42.5619 66.4195H42.554C45.0897 65.667 47.7861 65.1023 50.6432 64.7253H50.6368C50.8007 64.7157 50.9661 64.7078 51.1316 64.6998C56.5658 64.458 63.4285 65.2248 71.7213 67.0017C75.4104 67.8226 78.6302 69.0841 81.3807 70.7878L81.4109 70.8085C87.1489 74.243 92.6054 78.0387 97.7787 82.1986C97.8264 82.2368 97.8757 82.2734 97.9266 82.3084C99.0863 83.1038 100.58 83.9692 102.408 84.903L102.456 84.9269C102.581 84.9873 102.707 85.0494 102.833 85.1098H102.825C102.052 85.2403 101.267 85.3946 100.47 85.5727L100.396 85.5918C98.8556 85.9863 97.5369 86.4556 96.4376 86.9997L96.3135 87.0665C88.3579 91.5987 82.4052 94.6419 78.4568 96.1977C76.1628 97.0504 74.2491 97.5117 72.7172 97.5785C72.1684 97.604 71.6688 97.5785 71.2171 97.5022H71.2155C64.1316 96.177 60.0289 92.962 58.909 87.8587L58.9027 87.8603C59.7967 85.4741 61.5068 83.9263 64.033 83.2168H64.025C64.6518 83.0974 65.2531 83.0243 65.8306 82.9988C67.2464 82.9352 68.5127 83.1563 69.6278 83.6606H69.6199C68.7752 84.5101 67.6934 85.1003 66.3731 85.4312C65.1911 85.727 64.4148 86.8581 64.5659 88.0687C64.717 89.2777 65.7479 90.1845 66.9664 90.1797C67.3053 90.1781 67.633 90.1717 67.9511 90.1574C68.8324 90.1177 69.6342 90.0286 70.3564 89.8886C74.6882 89.055 76.4858 86.7277 75.7492 82.9097C75.657 82.4293 75.42 81.9887 75.0716 81.645C72.539 79.1618 69.4194 78.0037 65.7113 78.1691C64.8491 78.2073 63.9566 78.3171 63.0324 78.4984C62.9767 78.5096 62.921 78.5223 62.8653 78.5366C58.3984 79.7472 55.4824 82.555 54.1159 86.9615C54.003 87.3242 53.9791 87.706 54.0428 88.0798C55.3456 95.7332 60.775 100.453 70.3294 102.241L70.358 102.246C71.1375 102.383 71.9806 102.43 72.889 102.389C74.9809 102.297 77.4132 101.732 80.1828 100.7L80.2242 100.684C84.3682 99.0516 90.4912 95.9289 98.5932 91.3171H98.5852C99.3663 90.9306 100.346 90.5854 101.527 90.2783H101.52C103.722 89.7868 105.798 89.4988 107.748 89.4113C110.558 89.2857 113.108 89.58 115.398 90.2942H115.39C115.737 90.4135 116.084 90.5329 116.432 90.649C116.722 90.746 117.018 90.7842 117.306 90.7715C118.257 90.7301 119.132 90.1208 119.471 89.1695C119.91 87.9303 119.277 86.5686 118.045 86.1057C117.67 85.9657 117.291 85.8352 116.906 85.7127L116.899 85.7143C112.78 84.2842 108.682 82.5836 104.605 80.611H104.603C103.027 79.8045 101.752 79.0743 100.777 78.4173H100.771C95.4418 74.1365 89.8247 70.2279 83.9196 66.6899C80.7014 64.6966 76.9773 63.2299 72.7474 62.2914L72.7315 62.2882C64.0346 60.4253 56.7614 59.6236 50.9105 59.8845Z" fill="url(#paint4_linear_404_2745)"/>
<path d="M91.1783 46.0588C82.3127 46.4549 76.5604 49.4217 73.9228 54.9625C73.3502 56.1636 73.8608 57.6032 75.0634 58.1743C75.4325 58.3509 75.8239 58.4241 76.2056 58.4066C77.0663 58.3684 77.8792 57.8673 78.2769 57.0353C80.084 53.2365 84.446 51.1843 91.3628 50.8757C92.3141 50.8328 93.3147 50.8232 94.3631 50.8471L94.3551 50.8487C100.631 51.555 104.194 53.6501 105.042 57.1339H105.036C105.535 60.1231 105.289 62.2388 104.296 63.4828L104.288 63.4844C103.631 64.0253 103.027 64.3085 102.471 64.3339C102.012 64.3546 101.585 64.1955 101.196 63.8583L101.188 63.8599C100.965 63.5942 100.873 63.3492 100.911 63.1265H100.903C100.935 63.0645 100.976 63.0024 101.022 62.9404H101.014C102.79 61.6073 103.952 60.4985 104.504 59.6156C104.694 59.3117 104.837 59.0079 104.931 58.7041C105.327 57.433 104.617 56.0808 103.346 55.6847C103.073 55.5988 102.794 55.5654 102.522 55.5781C101.584 55.6195 100.723 56.2129 100.376 57.1323H100.368C100.072 57.5412 99.2675 58.2348 97.9535 59.2099C97.8405 59.2927 97.7356 59.3865 97.6385 59.4883C97.1311 60.0244 96.7381 60.613 96.4566 61.2557C96.4327 61.3098 96.4104 61.3639 96.3913 61.4196C95.6659 63.4685 96.0748 65.3647 97.621 67.1067C97.664 67.1544 97.7085 67.2005 97.7562 67.2451C99.3057 68.7325 100.92 69.4388 102.599 69.364C104.213 69.2924 105.888 68.4954 107.622 66.9762C107.705 66.9031 107.785 66.8251 107.856 66.7408C109.935 64.3387 110.57 60.8087 109.759 56.1492L109.727 55.9917C108.34 50.2999 103.356 46.9846 94.7735 46.0429C94.7067 46.0365 94.6383 46.0317 94.5699 46.0301C93.3927 46.0015 92.2616 46.0111 91.1783 46.0588Z" fill="url(#paint5_linear_404_2745)"/>
<path d="M98.6198 8.77195C97.1881 8.83558 96.0172 9.05671 95.1057 9.43214L95.0993 9.43373C94.0621 9.80916 93.1713 10.245 92.4252 10.743C92.3504 10.7923 92.2789 10.8464 92.2105 10.9036C89.9738 12.784 86.746 15.0174 82.5257 17.6041C81.708 18.1004 80.6819 18.6158 79.4506 19.1503L79.4172 19.1647C75.7632 20.8175 70.4626 22.2747 63.5156 23.5362C63.2881 23.5775 63.067 23.6523 62.8602 23.7573C61.6002 24.3936 60.4835 25.5406 59.5083 27.1982C59.4431 27.3096 59.3874 27.4257 59.3413 27.5466C57.1842 33.0969 55.7445 36.2849 55.0223 37.1105H55.0143C54.8743 37.2234 54.7455 37.3523 54.6325 37.4939C53.1658 39.3376 50.4503 41.2243 46.486 43.1571C46.3381 43.2287 46.1981 43.3162 46.0677 43.418C45.0718 44.188 44.1889 45.1456 43.4174 46.2894H43.4158C41.5991 48.8283 40.8801 52.3106 41.2603 56.7394C41.37 58.0311 42.482 58.9983 43.7674 58.9411C43.8008 58.9395 43.8342 58.9379 43.8676 58.9347C45.1943 58.8202 46.1774 57.6525 46.0629 56.3258C45.7829 53.0535 46.2156 50.6307 47.3642 49.0574L47.4151 48.9842C47.8462 48.3447 48.3186 47.8102 48.8341 47.3791H48.8261C53.1706 45.2395 56.2965 43.0251 58.2071 40.7391H58.1991C58.3184 40.6357 58.4361 40.5228 58.5507 40.3971C59.6595 39.1881 61.3918 35.5611 63.7478 29.516H63.7399C64.1185 28.8892 64.4748 28.4518 64.8073 28.202H64.8009C71.9118 26.8896 77.4351 25.3465 81.3707 23.5744H81.3691C82.8072 22.9508 84.0305 22.3319 85.0375 21.7179L85.0439 21.7147C89.3852 19.0533 92.7625 16.7196 95.1741 14.7104H95.1662C95.5989 14.432 96.1525 14.1743 96.8254 13.9357L96.9463 13.8896C97.379 13.7098 97.9914 13.6016 98.7836 13.5666C99.1479 13.5491 99.552 13.5491 99.9942 13.5634H99.9863C99.7334 14.4479 99.5472 15.4247 99.4279 16.4937C99.4152 16.6067 99.4104 16.7212 99.4136 16.8357L99.8304 30.3719H99.8256C99.7779 31.8593 99.5122 33.0508 99.0302 33.9448H99.0239C97.853 35.5467 96.2972 36.3899 94.3549 36.4774C93.0647 36.5346 91.6044 36.2578 89.9738 35.6486H89.9658C88.2096 34.5079 87.3983 33.6107 87.5303 32.9617H87.5224C87.7896 32.8551 88.1762 32.7899 88.6852 32.7676C89.5649 32.7278 90.809 32.8137 92.4157 33.0269C92.5588 33.046 92.702 33.0524 92.842 33.046C93.9874 32.9951 94.9657 32.1297 95.1216 30.9541C95.2966 29.6337 94.3676 28.4215 93.0472 28.2481C91.3578 28.0238 89.8847 27.9395 88.6327 27.9952C87.0372 28.0668 85.7963 28.3643 84.9103 28.8892C84.0974 29.3697 83.5231 30.0155 83.1874 30.83H83.1842C81.708 34.0387 83.1683 37.0421 87.5669 39.8371C87.6989 39.9214 87.8389 39.993 87.9837 40.0503C90.4876 41.0255 92.764 41.4693 94.8098 41.377C98.1903 41.2259 100.946 39.6208 103.079 36.5617C103.125 36.4949 103.168 36.4265 103.206 36.3565C104.111 34.7354 104.593 32.7342 104.649 30.356V30.2239L104.24 16.9169H104.232C104.441 15.1511 104.846 13.8705 105.451 13.0751C105.556 12.9351 105.646 12.7855 105.718 12.6281C105.818 12.4117 105.887 12.1874 105.923 11.9551V11.9536C106.186 10.2912 105.448 9.32396 103.71 9.05352L103.64 9.04239C101.711 8.799 100.037 8.70832 98.6198 8.77195Z" fill="url(#paint6_linear_404_2745)"/>
<path d="M95.4752 114.096C92.3381 112.139 88.7763 108.744 90.83 104.677C92.7231 100.924 96.8353 100.646 100.276 102.383C100.567 102.529 100.86 102.693 101.15 102.87H101.148C106.312 106.013 108.502 111.336 105.768 116.818C102.801 122.764 97.3157 126.049 90.9302 127.139C78.9594 129.183 68.7401 128.124 60.495 124.099L62.4756 124.159C61.2459 124.668 60.1228 124.037 60.013 123.981C58.2695 123.108 54.0889 119.236 47.8147 113.483L46.4069 112.193C44.1288 110.106 38.1013 102.644 28.8237 89.607C28.3767 88.9771 26.6905 87.6519 23.1493 84.9571C20.9206 83.2597 18.1463 81.1471 14.8979 78.5319C8.82895 73.6481 5.52167 69.3911 4.88694 66.9874L5.02216 67.3676V67.366C4.67377 66.5992 4.75331 65.7068 5.22737 65.0116C5.70143 64.318 6.50479 63.9203 7.34473 63.9649L16.6525 64.458L16.355 64.4596C21.3295 64.1081 23.9113 63.9028 24.3361 63.8392C26.8448 63.4654 22.1392 63.4256 22.3905 66.402V66.3877C22.5767 68.7898 25.7185 68.7818 24.4013 68.575C23.1939 68.3841 22.3205 67.3215 22.3683 66.0997C22.4144 64.8796 23.3673 63.8869 24.5858 63.7899C28.2113 63.502 34.7129 61.5644 44.8463 58.518C46.5612 58.0041 48.4224 57.4442 50.3314 56.8747C55.721 55.268 60.5857 55.5702 64.4959 56.302C69.0328 57.1515 73.9118 58.6532 79.0978 60.8644C81.8674 62.0448 88.3849 65.8834 98.3068 72.4439L98.3084 72.4454C98.31 72.4454 98.3004 72.4391 98.2988 72.4391L98.302 72.4407C99.1292 72.9672 105.321 75.88 117.428 81.2744C119.97 82.407 121.857 83.7004 123.247 84.6835C123.823 85.0923 124.402 85.5521 124.837 86.0611V86.0627C125.223 86.5177 126.376 88.1323 125.174 89.8313C124.692 90.5122 124.028 90.8303 123.624 90.9846L124.399 90.5026C123.89 90.9751 123.297 91.1533 123.05 91.2233C121.342 91.7037 116.728 91.691 110.068 91.6035C109.485 91.5971 108.752 91.7896 107.408 92.1841C107.225 92.2382 107.021 92.2986 106.824 92.3559C106.641 92.4084 106.802 92.3623 106.616 92.4164C106.431 92.4689 106.584 92.4243 106.398 92.4784C104.805 92.9382 102.885 93.5299 100.798 94.8885C95.0266 98.6444 90.523 100.755 87.6039 102.123L87.4766 102.182C81.3218 105.066 76.6417 106.003 74.0216 106.19C69.211 106.53 64.2143 104.648 59.049 100.607C54.2463 96.8515 51.2429 92.4084 51.2031 87.2319C51.1665 82.2798 54.7872 78.158 60.8736 76.0916C67.582 73.8135 73.4553 74.3846 76.2996 78.4205C76.4651 78.6543 76.5876 78.9152 76.6607 79.192C78.1752 84.9094 75.4947 88.8752 69.7742 90.3897C68.4729 90.7349 67.0221 90.9592 65.4376 91.0801C64.1109 91.1819 62.9512 90.1877 62.851 88.8609C62.7492 87.5326 63.7434 86.3745 65.0702 86.2727C66.4351 86.1693 67.5852 85.9816 68.5397 85.7286C71.9854 84.8171 72.7553 83.2804 71.9997 80.4265L72.3592 81.198C71.4572 79.9174 68.5858 78.5637 62.4231 80.6572C57.5425 82.3148 56.0089 85.0287 56.0249 87.1954C56.0487 90.3276 57.8304 93.5347 62.019 96.8102C66.6005 100.393 70.4455 101.608 73.6796 101.379C75.6363 101.241 79.7421 100.483 85.4308 97.8171L85.5581 97.7567C88.4215 96.4156 92.6833 94.416 98.1684 90.8462C100.876 89.0852 103.366 88.3344 105.061 87.846C105.154 87.819 105.195 87.8078 105.284 87.7824C105.531 87.7108 105.243 87.7935 105.488 87.7235C105.666 87.671 105.866 87.6121 106.048 87.5597C107.183 87.2256 108.674 86.7642 110.131 86.7833C117.328 86.8772 120.907 86.8167 121.744 86.5813C121.849 86.5527 121.497 86.6195 121.125 86.9647C121.35 86.7563 121.614 86.5924 121.9 86.4827C121.925 86.4731 121.556 86.5956 121.24 87.0458C120.335 88.3232 121.346 89.4002 121.165 89.187C121.125 89.1409 120.939 88.9564 120.462 88.6191C119.146 87.6869 117.567 86.6147 115.467 85.6793C103.62 80.401 96.9323 77.2831 95.7138 76.5084L95.717 76.5099C95.6915 76.494 95.6661 76.4781 95.6454 76.4638L95.6486 76.4654C85.6551 69.8588 79.5035 66.2779 77.2064 65.2996C72.2972 63.2045 67.7554 61.8173 63.6082 61.041C60.1848 60.3999 56.141 60.174 51.709 61.496C49.7619 62.075 47.9929 62.6079 46.2351 63.1361C36.4214 66.0854 29.2501 68.2569 24.9676 68.5957L25.1522 63.8122C23.8557 63.607 27.0086 63.6038 27.1963 66.0122L27.1948 65.9963C27.4477 68.9855 22.6737 68.9616 25.0456 68.6084C24.3822 68.7071 21.5156 68.9282 16.6955 69.2702C16.5968 69.2766 16.4966 69.2782 16.398 69.2718L7.0902 68.7786L9.41436 65.3775V65.3791L9.54958 65.7577C9.74525 66.5038 11.869 69.9065 17.9204 74.776C21.1147 77.3483 23.8413 79.4227 26.0701 81.1201C29.1674 83.4792 31.754 85.4073 32.753 86.8104C42.1085 99.9599 47.8354 106.963 49.6632 108.638V108.639L51.0727 109.93C57.8256 116.121 61.222 119.196 62.1717 119.67C62.4931 119.832 61.677 119.272 60.6302 119.705C61.2697 119.441 61.9904 119.463 62.6108 119.765C69.7105 123.232 78.8465 124.31 90.1189 122.387C95.3463 121.495 99.3201 118.941 101.453 114.665C102.86 111.848 102.093 109.088 98.6409 106.987C98.4563 106.875 98.275 106.773 98.1032 106.687C96.024 105.638 95.3733 106.376 95.1331 106.85C95.1331 106.851 94.6114 107.874 98.0268 110.006C99.1563 110.711 99.5015 112.196 98.7968 113.326C98.092 114.457 96.6046 114.801 95.4752 114.096Z" fill="url(#paint7_linear_404_2745)"/>
<path d="M103.261 4.7838C99.5714 4.94924 97.1852 5.25309 96.1003 5.69533C95.9412 5.76055 95.7917 5.83214 95.6517 5.91009H95.6437C93.9209 6.47641 92.004 7.45157 89.8978 8.83398L89.8516 8.86421H89.8532C89.7864 8.91034 89.7212 8.95965 89.6607 9.01056L81.9788 15.5233H81.9724C80.7873 16.3155 79.6403 16.9359 78.5299 17.3877C77.3384 17.8729 76.4269 18.1481 75.7937 18.2133L75.6696 18.2308C74.4288 18.4265 73.013 18.5601 71.419 18.6317C69.8298 18.7017 68.0656 18.7097 66.1248 18.6572C66.0676 18.6556 66.0087 18.6556 65.9514 18.6588C65.9117 18.6604 65.8735 18.6635 65.8337 18.6667C64.7583 18.7669 63.6098 19.0708 62.3912 19.5783C62.3292 19.6037 62.2703 19.6308 62.2115 19.661C60.3502 20.6218 58.9344 22.0154 57.964 23.8448C57.867 24.0261 57.7954 24.2202 57.7477 24.4207C56.8155 28.3754 56.0248 30.6821 55.379 31.3422H55.371L55.3376 31.3661L44.544 39.7401L44.4661 39.8021C43.1234 40.9364 41.6233 42.7149 39.9625 45.1393L39.9593 45.1409C37.5572 48.3734 37.0004 52.037 38.2858 56.1317C38.6215 57.1959 39.6268 57.8657 40.6911 57.8179C40.8963 57.8084 41.1031 57.7734 41.3083 57.7082C42.5778 57.3089 43.2841 55.9567 42.8864 54.6857C42.083 52.134 42.4139 49.8894 43.8759 47.955L43.9411 47.8627C45.3219 45.8472 46.5087 44.4091 47.5045 43.5485H47.4997L58.2917 35.1761H58.2965C58.4763 35.044 58.6481 34.8929 58.8151 34.7243C60.0607 33.4564 61.2411 30.5087 62.3562 25.8794H62.3483C62.8223 25.0824 63.4777 24.4557 64.3161 24.0023H64.3081C64.9954 23.7223 65.6094 23.5489 66.1519 23.4805H66.1598C68.1436 23.533 69.9666 23.5203 71.6306 23.4471C73.3821 23.3691 74.9554 23.2212 76.3521 23.0033H76.3441C77.4227 22.8839 78.7558 22.5006 80.3466 21.8547V21.8531C81.8133 21.2566 83.3039 20.4468 84.8168 19.4208C84.8883 19.3715 84.9567 19.3205 85.0236 19.2633L92.6403 12.8062H92.6324C94.4522 11.6195 96.0335 10.8241 97.3761 10.4184C97.5909 10.3532 97.7961 10.2593 97.9854 10.1368L97.9775 10.1384C98.6472 9.88868 100.24 9.70733 102.751 9.59597C103.439 9.56575 104.194 9.5403 105.02 9.51962H105.012C104.201 10.6745 103.523 12.0204 102.979 13.5587H102.973C102.877 13.7193 102.79 13.8911 102.712 14.0741C101.862 16.0785 101.786 21.5683 102.481 30.5468H102.473C102.312 31.6349 101.772 32.8201 100.849 34.1007L100.841 34.1023C98.0347 36.4917 95.332 37.7436 92.7326 37.8597C91.3677 37.9202 90.033 37.6689 88.7254 37.1025H88.7174C86.1737 34.9645 85.3258 32.9235 86.1785 30.9795H86.1705C86.8243 30.3289 87.5116 29.9869 88.2306 29.9551C89.1071 29.9153 90.033 30.3368 91.0082 31.2182C91.2913 31.4743 91.5793 31.7622 91.872 32.082C92.3731 32.6276 93.0698 32.8901 93.7571 32.8599C94.3027 32.836 94.8436 32.626 95.2779 32.2283C96.2594 31.3279 96.3246 29.8039 95.4242 28.8224C95.0297 28.3913 94.6352 27.9984 94.2423 27.642C92.0835 25.6901 90.0012 24.7595 87.9936 24.8486C86.0576 24.9345 84.19 25.9717 82.3924 27.9586C82.2572 28.1081 82.141 28.2736 82.0472 28.4533C79.7262 32.8678 81.0116 37.0596 85.9033 41.0302C86.0544 41.1543 86.2214 41.2593 86.3996 41.342C88.5885 42.3681 90.7918 42.831 93.0094 42.7324C96.708 42.5669 100.446 40.8393 104.226 37.5495C104.357 37.435 104.474 37.3077 104.578 37.1693C106.183 35.0106 107.091 32.8869 107.3 30.7998C107.314 30.6566 107.315 30.5134 107.304 30.3718C106.666 22.2444 106.603 17.4704 107.113 16.0514H107.105C107.252 15.851 107.366 15.6299 107.446 15.396C108.574 12.0442 110.519 10.0462 113.286 9.40031C114.476 9.12351 115.269 7.99722 115.133 6.78344C114.996 5.56806 113.971 4.64858 112.75 4.64222C108.967 4.62313 105.804 4.67085 103.261 4.7838Z" fill="url(#paint8_linear_404_2745)"/>
<path d="M90.2225 43.5389C88.1831 43.6296 86.0466 43.8762 83.8147 44.2802L83.6588 44.3137C76.8804 46.0079 73.0068 49.2865 72.0364 54.1512C71.7755 55.4572 72.6234 56.7267 73.9295 56.9876C74.1251 57.0258 74.3192 57.0401 74.5101 57.0321C75.5919 56.9844 76.5432 56.2049 76.7643 55.0945C77.3338 52.2438 79.9904 50.2171 84.7374 49.0145H84.7294C86.7291 48.655 88.6317 48.4354 90.4356 48.3543C95.3051 48.1379 99.4666 48.9349 102.919 50.7453H102.912C106.703 53.0042 108.366 56.022 107.898 59.7969V59.8017C107.718 61.2764 106.97 62.7749 105.653 64.2957H105.645C104.564 65.2566 103.533 65.7593 102.55 65.8038C102.453 65.807 102.354 65.807 102.257 65.8022L102.249 65.8038C100.292 65.3011 99.0769 64.2066 98.6012 62.5188H98.5933C98.8478 60.7132 99.8739 59.711 101.673 59.5138C102.997 59.369 103.951 58.1775 103.806 56.8539C103.666 55.5845 102.564 54.6539 101.304 54.7095C101.251 54.7111 101.199 54.7159 101.146 54.7223C96.6111 55.2202 94.1454 57.7957 93.7525 62.4488C93.7318 62.6826 93.7461 62.9181 93.7954 63.1472C94.6226 67.0908 97.1265 69.5533 101.307 70.5364C101.411 70.5603 101.514 70.5778 101.617 70.5873C102.017 70.6287 102.414 70.6398 102.807 70.6223C104.966 70.5253 107.042 69.5629 109.035 67.7318C109.099 67.673 109.159 67.6094 109.217 67.5441C111.224 65.2534 112.379 62.8688 112.683 60.3887C113.413 54.4852 110.938 49.8656 105.259 46.5312L105.159 46.4756C100.937 44.2612 95.9589 43.2828 90.2225 43.5389Z" fill="url(#paint9_linear_404_2745)"/>
<path d="M47.9754 112.57C48.2665 112.557 48.5354 112.607 48.7835 112.72C48.5019 112.624 48.2045 112.583 47.9054 112.596C47.6668 112.607 47.4266 112.653 47.1943 112.737C47.4695 112.637 47.7304 112.581 47.9754 112.57ZM56.1887 56.1492C58.1947 56.0585 60.8672 56.1938 64.2079 56.5501H64.2016C68.0974 57.3248 71.4572 58.335 74.2809 59.5806H74.2745L91.6031 71.1473L91.5952 71.1489C91.6652 71.2062 91.7383 71.2634 91.8163 71.3191C93.3721 72.4438 99.8944 74.9557 111.385 78.8547H111.377C114.635 80.2737 117.069 81.6434 118.682 82.9638H118.674C121.924 85.9958 123.874 88.6222 124.525 90.8446C119.24 90.0444 114.935 89.7183 111.614 89.8663C109.956 89.9394 108.544 90.1319 107.374 90.4421H107.368C104.648 90.9019 97.4764 94.4048 85.8556 100.951H85.8476C82.7328 102.263 79.8312 103.135 77.1427 103.565H77.1364C76.3155 103.676 75.5026 103.751 74.6993 103.786C70.0366 103.994 65.6508 102.927 61.5402 100.583H61.5322C55.7767 96.764 52.9944 93.4408 53.1869 90.6139C53.1948 90.4819 53.1932 90.3499 53.1805 90.2178C52.7828 86.1295 54.7713 82.6058 59.146 79.6469H59.138C61.782 78.4427 64.227 77.7889 66.4716 77.6887C69.3064 77.563 71.8215 78.317 74.02 79.9508H74.012C75.3483 82.2718 75.0826 84.5593 73.2135 86.8135H73.2055C71.7913 87.9923 70.3437 88.6143 68.8594 88.6811C67.5709 88.7384 66.2569 88.3773 64.9174 87.5962C64.5022 87.3544 64.0457 87.251 63.5987 87.2701C62.808 87.3067 62.0492 87.7314 61.6213 88.4664C60.9516 89.6165 61.3413 91.0928 62.4915 91.7625C64.7568 93.0813 66.968 93.6921 69.1267 93.5967C71.6656 93.4837 74.1298 92.3925 76.5223 90.3228C76.613 90.2433 76.6989 90.1574 76.7769 90.0651C80.3864 85.8431 80.7459 81.4859 77.8554 76.9951C77.7122 76.7724 77.5341 76.5751 77.3257 76.4097C74.0804 73.8405 70.4232 72.6458 66.3539 72.8272C63.438 72.9576 60.3073 73.7944 56.9666 75.3391C56.8552 75.39 56.7471 75.4504 56.6437 75.5188C50.5923 79.5404 47.8338 84.5498 48.3699 90.5503H48.362C48.1902 95.1604 51.6963 99.8469 58.8819 104.611L59.0092 104.689C63.9693 107.551 69.2603 108.857 74.8822 108.606C75.8621 108.563 76.8532 108.471 77.8538 108.332L77.9031 108.326C80.598 107.895 83.4439 107.091 86.4457 105.913H86.4537C86.3742 106.514 86.3408 107.146 86.3519 107.81C86.3551 107.958 86.371 108.105 86.3996 108.25C87.6023 114.15 90.3194 117.007 94.5477 116.818C94.8006 116.806 95.0599 116.784 95.324 116.751C96.646 116.585 97.5814 115.38 97.4159 114.059C97.2584 112.804 96.1624 111.896 94.92 111.95C94.8547 111.953 94.7895 111.959 94.7243 111.967C94.6559 111.975 94.5875 111.982 94.5207 111.985C92.9537 112.055 91.8402 110.575 91.1784 107.546L91.172 107.548C91.1879 105.343 92.2506 103.851 94.3584 103.068L94.3504 103.07C94.5652 103.051 94.7784 103.037 94.9884 103.027C99.519 102.825 102.946 104.866 105.27 109.148H105.262C106.353 113.463 104.538 117.815 99.8164 122.209H99.8085C95.3511 124.862 90.2525 126.318 84.5145 126.572C83.8146 126.604 83.1035 126.619 82.3828 126.614H82.316C74.0136 126.789 67.2384 125.451 61.9919 122.599C57.5902 120.123 53.4939 117.02 49.7046 113.286C49.493 113.078 49.248 112.912 48.984 112.798H48.976C47.3598 111.337 41.6854 103.988 31.9544 90.7476L31.9385 90.7269C30.6913 89.0677 28.8221 87.0219 26.3325 84.5928C26.2419 84.5037 26.1448 84.4225 26.0414 84.3494C16.8323 77.8303 11.686 73.9407 10.6027 72.6824H10.5947C10.5136 72.517 10.4134 72.3611 10.2957 72.2179C7.65493 69.0108 6.01482 66.5308 5.3769 64.7825H5.38327L17.7438 65.982C17.8011 65.9867 17.8599 65.9899 17.9172 65.9915C18.4708 66.0058 19.0848 65.9963 19.7609 65.9676C21.1338 65.9056 22.7596 65.7545 24.6383 65.5143C27.1677 65.1929 29.713 64.6266 32.2758 63.8185L32.3378 63.7978L53.3714 56.5326H53.3634C54.0777 56.329 55.0195 56.2001 56.1887 56.1492ZM55.9708 51.3498C54.3656 51.4214 53.0437 51.6059 52.0049 51.9065L51.8872 51.9431L30.7629 59.2401H30.7597C28.4944 59.9528 26.2514 60.4492 24.0306 60.7307L24.0275 60.7323C22.2728 60.9566 20.7822 61.0966 19.5573 61.1507C19.0339 61.1746 18.5583 61.1825 18.132 61.1746H18.124L3.0607 59.7126C2.94616 59.7015 2.83162 59.6983 2.71867 59.7031C1.70215 59.7492 0.806531 60.4348 0.513823 61.437C-0.407251 64.5932 1.55898 69.1429 6.41411 75.0893H6.40774C6.48887 75.2309 6.58432 75.3725 6.6925 75.514C7.85696 77.0333 13.3357 81.26 23.1271 88.1943H23.1191C25.3542 90.3833 27.0102 92.1936 28.084 93.6237C38.4369 107.707 44.4709 115.415 46.1842 116.744V116.746C46.3575 116.88 46.5309 116.994 46.7059 117.088L46.698 117.09C50.6877 120.96 54.9972 124.197 59.628 126.801L59.6566 126.816C65.6524 130.086 73.2341 131.625 82.4003 131.434H82.3924C83.1862 131.439 83.9689 131.424 84.742 131.389C91.39 131.093 97.3205 129.361 102.535 126.195C102.672 126.113 102.798 126.017 102.915 125.911C109.31 120.039 111.617 113.927 109.832 107.575C109.786 107.413 109.724 107.255 109.644 107.104C107.288 102.626 104.081 99.8326 100.025 98.727H100.017C104.345 96.4935 107.051 95.3179 108.135 95.2002C108.267 95.1859 108.396 95.162 108.523 95.1254C109.426 94.8741 110.554 94.7182 111.907 94.6578C115.362 94.5034 120.277 94.9759 126.655 96.0736C126.83 96.1038 127.003 96.1149 127.173 96.107C128.266 96.0577 129.221 95.2638 129.432 94.1455C130.264 89.7326 127.737 84.7948 121.849 79.332L121.738 79.2349C119.757 77.6123 116.902 75.9929 113.171 74.3782C113.111 74.3512 113.05 74.3273 112.988 74.3066C102.112 70.6176 96.0176 68.3332 94.7052 67.4566H94.6972C94.6002 67.366 94.4952 67.2816 94.3839 67.2085L76.7625 55.4445C76.6496 55.3697 76.5319 55.3045 76.4094 55.2488C73.1928 53.8107 69.3955 52.6606 65.0176 51.7968C64.9492 51.7841 64.8792 51.7729 64.8093 51.765C61.2602 51.3832 58.3124 51.2448 55.9708 51.3498Z" fill="#FEFEFE"/>
<path d="M104.628 0.0257518C102.995 0.0989289 101.339 0.328004 99.6618 0.712978L99.56 0.738431C96.5089 1.58156 94.0192 2.62989 92.0896 3.88026H92.0816C91.9846 3.92163 91.886 3.96935 91.7873 4.02185C90.6229 4.6343 87.3983 7.25436 82.1121 11.8772H82.1041C81.0176 12.6742 80.0806 13.2374 79.2932 13.5651C78.1939 14.02 75.5071 14.3414 71.2342 14.5323C69.5432 14.607 67.604 14.6627 65.415 14.6961C65.3928 14.6961 65.3689 14.6977 65.3466 14.6977C65.2862 14.7009 65.2273 14.7057 65.1669 14.7136C63.2627 14.9411 61.6401 15.3961 60.299 16.0801C57.7871 17.3448 55.8782 19.117 54.5753 21.3998H54.5721C54.5499 21.4364 54.5276 21.4745 54.5053 21.5127C53.7958 22.7535 53.1054 25.6711 52.4309 30.2653L52.423 30.2669C52.2337 30.795 51.9855 31.2261 51.6801 31.5618L51.6626 31.5793C51.4001 31.8736 51.1455 32.0947 50.9022 32.2411H50.8942C46.6086 34.0339 43.9997 35.2922 43.0706 36.016C42.9068 36.1433 42.7604 36.2769 42.6316 36.4137H42.6236C39.7411 38.6918 37.751 40.8728 36.6549 42.9535H36.6533C33.4511 48.6247 33.1218 54.051 35.6639 59.2338C36.0982 60.1215 37.0081 60.6226 37.9371 60.5812C38.2585 60.5669 38.5814 60.4874 38.89 60.3362C40.0847 59.7492 40.5779 58.3064 39.9924 57.1101C38.1885 53.4337 38.4859 49.4854 40.8833 45.2682L40.9199 45.1997C41.7216 43.6789 43.349 41.9609 45.8052 40.0456C45.9086 39.966 46.0041 39.8769 46.0932 39.7799H46.0868C46.7645 39.2915 49.0393 38.24 52.9113 36.6237C52.9877 36.5919 53.0625 36.5569 53.134 36.5172C53.8833 36.1099 54.5849 35.542 55.2403 34.8118C56.0611 33.913 56.6768 32.8154 57.0888 31.5189C57.127 31.3932 57.1572 31.2659 57.1763 31.1371C57.7649 27.0789 58.2676 24.6752 58.6812 23.9244H58.6796L58.7607 23.7907C59.5863 22.3479 60.824 21.212 62.4768 20.3832L62.4911 20.3753C63.2961 19.9649 64.3381 19.6769 65.6187 19.5147H65.625C67.5515 19.4844 69.3109 19.4335 70.9001 19.3619C76.1291 19.1281 79.5445 18.6811 81.1433 18.0177L81.1465 18.0161C82.3284 17.5246 83.6456 16.7387 85.0996 15.6602C85.1505 15.622 85.2014 15.5806 85.2492 15.5377C90.0963 11.2982 92.9932 8.89765 93.9397 8.33928L93.9318 8.34087C94.1417 8.27088 94.3438 8.17225 94.5283 8.04817C96.0412 7.02528 98.1203 6.14557 100.764 5.40743L100.756 5.40903C102.131 5.09246 103.486 4.90633 104.824 4.84588C107.624 4.7218 110.341 5.15609 112.978 6.15193L113.056 6.17897C113.265 6.25056 113.476 6.32692 113.69 6.40646H113.682C110.809 7.58524 108.481 9.47989 106.696 12.0888H106.688C106.408 12.3576 106.167 12.6901 105.961 13.0846C104.958 15.0286 104.364 20.8143 104.181 30.4403L104.173 30.4419C103.854 32.3556 103.111 34.0498 101.946 35.5197L101.881 35.6072C100.333 37.7548 98.2126 39.1261 95.521 39.721L95.4557 39.7353C94.5235 39.9692 93.655 40.1028 92.8484 40.1394C91.1272 40.2158 89.6939 39.8435 88.5501 39.0211L88.5485 39.0227C84.0656 35.5993 82.5575 32.2761 84.0274 29.0515H84.0195C84.8721 27.8171 85.9475 27.1712 87.2472 27.1139C87.5606 27.0996 87.8851 27.1203 88.224 27.1744H88.216C90.2204 27.8314 91.361 28.9449 91.6394 30.5166C91.8542 31.7209 92.928 32.5576 94.1179 32.5036C94.2229 32.4988 94.3279 32.4877 94.4344 32.4686C95.7453 32.2363 96.6202 30.9859 96.388 29.6751C95.7596 26.134 93.4609 23.7494 89.4902 22.5197C89.398 22.4911 89.3041 22.4688 89.2087 22.4513C88.3767 22.3002 87.5829 22.2413 86.8256 22.2747C84.0131 22.4004 81.7176 23.8035 79.9375 26.484C79.8786 26.5715 79.8261 26.6621 79.78 26.7576C77.0152 32.4049 78.9623 37.7707 85.623 42.8549L85.6628 42.8835C87.7308 44.3964 90.1838 45.09 93.0186 44.9627C94.1401 44.9134 95.3221 44.7352 96.5645 44.4282H96.5598C100.414 43.5771 103.47 41.6045 105.729 38.5136H105.726C107.463 36.3199 108.546 33.8001 108.974 30.9557C108.989 30.8507 108.998 30.7457 109 30.6407C109.159 22.0663 109.547 17.0123 110.164 15.4772L110.156 15.4788C110.293 15.3484 110.416 15.202 110.521 15.0429C112.66 11.7643 116.087 10.0144 120.8 9.79487C121.844 9.74555 122.736 9.03128 123.012 8.0243C123.288 7.01733 122.884 5.94672 122.011 5.37244C119.426 3.67346 116.984 2.42945 114.684 1.64042H114.681C111.421 0.410726 108.069 -0.128556 104.628 0.0257518Z" fill="#FEFEFE"/>
<path d="M91.0715 39.8292C88.2573 39.9549 85.5132 40.4417 82.8359 41.2912H82.8295C76.242 43.1397 71.7607 47.2694 69.3873 53.6819C68.9243 54.9307 69.5622 56.3179 70.8094 56.7792C71.1212 56.8954 71.441 56.9415 71.7544 56.9288C72.6929 56.8858 73.5615 56.294 73.9083 55.3571C75.7218 50.4574 79.1564 47.3092 84.2072 45.9125L84.2947 45.887C86.5536 45.1712 88.8793 44.7591 91.2735 44.6526C95.3603 44.4696 99.6443 45.1759 104.126 46.7699H104.118C105.839 47.6242 107.376 49.3931 108.731 52.0784H108.729C110.368 55.5702 111.031 58.4209 110.723 60.6322L110.705 60.7833C110.357 65.368 107.7 67.8083 102.734 68.101C98.7041 67.3724 96.4945 65.3791 96.1064 62.118H96.0968C96.1668 61.173 96.2941 60.3394 96.4818 59.6188C96.9749 57.7178 98.0535 56.7299 99.7191 56.6552C100.273 56.6313 100.891 56.7076 101.576 56.8842C101.814 56.9463 102.054 56.9701 102.288 56.959C103.317 56.9129 104.242 56.205 104.514 55.155C104.848 53.8665 104.073 52.5509 102.785 52.2168C101.372 51.8509 100.087 51.6934 98.9284 51.7443C95.2966 51.9066 92.9248 54.1274 91.8144 58.4082C91.5423 59.4613 91.3626 60.6433 91.2767 61.9541C91.2671 62.0798 91.2687 62.2071 91.2815 62.3327C91.8271 68.268 95.4653 71.79 102.196 72.9004C102.361 72.9275 102.528 72.9386 102.695 72.9306C102.7 72.9306 102.707 72.9306 102.713 72.9291C110.622 72.5775 114.886 68.7007 115.501 61.3003H115.497C115.94 58.1282 115.129 54.3501 113.064 49.9642L113.036 49.907C111.151 46.1702 108.82 43.6503 106.047 42.3475C105.979 42.3157 105.907 42.287 105.836 42.26C100.72 40.429 95.7977 39.6193 91.0715 39.8292Z" fill="#FEFEFE"/>
<defs>
<linearGradient id="paint0_linear_404_2745" x1="50.095" y1="85.2114" x2="68.4576" y2="116.147" gradientUnits="userSpaceOnUse">
<stop stop-color="#0063B5"/>
<stop offset="1" stop-color="#5DCC6C"/>
</linearGradient>
<linearGradient id="paint1_linear_404_2745" x1="92.9697" y1="111.09" x2="98.8137" y2="117.353" gradientUnits="userSpaceOnUse">
<stop stop-color="#0063B5"/>
<stop offset="1" stop-color="#5DCC6C"/>
</linearGradient>
<linearGradient id="paint2_linear_404_2745" x1="64.3855" y1="28.3391" x2="78.8761" y2="49.7556" gradientUnits="userSpaceOnUse">
<stop stop-color="#0063B5"/>
<stop offset="1" stop-color="#5DCC6C"/>
</linearGradient>
<linearGradient id="paint3_linear_404_2745" x1="86.6099" y1="56.1156" x2="92.5209" y2="67.2867" gradientUnits="userSpaceOnUse">
<stop stop-color="#0063B5"/>
<stop offset="1" stop-color="#5DCC6C"/>
</linearGradient>
<linearGradient id="paint4_linear_404_2745" x1="48.2838" y1="85.5377" x2="66.711" y2="121.133" gradientUnits="userSpaceOnUse">
<stop stop-color="#0063B5"/>
<stop offset="1" stop-color="#5DCC6C"/>
</linearGradient>
<linearGradient id="paint5_linear_404_2745" x1="86.2439" y1="55.2756" x2="93.1631" y2="67.6812" gradientUnits="userSpaceOnUse">
<stop stop-color="#0063B5"/>
<stop offset="1" stop-color="#5DCC6C"/>
</linearGradient>
<linearGradient id="paint6_linear_404_2745" x1="63.511" y1="28.6557" x2="79.705" y2="52.7041" gradientUnits="userSpaceOnUse">
<stop stop-color="#0063B5"/>
<stop offset="1" stop-color="#5DCC6C"/>
</linearGradient>
<linearGradient id="paint7_linear_404_2745" x1="-24.5111" y1="-3.60602" x2="168.732" y2="6.70054" gradientUnits="userSpaceOnUse">
<stop stop-color="#0063B5"/>
<stop offset="1" stop-color="#5DCC6C"/>
</linearGradient>
<linearGradient id="paint8_linear_404_2745" x1="18.8111" y1="-38.9048" x2="142.824" y2="-33.1267" gradientUnits="userSpaceOnUse">
<stop stop-color="#0063B5"/>
<stop offset="1" stop-color="#5DCC6C"/>
</linearGradient>
<linearGradient id="paint9_linear_404_2745" x1="62.0908" y1="21.2854" x2="127.369" y2="24.4241" gradientUnits="userSpaceOnUse">
<stop stop-color="#0063B5"/>
<stop offset="1" stop-color="#5DCC6C"/>
</linearGradient>
</defs>
</svg>
