<svg width="111" height="88" viewBox="0 0 111 88" fill="none" xmlns="http://www.w3.org/2000/svg">
<path d="M40.6571 45.8004C42.3042 45.6355 43.9458 45.7843 45.5715 45.6248C45.8594 45.5981 46.1419 45.5553 46.4191 45.5018C42.7151 45.3156 39.1706 43.9896 36.4095 41.4329C35.9407 40.9962 35.4987 40.5328 35.1252 40.0106C35.0771 39.9464 34.8427 39.5793 34.7571 39.4776C34.725 39.499 34.6886 39.5365 34.6725 39.5525C34.5388 39.6756 34.4061 39.7976 34.2723 39.9142C34.2348 39.9464 34.1974 39.9785 34.161 40.0106C34.1449 40.0266 34.1289 40.0373 34.1128 40.0534C34.0326 40.1229 33.9469 40.1968 33.8678 40.2663C33.8356 40.2931 33.8089 40.3145 33.7768 40.3413C33.7393 40.3734 33.7072 40.399 33.6698 40.4312C33.5959 40.4954 33.5157 40.5542 33.4407 40.6174C33.4247 40.6281 33.414 40.6388 33.3979 40.6495C33.3455 40.6923 33.2973 40.7297 33.2438 40.7672C33.1315 40.8517 33.0202 40.9374 32.9024 41.023C32.881 41.039 32.8596 41.0551 32.8382 41.0701C32.7216 41.1503 32.6038 41.2306 32.4872 41.3098C32.439 41.3419 32.3909 41.374 32.3374 41.4061C32.2421 41.4703 32.1404 41.5281 32.0388 41.587C31.9863 41.6191 31.9328 41.6512 31.874 41.6833C31.5647 41.8588 31.234 42.0236 30.883 42.1788C30.7438 42.2366 30.6111 42.2954 30.472 42.349C30.4238 42.365 30.3821 42.3811 30.3339 42.4025C29.9069 42.5566 29.4756 42.6839 29.0176 42.7856C28.9159 42.807 28.3616 42.9183 28.2759 42.9879C28.2974 43.1687 29.0443 43.9521 29.1557 44.0688C30.7224 45.7629 32.423 46.9776 34.4799 47.9836C35.1948 47.5416 35.9086 47.1638 36.6439 46.8492C36.6974 46.8277 36.7455 46.8063 36.799 46.786C36.9745 46.7111 37.1554 46.6415 37.332 46.5773C37.3951 46.5516 37.4647 46.5302 37.5343 46.5035C37.6884 46.45 37.8436 46.4018 37.9977 46.3536C38.1047 46.3226 38.2106 46.2905 38.3176 46.2584C38.4664 46.2156 38.6216 46.1781 38.7757 46.1407C38.8613 46.1193 38.9469 46.0989 39.0315 46.0775C39.0689 46.0668 39.1064 46.0615 39.1439 46.0561C39.298 46.024 39.4478 45.9919 39.6019 45.9652C39.6501 45.9545 39.6982 45.9491 39.7464 45.9384C39.7838 45.9331 39.8149 45.9277 39.8523 45.9224C39.8737 45.917 39.8951 45.917 39.9165 45.9117C40.1563 45.8592 40.4067 45.8271 40.6571 45.8004ZM50.443 18.1463C46.9841 19.3343 45.3425 23.1581 41.0413 21.8321C39.8042 21.449 38.6912 20.6025 37.9495 19.5419C37.3213 18.6418 36.8836 17.4539 37.1768 16.357C37.3373 15.7502 37.6991 15.2654 38.2053 14.8972C38.659 14.5622 39.2562 14.3867 39.8095 14.3439C41.3345 14.2208 42.6455 15.0042 42.3363 16.693C42.0591 18.1945 41.3774 17.7204 40.4441 17.0868C40.4067 17.0654 40.3746 17.044 40.3371 17.028C40.3168 17.0173 40.29 17.0066 40.2686 17.0012C40.2472 16.9959 40.2258 16.9852 40.2098 16.9852C40.1884 16.9798 40.167 16.9745 40.1402 16.9745C40.1188 16.9745 40.0974 16.9691 40.0813 16.9691C40.061 16.9691 40.0396 16.9691 40.0182 16.9691C39.9968 16.9691 39.9807 16.9745 39.9593 16.9798C39.9379 16.9852 39.9165 16.9905 39.9005 16.9959C39.8791 17.0012 39.863 17.0066 39.847 17.0173C39.8309 17.0226 39.8095 17.0333 39.7945 17.044C39.7785 17.0547 39.7624 17.0654 39.741 17.0761C39.725 17.0868 39.7089 17.0975 39.6929 17.1082C39.6768 17.1189 39.6608 17.135 39.6447 17.1511C39.6286 17.1618 39.618 17.1778 39.6019 17.1928C39.5858 17.2088 39.5751 17.2249 39.5644 17.2409C39.5537 17.257 39.543 17.2731 39.5323 17.2891C39.5227 17.3052 39.512 17.3266 39.5013 17.348C39.4906 17.364 39.4852 17.3801 39.4745 17.3961C39.4638 17.4165 39.4585 17.4379 39.4531 17.4593C39.4478 17.4753 39.4424 17.4914 39.4371 17.5128C39.4317 17.5342 39.4264 17.5556 39.4264 17.577C39.4264 17.593 39.421 17.6145 39.421 17.6305C39.421 17.6508 39.421 17.6776 39.421 17.699C39.421 17.715 39.421 17.7311 39.4264 17.7525C39.4317 17.7739 39.4371 17.8007 39.4424 17.8221C39.4478 17.8381 39.4478 17.8542 39.4531 17.8692C39.4638 17.8906 39.4745 17.9173 39.4852 17.9387C39.4906 17.9548 39.4959 17.9708 39.5066 17.9815C39.5227 18.0083 39.543 18.0297 39.5644 18.0564C39.5751 18.0671 39.5805 18.0778 39.5912 18.0886C39.6233 18.1196 39.6608 18.1517 39.7089 18.1838C40.4067 18.6579 41.1901 19.0892 41.9157 19.0196C41.9424 19.0196 41.9681 19.0153 41.9949 19.01C42.0537 18.9993 42.1072 18.9886 42.1607 18.9725C42.1714 18.9672 42.1822 18.9672 42.1929 18.9672C42.256 18.9458 42.3256 18.919 42.3898 18.8923C42.4112 18.8816 42.4272 18.8709 42.4486 18.8602C42.4904 18.8388 42.5385 18.812 42.5813 18.781C42.6027 18.7649 42.6295 18.7489 42.6509 18.7328C42.6937 18.7007 42.7312 18.6686 42.7729 18.6311C42.7943 18.6097 42.8157 18.5937 42.8371 18.5723C42.8799 18.5305 42.9227 18.4877 42.9602 18.4396C42.9762 18.4182 42.9976 18.3968 43.0137 18.3754C43.0715 18.3015 43.1303 18.2266 43.1839 18.1356C43.7543 17.2409 43.8656 16.0316 43.4771 15.047C42.9709 13.7681 41.7926 13.156 40.4709 13.0543C40.3478 13.0447 40.2312 13.0393 40.1134 13.0393C40.076 13.0393 40.0343 13.0393 39.9968 13.0393C39.9165 13.0393 39.8363 13.0393 39.7571 13.0447C39.7089 13.049 39.6661 13.049 39.618 13.0543C39.5484 13.0597 39.4745 13.065 39.405 13.0757C39.3568 13.0811 39.3087 13.0918 39.2605 13.0971C39.192 13.1078 39.1224 13.1185 39.0582 13.1346C39.0101 13.1453 38.963 13.156 38.9148 13.1667C38.8506 13.1827 38.7811 13.1988 38.7179 13.2202C38.6697 13.2363 38.6216 13.2523 38.5734 13.263C38.5092 13.2833 38.4461 13.3047 38.3872 13.3315C38.3391 13.3476 38.2909 13.369 38.2427 13.3904C38.1849 13.4171 38.1261 13.4439 38.0619 13.4706C38.0137 13.492 37.9656 13.5177 37.9238 13.5391C37.8328 13.5873 37.7472 13.6354 37.6616 13.689C37.6563 13.5284 37.6413 13.3797 37.6252 13.2256C37.6252 13.2202 37.6252 13.2149 37.6252 13.2149C37.6199 13.1774 37.6145 13.1346 37.6092 13.0971C37.5878 12.9805 37.5664 12.8574 37.5396 12.7461C37.5343 12.7301 37.5343 12.714 37.5289 12.6979C37.5236 12.6819 37.5182 12.6605 37.5182 12.6444C37.4808 12.5117 37.4433 12.3833 37.3951 12.2559C37.3951 12.2506 37.3898 12.2452 37.3898 12.2399C37.3791 12.2185 37.3748 12.1917 37.3641 12.1703C37.3587 12.1596 37.3534 12.1489 37.3481 12.1382C37.3052 12.0269 37.2571 11.9199 37.2036 11.814C37.1875 11.7819 37.1768 11.7551 37.1608 11.723C37.1554 11.7123 37.1501 11.7069 37.1447 11.6962C37.0869 11.5849 37.0281 11.4779 36.9638 11.372C36.9478 11.3506 36.9371 11.3292 36.921 11.3078C36.9157 11.297 36.905 11.2863 36.8996 11.2756C36.8311 11.1697 36.7562 11.0627 36.6813 10.9567L36.676 10.9514C36.6546 10.9193 36.6278 10.8925 36.6064 10.8604C36.5326 10.7641 36.4523 10.6742 36.372 10.5832C36.3667 10.5779 36.3613 10.5725 36.356 10.5672C36.3346 10.5458 36.3185 10.5244 36.2982 10.504C36.2072 10.4024 36.1055 10.306 36.0049 10.2108C35.9782 10.1894 35.9568 10.1626 35.93 10.1412C35.93 10.1412 35.9247 10.1412 35.9247 10.1359L35.9193 10.1305C35.823 10.046 35.7278 9.96037 35.6261 9.87475C35.5993 9.85335 35.5726 9.83301 35.5458 9.81161C35.5405 9.80626 35.5351 9.80091 35.5298 9.79556C35.4238 9.70994 35.3115 9.62432 35.1948 9.54513C35.168 9.52373 35.1413 9.50767 35.1092 9.48627C34.9968 9.406 34.8802 9.33216 34.7624 9.2626C34.7571 9.25725 34.7517 9.25725 34.7464 9.25189C34.7196 9.23584 34.6886 9.21979 34.6618 9.19838C34.5441 9.12989 34.4317 9.06568 34.3097 9.00147C34.3044 8.99612 34.299 8.99612 34.2937 8.99076C34.2883 8.98541 34.2776 8.98541 34.2723 8.98006C34.2509 8.96936 34.2295 8.95866 34.2027 8.94261C34.0754 8.87411 33.9469 8.8099 33.8142 8.75104C33.7821 8.73499 33.7554 8.72428 33.7233 8.70823C33.5959 8.65044 33.4675 8.59693 33.3348 8.54342C33.308 8.53272 33.2813 8.52202 33.2545 8.51131C33.2492 8.50596 33.2385 8.50596 33.2331 8.50061C33.0886 8.44817 32.9452 8.39466 32.8018 8.3465C32.7911 8.34115 32.7858 8.34115 32.7751 8.3358C32.7644 8.33045 32.7537 8.33045 32.7483 8.3251C32.6038 8.27694 32.4658 8.23413 32.3213 8.19775C32.2999 8.19239 32.2785 8.18704 32.2582 8.18169C32.2154 8.17099 32.1672 8.15494 32.1244 8.14424C32.0923 8.13353 32.0548 8.12818 32.0227 8.11748C31.9863 8.10678 31.9435 8.09608 31.9061 8.09072C31.8686 8.08002 31.8312 8.07467 31.7884 8.06397C31.7616 8.05862 31.7306 8.05327 31.7038 8.04257C31.6503 8.03186 31.6021 8.02116 31.5486 8.01046C31.4898 7.99976 31.4373 7.99013 31.3785 7.97942C31.3303 7.96872 31.2768 7.96337 31.2286 7.95267C31.2029 7.94732 31.1762 7.94197 31.1494 7.94197C31.1066 7.93662 31.0692 7.93126 31.0264 7.92056C30.9675 7.90986 30.9044 7.90451 30.8455 7.89381C30.7866 7.88846 30.7331 7.87776 30.6743 7.8724C30.6165 7.86705 30.5576 7.85635 30.4934 7.851C30.4345 7.84565 30.3768 7.8403 30.3232 7.83495C30.2644 7.8296 30.2055 7.82424 30.1467 7.82424C30.0889 7.81889 30.0247 7.81889 29.9658 7.81889C29.9123 7.81889 29.8598 7.81354 29.8063 7.81354C29.4542 7.80819 29.1128 7.82424 28.7832 7.8617C28.7565 5.48585 29.2841 4.71424 31.7413 4.19198C32.7109 3.98436 33.6751 3.92015 34.6565 3.80885C35.4827 3.71253 36.3667 3.56912 37.0869 3.12713C37.3159 2.988 37.5236 2.81784 37.7098 2.62092L37.7258 2.60487C38.1849 2.10937 38.4514 1.52932 38.5681 0.869004C38.5895 0.756633 38.6376 0.234374 38.6751 0C39.0475 0.0642121 39.6394 0.293235 39.9058 0.42594C40.7053 0.810143 41.403 1.39019 41.8033 2.20033C42.0805 2.76433 42.2399 3.32405 42.3684 3.9362C42.4754 4.43706 42.5653 4.96467 42.7836 5.42806C43.3701 6.68448 44.8523 7.11577 46.0991 7.3876C48.4278 7.89381 49.0197 8.40001 49.5633 10.7224L49.5687 10.7491C49.7335 11.4362 50.0053 12.043 50.565 12.501C50.9492 12.8103 51.418 13.0126 51.8664 13.2149C52.4518 13.476 53.0008 13.7318 53.5498 14.0721C55.0535 15.0042 56.007 16.724 55.6442 18.4877C54.1631 17.7043 51.9831 17.6198 50.443 18.1463ZM31.0424 9.24119C32.7751 9.53978 34.496 10.3917 35.5565 11.6331C37.545 13.9661 35.5672 18.5573 32.2368 17.4967C31.234 17.1821 30.472 16.4854 30.5897 15.366C30.6539 14.7377 31.1066 13.8324 31.7884 13.705C32.0388 13.6568 32.3855 13.705 32.6359 13.8377C32.6359 13.8377 32.6359 13.8377 32.6359 13.8324C32.6413 13.8377 32.6467 13.8377 32.652 13.8431C32.7109 13.8752 32.759 13.9073 32.8072 13.9447C33.1047 14.2101 32.8382 15.3874 33.7768 15.2386C33.963 15.2065 34.0968 15.1262 34.1867 15.0096C34.192 14.9989 34.1974 14.9882 34.2081 14.9775C34.2295 14.9507 34.2455 14.9186 34.2562 14.8919C34.2616 14.8769 34.2669 14.8608 34.2776 14.8448C34.2883 14.818 34.299 14.7859 34.3044 14.7592C34.3097 14.7431 34.3151 14.7217 34.3151 14.7056C34.3204 14.6735 34.3258 14.6425 34.3258 14.605C34.3258 14.589 34.3312 14.5676 34.3312 14.5515C34.3312 14.5034 34.3312 14.4606 34.3312 14.4135C34.3312 14.4081 34.3312 14.4028 34.3312 14.3921C34.3258 14.3386 34.3204 14.2797 34.3097 14.2262C34.3044 14.2101 34.3044 14.1898 34.299 14.1738C34.2937 14.1363 34.283 14.0935 34.2723 14.0507C34.2669 14.0293 34.2616 14.0079 34.2562 13.9918C34.2455 13.9554 34.2348 13.9126 34.2188 13.8752C34.2134 13.8538 34.2081 13.8377 34.1974 13.8163C34.1813 13.7735 34.1653 13.7318 34.1503 13.689C34.1449 13.6782 34.1396 13.6622 34.1342 13.6515C34.1128 13.598 34.0861 13.5445 34.0593 13.492C34.054 13.4813 34.0486 13.4706 34.0433 13.4599C34.0219 13.4171 34.0005 13.3797 33.9791 13.3422C33.9684 13.3262 33.9576 13.3101 33.9523 13.294C33.9309 13.263 33.9148 13.2309 33.8934 13.2041C33.8838 13.1881 33.8731 13.172 33.8624 13.1613C33.841 13.1346 33.8196 13.1078 33.7982 13.0811C33.7875 13.0704 33.7768 13.0597 33.7714 13.049C33.7393 13.0179 33.7126 12.9858 33.6805 12.9591C33.5852 12.8735 33.4782 12.7943 33.3712 12.7301C32.881 12.4261 32.3641 12.3202 31.8633 12.3726C31.7669 12.3833 31.6664 12.3994 31.57 12.4208C31.5433 12.4261 31.5219 12.4315 31.4951 12.4422C31.4266 12.4582 31.3571 12.4796 31.2875 12.5064C31.2554 12.5171 31.2286 12.5278 31.2029 12.5385C31.1387 12.5652 31.0745 12.5909 31.0103 12.623C30.9836 12.6337 30.9568 12.6498 30.9354 12.6605C30.8509 12.7033 30.7706 12.7515 30.6903 12.805C30.6903 12.805 30.685 12.805 30.685 12.8103C30.6058 12.8628 30.5255 12.927 30.4453 12.9912C30.4238 13.0126 30.4024 13.0286 30.3768 13.049C30.3232 13.0971 30.2697 13.1453 30.2216 13.1988C30.1948 13.2256 30.1734 13.247 30.152 13.2737C30.1049 13.3262 30.0568 13.3797 30.014 13.4385C29.9926 13.4653 29.9765 13.4867 29.9551 13.5124C29.8962 13.598 29.8384 13.6836 29.7849 13.7681C28.1004 13.4278 26.326 15.1904 25.8252 16.6823C25.5897 17.3854 25.5212 18.0404 25.5212 18.7756C25.5212 19.0731 25.5641 19.6703 25.4089 19.9261C25.3875 19.9625 25.3607 19.9999 25.3233 20.0267C25.3019 20.0427 25.2815 20.0588 25.2548 20.0748C25.2441 20.0802 25.2334 20.0855 25.2227 20.0909C25.2066 20.1016 25.1852 20.107 25.1638 20.1177C25.1478 20.123 25.137 20.1284 25.121 20.1337C25.0996 20.1391 25.0835 20.1498 25.0621 20.1551C25.0461 20.1605 25.0257 20.1658 25.0097 20.1658C24.9883 20.1701 24.9669 20.1754 24.9455 20.1808C24.9241 20.1861 24.908 20.1861 24.8866 20.1915C24.8652 20.1968 24.8385 20.1968 24.8171 20.2022C24.7957 20.2076 24.7742 20.2076 24.7539 20.2076C24.7272 20.2129 24.7058 20.2129 24.679 20.2183C24.6576 20.2183 24.6362 20.2236 24.6094 20.2236C24.5827 20.2236 24.5559 20.229 24.5292 20.229C24.5078 20.229 24.4874 20.229 24.466 20.2343C24.4393 20.2343 24.4072 20.2397 24.3804 20.2397C24.359 20.2397 24.3376 20.2397 24.3162 20.2397C24.2841 20.2397 24.2573 20.2397 24.2263 20.245C24.2049 20.245 24.1889 20.245 24.1674 20.245C24.1353 20.245 24.1032 20.245 24.0711 20.245C24.0551 20.245 24.039 20.245 24.023 20.245C23.9855 20.245 23.9545 20.245 23.917 20.245C23.9063 20.245 23.8956 20.245 23.8849 20.245C23.7672 20.245 23.6612 20.245 23.5649 20.245H23.5596C23.5328 20.245 23.5061 20.245 23.4793 20.245C23.4632 20.245 23.4525 20.245 23.4365 20.245C23.4215 20.245 23.4055 20.245 23.3894 20.245C23.368 20.245 23.3412 20.245 23.3252 20.245C23.1283 20.2504 22.9356 20.2611 22.7441 20.2771C22.7066 20.2825 22.6745 20.2825 22.6371 20.2878C22.6007 20.2932 22.5686 20.2932 22.5311 20.2985C22.408 20.3092 22.2914 20.3253 22.1683 20.3413C22.1041 20.352 22.0463 20.3574 21.9821 20.3681C21.843 20.3895 21.7103 20.4152 21.5711 20.4419C21.524 20.4526 21.4759 20.4633 21.4224 20.474C21.2415 20.5168 21.0649 20.5596 20.8841 20.6132C20.4314 20.7459 19.983 20.916 19.5303 21.1236C19.5463 19.665 20.3297 16.9959 20.8252 15.7769C21.7745 13.4546 23.7083 11.3238 26.0061 10.1198C27.5247 9.31611 29.3322 8.94261 31.0424 9.24119ZM51.0402 64.469C48.1239 63.1794 45.8166 62.6475 43.4931 60.2556C43.3808 60.1378 43.2427 60.0158 43.1892 59.8617C43.1464 59.728 42.9548 59.622 42.8425 59.5524C42.5439 59.3448 41.1687 57.2355 40.8808 56.7774C39.7196 54.9613 38.8239 53.6514 36.9853 52.442C36.0467 51.8245 35.0289 51.3397 33.9309 51.0786C33.6173 51.0037 33.3027 50.9502 32.9827 50.9084C32.9345 50.9031 32.8125 50.887 32.7109 50.871C32.7697 50.8175 32.8329 50.764 32.865 50.7372C34.2348 49.5867 36.2661 48.3036 37.9549 47.7128C39.5537 47.1531 41.1954 47.0675 42.8746 47.0311C44.436 46.9936 46.0777 47.0097 47.591 46.5677C47.9912 46.45 48.3754 46.3066 48.7478 46.1193C50.1659 45.4226 51.4555 44.1597 52.7504 43.2329C54.5729 41.9284 56.3805 41.1824 58.6237 40.9374C60.5211 40.7297 62.2591 40.9802 64.1406 41.0915C66.1493 41.2145 67.8445 41.0604 69.7259 40.2663C71.4372 39.5472 73.02 38.5455 74.7088 37.7738C76.5485 36.9369 78.3282 36.4735 80.3584 36.6555C83.7809 36.953 85.7469 39.3502 86.1097 42.6582C86.4136 45.4172 85.8057 46.9187 83.7595 48.783C82.8691 49.5921 81.5634 50.5456 80.3263 50.6526C78.9521 50.7693 77.2409 50.3915 76.2927 49.3267C75.2953 48.2072 75.2364 47.0364 75.3381 45.6088C75.3862 44.9431 75.9727 44.2507 76.4629 43.8344C76.9637 43.4085 78.0938 42.6946 78.7702 43.0788C79.346 43.4031 80.0181 44.2186 79.5857 44.8896C79.4851 45.0491 79.3406 45.2032 79.2293 45.3691C79.2133 45.3905 79.1972 45.4172 79.1865 45.4429C79.1705 45.4697 79.1544 45.4964 79.1384 45.5232C79.1277 45.5446 79.117 45.566 79.1063 45.5874C79.0956 45.6141 79.0795 45.6409 79.0688 45.6666C79.0581 45.688 79.0527 45.7147 79.042 45.7361C79.0313 45.7629 79.0206 45.7897 79.0153 45.8111C79.0099 45.8378 79.0046 45.8592 78.9992 45.886C78.9939 45.9117 78.9885 45.9331 78.9885 45.9598C78.9885 45.9866 78.9885 46.008 78.9939 46.0347C78.9939 46.0508 78.9939 46.0615 78.9939 46.0775C78.9939 46.0936 78.9992 46.1096 79.0046 46.1246C79.0099 46.1407 79.0153 46.1621 79.026 46.1781C79.0313 46.1888 79.0313 46.1995 79.0367 46.2049C79.042 46.2209 79.0474 46.2316 79.0581 46.2477C79.0742 46.2691 79.0902 46.2905 79.1063 46.3119C79.1116 46.3173 79.1116 46.3226 79.117 46.328C79.1277 46.3387 79.1384 46.3494 79.1491 46.3643C79.1865 46.3965 79.2347 46.4286 79.2925 46.4607C79.9806 46.7914 80.7586 45.7522 80.9342 45.1936C81.3826 43.7873 80.3167 42.0878 78.9147 41.7475C77.7203 41.4543 76.2927 42.1681 75.4397 42.9772C74.8212 43.569 74.5279 44.0741 74.2026 44.8522C74.1234 45.0491 73.8409 44.9538 73.6429 44.9538C73.1581 44.9592 72.6733 45.0063 72.1938 45.0972C68.8997 45.6933 66.0166 47.7813 62.7172 48.1816C61.7636 48.2982 60.7769 48.3036 59.818 48.3036C58.5498 48.3089 57.1693 48.2715 55.9161 48.4791H55.9L53.5017 49.0602L53.476 49.0709C51.7754 49.774 50.4966 51.2862 49.4831 52.7674C49.0518 53.4009 48.1881 54.6841 48.6783 55.4728C48.9876 55.9737 49.771 56.1653 50.3093 56.2926C51.1301 56.4895 51.9349 56.6501 52.7236 56.9743C54.5622 57.7363 56.4126 59.1212 57.7343 60.6066C58.4 61.3579 58.9597 62.152 59.5622 62.945C60.4366 64.0955 61.2885 64.9687 62.4828 65.8003C64.6735 67.3285 67.4293 68.2072 70.1048 67.686C71.4265 67.4302 72.7375 66.8437 73.9361 66.2423C75.2953 65.5552 76.617 64.7879 77.9547 64.0633C80.6088 62.6421 83.7434 61.1663 86.8288 61.741C87.3511 61.8373 87.8787 61.9604 88.3004 61.5494C89.3502 60.5167 87.8519 58.3485 87.0268 57.5876C85.1187 55.8185 83.2212 55.5049 80.7051 55.4996C78.142 55.4942 77.7899 55.1475 75.6688 53.8697C73.6065 52.6229 71.5431 51.9198 69.1983 52.8894C66.2831 54.0933 65.0459 57.411 67.7268 59.606C68.6654 60.3722 69.88 60.735 71.0744 60.4578C72.0065 60.2395 72.913 59.606 73.2062 58.6578C73.3026 58.3431 73.324 58.0081 73.2651 57.6828C73.1581 57.1349 72.8488 56.6287 72.3907 56.3033C72.364 56.2873 72.3372 56.2712 72.3105 56.2498C72.2891 56.2391 72.273 56.223 72.2527 56.2134C72.2313 56.2027 72.2045 56.1867 72.1831 56.176C72.1617 56.1653 72.1403 56.1546 72.1189 56.1439C72.0922 56.1332 72.0707 56.1225 72.044 56.1117C72.0226 56.101 71.9969 56.0903 71.9755 56.085C71.9487 56.0743 71.922 56.0689 71.8952 56.0636C71.8738 56.0582 71.8471 56.0475 71.8257 56.0422C71.7989 56.0368 71.7722 56.0315 71.7401 56.0315C71.7197 56.0261 71.693 56.0261 71.6716 56.0208C71.6448 56.0208 71.6127 56.0208 71.5859 56.0261C71.5645 56.0261 71.5431 56.0261 71.5217 56.0315C71.4896 56.0368 71.4586 56.0475 71.4318 56.0582C71.4158 56.0636 71.3997 56.0636 71.3837 56.0743C71.3355 56.0957 71.2927 56.1171 71.2553 56.1492C71.2124 56.1813 71.1814 56.2241 71.1493 56.2659C71.144 56.2766 71.1333 56.2873 71.1279 56.3033C71.1065 56.3461 71.0851 56.3889 71.0744 56.4317C71.0637 56.4735 71.053 56.5216 71.0476 56.5698C71.0423 56.6287 71.0476 56.6822 71.0583 56.7293C71.0637 56.7453 71.069 56.7614 71.069 56.7774C71.0797 56.8095 71.0851 56.8416 71.1011 56.8737C71.1065 56.8898 71.1172 56.9058 71.1226 56.9208C71.1386 56.9476 71.1547 56.9743 71.1707 56.9957C71.1814 57.0118 71.1921 57.0225 71.2017 57.0385C71.2231 57.0599 71.2446 57.0867 71.266 57.1081C71.6181 57.4538 72.2366 57.6293 71.8738 58.4287C71.8364 58.5144 71.7882 58.5935 71.7304 58.6631C71.3034 59.2014 70.4933 59.3074 69.8586 59.1961C68.9854 59.0462 68.2448 58.5036 67.8285 57.7256C67.6208 57.3425 67.5299 56.9165 67.5834 56.4842C67.7065 55.521 68.4738 54.7483 69.2946 54.3063C70.3445 53.7412 71.5913 53.6192 72.7375 53.9382C73.8933 54.2582 74.7516 54.8339 75.749 55.4568C77.0386 56.2605 78.1099 56.74 79.6606 56.8095C82.2505 56.9208 84.0527 56.6233 86.1257 58.5561C86.6426 59.0355 87.1756 59.7387 87.2987 60.4471L87.3136 60.5328C87.2237 60.506 87.1167 60.4739 87.0579 60.4632C86.6908 60.3776 86.3173 60.3358 85.9448 60.3091C83.2372 60.1229 80.4119 61.3418 78.051 62.5458C76.5645 63.3024 75.1251 64.1383 73.6429 64.9002C72.4871 65.4963 71.1279 66.1567 69.849 66.4071C66.8161 66.9989 63.5701 65.4428 61.5239 63.2596C60.9214 62.6154 60.4152 61.9443 59.8983 61.2359C59.0025 60.0158 58.1924 59.0837 57.0141 58.1087C55.5008 56.8523 53.811 55.8185 51.8921 55.308C51.3966 55.1743 50.9118 55.094 50.4056 55.0041C50.3146 54.988 49.9208 54.9185 49.8726 54.8286C49.7763 54.652 50.4805 53.6567 50.5757 53.5176C51.434 52.2665 52.5481 50.8924 53.9875 50.2952C54.6479 50.0244 56.2253 49.7473 56.9563 49.6884C58.9276 49.5343 60.916 49.7312 62.882 49.4915C66.6769 49.0334 69.7794 46.5463 73.569 46.237C73.6696 46.2263 73.8516 46.2209 73.9254 46.3119C74.0324 46.4393 74.0217 46.9401 74.0324 47.1103C74.0431 47.2708 74.0645 47.4303 74.0859 47.5844C74.0913 47.6272 74.102 47.67 74.1073 47.7128C74.1287 47.8348 74.1544 47.9579 74.1865 48.0799C74.2026 48.1334 74.2133 48.1869 74.2293 48.2393C74.2561 48.341 74.2882 48.4416 74.3257 48.5379C74.3417 48.5807 74.3578 48.6235 74.3738 48.6653C74.3792 48.676 74.3845 48.6867 74.3899 48.6974C74.4316 48.8098 74.4798 48.9157 74.5333 49.0227C74.5493 49.0548 74.5654 49.0869 74.5814 49.118C74.6457 49.2411 74.7141 49.3631 74.7891 49.4808C74.8105 49.5182 74.8372 49.5557 74.864 49.5921C74.9175 49.6723 74.9699 49.7473 75.0234 49.8211C75.0984 49.9228 75.1786 50.0191 75.2632 50.1143C75.2899 50.1464 75.322 50.1839 75.3488 50.216C75.3648 50.2321 75.3755 50.2481 75.3916 50.2631C75.5029 50.3808 75.6206 50.4921 75.7437 50.5991C76.1589 50.9555 76.6437 51.2541 77.1927 51.4885C78.6589 52.1113 80.6088 52.2344 82.075 51.5366C82.3094 51.4243 82.5384 51.3076 82.7567 51.1845C82.7781 51.1749 82.8049 51.1589 82.8263 51.1482C82.8851 51.116 82.9386 51.0786 82.9975 51.0465C83.157 50.9512 83.3111 50.8603 83.4609 50.7586C83.6043 50.6633 83.7488 50.5617 83.8868 50.4611C83.9243 50.4343 83.9618 50.4022 83.9992 50.3755C84.1266 50.2738 84.255 50.1678 84.3824 50.0608C84.4145 50.0341 84.4466 50.0084 84.4787 49.9763C84.5482 49.9174 84.6124 49.8586 84.6756 49.7954C84.7398 49.7366 84.7987 49.6723 84.8575 49.6135C84.9207 49.5503 84.9849 49.4861 85.0437 49.4219C85.1026 49.3577 85.1604 49.2946 85.2192 49.225C85.2995 49.134 85.3798 49.0495 85.4536 48.9532C85.7576 48.5807 86.3868 47.5897 86.8181 47.4249C87.0472 47.3393 87.2933 47.3875 87.517 47.4731C87.959 47.6325 88.3849 47.8081 88.8012 48.005C90.0105 48.5754 91.1086 49.2946 92.1317 50.2107C93.2672 51.2273 94.2057 52.3885 95.2021 53.5283C96.3911 54.8864 97.563 56.0475 99.1458 56.9529C100.526 57.7417 102.323 58.0766 103.863 58.4448C107.104 59.2218 109.699 60.2235 110.178 63.9467C110.227 64.3298 110.302 65.7361 110.067 66.1781C109.933 66.0935 109.726 65.933 109.646 65.8752C109.331 65.6515 109.012 65.4268 108.676 65.2352C108.463 65.1132 108.238 64.9955 108.004 64.9109C106.725 64.4208 104.993 64.3726 103.661 64.6766C101.976 65.0597 100.313 66.3118 98.8429 67.2065C97.5094 68.0156 96.0711 68.7508 94.4829 68.7883C93.5015 68.8097 92.4998 68.6492 91.5409 68.4736C90.6238 68.3035 89.7173 68.1119 88.8012 67.9621C88.6418 67.9364 88.4812 67.915 88.3218 67.8882C85.8485 67.5415 83.6043 67.6913 81.4083 68.9959C79.7933 69.9602 78.4031 71.2647 76.8674 72.3456C75.0823 73.6085 73.3186 74.4229 71.1226 74.6894C67.4239 75.1421 62.227 73.2671 59.2262 71.1374C58.4642 70.5937 57.7611 69.9976 57.0943 69.3362C56.5293 68.7776 56.0017 68.1858 55.4473 67.6164C54.0828 66.1888 52.836 65.262 51.0402 64.469ZM93.9286 79.882C93.9232 79.8296 93.9125 79.776 93.9071 79.7225C93.8964 79.653 93.8857 79.5845 93.8697 79.5149C93.7734 79.0676 93.5925 78.6416 93.326 78.2639C93.2404 78.1408 93.1452 78.0241 93.0435 77.9118C93.0114 77.8743 92.9739 77.8422 92.9375 77.8047C92.868 77.7362 92.7984 77.6613 92.7289 77.5971C92.686 77.5607 92.639 77.5233 92.5908 77.4858C92.5212 77.4323 92.4517 77.3734 92.3832 77.321C92.3297 77.2835 92.2762 77.2514 92.2227 77.2193C91.6415 76.8469 90.9705 76.6072 90.2824 76.4841C89.7922 76.3996 89.2807 76.3835 88.7798 76.4306V76.4317C88.5347 76.452 88.295 76.4895 88.0606 76.543L88.0339 76.5483C86.1418 76.9689 84.7666 78.2371 84.1266 79.7921C84.3716 76.1973 83.5776 73.3688 81.4029 70.5242C81.5474 70.4236 81.6908 70.3326 81.8353 70.247C81.8727 70.2213 81.9155 70.1999 81.9519 70.1785C82.0643 70.1089 82.182 70.0447 82.2933 69.9869C82.3254 69.9709 82.3575 69.9548 82.3843 69.9388C82.5223 69.8638 82.6615 69.7996 82.7995 69.7365C82.8316 69.7204 82.8637 69.7097 82.8958 69.6937C83.0071 69.6455 83.1142 69.5974 83.2265 69.5546C83.264 69.5385 83.3004 69.5235 83.3432 69.5128C83.477 69.4647 83.615 69.4165 83.7488 69.3737H83.7541C83.7595 69.3737 83.7648 69.3683 83.7702 69.3683C83.9029 69.3255 84.0313 69.2945 84.1587 69.2624C84.1961 69.2517 84.2389 69.241 84.2764 69.2356C84.2978 69.2303 84.3246 69.2249 84.346 69.2196C84.3609 69.2142 84.3716 69.2142 84.3877 69.2089C84.4573 69.1928 84.5322 69.1821 84.6017 69.1661C84.6328 69.1607 84.6595 69.1554 84.6916 69.15C84.7826 69.134 84.8736 69.1179 84.9581 69.1072C84.9795 69.1019 84.9956 69.1019 85.017 69.0965C85.0223 69.0965 85.0223 69.0965 85.0277 69.0965C85.0491 69.0912 85.0705 69.0912 85.0865 69.0912C85.1187 69.0858 85.155 69.0858 85.1871 69.0805C85.2728 69.0708 85.3584 69.0655 85.4429 69.0548C85.4697 69.0548 85.4964 69.0494 85.5232 69.0494C85.5499 69.0494 85.5767 69.0441 85.5981 69.0441C85.6142 69.0441 85.6356 69.0441 85.6516 69.0387C85.7308 69.0334 85.8164 69.028 85.8967 69.028C85.9181 69.028 85.9448 69.028 85.9652 69.028C85.9812 69.028 85.9973 69.028 86.0133 69.028C86.024 69.028 86.0401 69.028 86.0508 69.028C86.099 69.028 86.1418 69.028 86.1899 69.028C86.222 69.028 86.2477 69.028 86.2798 69.028C86.3173 69.028 86.3494 69.028 86.3868 69.028C86.4029 69.028 86.4189 69.028 86.435 69.028C86.4725 69.028 86.5035 69.028 86.5409 69.0334C86.5784 69.0334 86.6159 69.0334 86.6533 69.0387H86.6587C86.6854 69.0387 86.7175 69.0387 86.7443 69.0441C86.7603 69.0441 86.7753 69.0441 86.7914 69.0441C86.8235 69.0441 86.8609 69.0494 86.893 69.0494C87.0054 69.0548 87.1114 69.0655 87.2237 69.0762C87.2665 69.0805 87.3083 69.0805 87.3564 69.0858C87.3885 69.0912 87.4153 69.0912 87.4474 69.0965C87.5009 69.1019 87.5598 69.1072 87.6122 69.1179C87.6443 69.1233 87.6818 69.1233 87.7139 69.1286C87.7513 69.134 87.7888 69.134 87.8263 69.1393C87.8948 69.15 87.9643 69.1607 88.0339 69.1661C88.0927 69.1768 88.1559 69.1821 88.2201 69.1928C88.2469 69.1982 88.2736 69.1982 88.3004 69.2035C88.4438 69.2249 88.5882 69.2463 88.7317 69.2731C88.7477 69.2784 88.7638 69.2784 88.7798 69.2784C89.0356 69.3202 89.3021 69.3683 89.5632 69.4165C89.6595 69.4325 89.7601 69.454 89.8564 69.47C89.9635 69.4914 90.0641 69.5075 90.1711 69.5289C90.8207 69.6509 91.4928 69.7782 92.1959 69.8906C92.4142 69.9227 92.6336 69.9548 92.8519 69.9869C93.4908 70.0661 94.1362 70.1143 94.7815 70.0715C96.4125 72.5062 96.7314 74.7322 99.7055 76.0368C101.444 76.7987 103.362 76.9796 104.945 78.114C105.995 78.8653 106.523 79.989 106.614 81.2561C106.645 81.7195 106.624 82.2043 106.528 82.6624C106.507 82.7801 106.416 83.1472 106.326 83.2863C106.138 83.2274 105.664 82.9182 105.552 82.8497C104.977 82.5083 104.407 82.2418 103.756 82.0716C101.417 81.4648 99.0559 82.4013 97.0942 83.6427C95.0587 84.9259 93.7573 86.1887 91.2156 86.3589C90.4108 86.4124 89.5686 86.3428 88.7745 86.1298C87.7085 85.8419 86.7229 85.2994 86.0026 84.4368L85.9866 84.4207C83.9832 81.9914 85.2888 78.5239 88.3111 77.8475L88.3378 77.8422C88.4812 77.8101 88.6257 77.7844 88.7745 77.7683C89.6221 77.6667 90.5018 77.7994 91.2584 78.205C91.9134 78.556 92.5426 79.1746 92.6283 79.9462C92.6753 80.3454 92.564 80.7243 92.3404 81.0592C92.2119 81.2561 92.0739 81.4006 91.9241 81.5066C91.9294 81.5066 91.9348 81.5012 91.9348 81.5012C91.9241 81.5066 91.9134 81.5119 91.908 81.5226C91.892 81.5333 91.8759 81.544 91.8609 81.5547C91.8288 81.5761 91.7914 81.5975 91.7593 81.6136C91.7432 81.6243 91.7271 81.6296 91.7111 81.6403C91.6683 81.6617 91.6255 81.6778 91.5837 81.6885C91.5677 81.6938 91.5463 81.6992 91.5302 81.7035C91.4928 81.7142 91.4553 81.7195 91.4179 81.7302C91.3911 81.7356 91.3697 81.7356 91.3429 81.7409C91.3173 81.7409 91.2959 81.7463 91.2691 81.7463C91.2423 81.7463 91.2102 81.7463 91.1835 81.7463C91.1621 81.7463 91.146 81.7409 91.1246 81.7409C91.0508 81.7356 90.9812 81.7249 90.9063 81.7035C90.9063 81.7035 90.9063 81.7035 90.901 81.7035C90.8474 81.6885 90.7886 81.6724 90.7361 81.651H90.7308C90.688 81.635 90.6398 81.6136 90.597 81.5975C90.5863 81.5922 90.5756 81.5868 90.5649 81.5815C90.5275 81.5654 90.4857 81.544 90.4483 81.5226C90.4322 81.5119 90.4161 81.5066 90.4054 81.4959C90.368 81.4745 90.3359 81.4541 90.2984 81.4327C90.277 81.422 90.261 81.406 90.2406 81.3953C90.2139 81.3792 90.1871 81.3632 90.1657 81.3418C90.1604 81.3364 90.1497 81.3311 90.1443 81.3257C90.1229 81.3096 90.1015 81.2936 90.0801 81.2775C90.0534 81.2561 90.0266 81.2358 89.9998 81.2144C89.9849 81.2037 89.9688 81.1876 89.9528 81.1769C89.9367 81.1609 89.9206 81.1502 89.8992 81.1341C89.8832 81.1181 89.8671 81.1074 89.8457 81.0913C89.7976 81.0485 89.7494 81.0014 89.7023 80.9533C89.393 80.6493 88.9874 80.7724 88.7638 81.0378V81.0325C88.5722 81.2615 88.5133 81.6029 88.7638 81.8747V81.8694C88.7905 81.9015 88.8226 81.9282 88.8547 81.9539L88.8708 81.9646C89.9421 82.8593 90.9759 83.4832 92.3564 82.748C92.7021 82.5618 93.006 82.3221 93.2511 82.0342C93.2832 81.9967 93.31 81.9539 93.3421 81.9175C93.3688 81.8801 93.4009 81.848 93.4277 81.8105C93.4598 81.7677 93.4855 81.7195 93.5122 81.6724C93.5336 81.635 93.5604 81.6029 93.5765 81.5654C93.6032 81.5173 93.6246 81.4648 93.6514 81.4113C93.6674 81.3739 93.6888 81.3418 93.7049 81.3043C93.7423 81.2144 93.7734 81.1234 93.8055 81.0271C93.8429 80.9051 93.8697 80.7778 93.8911 80.6547C93.8964 80.6119 93.9018 80.5691 93.9018 80.5327C93.9125 80.4471 93.9232 80.3668 93.9232 80.2823C93.9232 80.2287 93.9232 80.1806 93.9232 80.1324C93.9393 80.0318 93.9339 79.9569 93.9286 79.882ZM73.9843 80.1806C74.88 80.0746 76.3237 80.2555 76.9851 80.9372C77.6037 81.5708 77.7846 83.2542 76.6758 83.419C76.0412 83.5153 75.871 83.3441 75.6634 82.7855C75.642 82.7319 75.6206 82.6891 75.5939 82.6463C75.5885 82.6356 75.5778 82.6303 75.5724 82.6206C75.551 82.5885 75.5243 82.5618 75.5029 82.5404C75.4879 82.5297 75.4772 82.519 75.4611 82.5083C75.4397 82.4922 75.413 82.4708 75.3916 82.4601C75.3755 82.4494 75.3541 82.4441 75.3381 82.4334C75.3113 82.4227 75.2899 82.412 75.2632 82.4013C75.2418 82.397 75.2257 82.3916 75.2054 82.3863C75.1786 82.3809 75.1572 82.3756 75.1305 82.3702C75.1091 82.3702 75.0876 82.3649 75.0716 82.3649C75.0448 82.3649 75.0181 82.3649 74.9967 82.3649C74.9753 82.3649 74.9592 82.3702 74.9389 82.3756C74.9121 82.3809 74.8907 82.3863 74.864 82.3916C74.8426 82.3959 74.8265 82.4013 74.8051 82.412C74.7784 82.4227 74.757 82.4334 74.7355 82.4441C74.7195 82.4548 74.7034 82.4655 74.6885 82.4762C74.6671 82.4922 74.6457 82.5083 74.6243 82.5243C74.6082 82.535 74.5975 82.5511 74.5814 82.5671C74.5654 82.5885 74.5493 82.6099 74.5333 82.6303C74.5226 82.6463 74.5119 82.6624 74.5012 82.6838C74.4851 82.7105 74.4744 82.7373 74.4691 82.7641C74.4637 82.7855 74.453 82.8069 74.4477 82.8283C74.4423 82.8593 74.437 82.8914 74.4316 82.9235C74.4316 82.9449 74.4263 82.9663 74.4263 82.9877C74.4263 82.9931 74.4263 82.9984 74.4263 83.0038C74.4263 83.0359 74.4316 83.0733 74.4316 83.1097C74.437 83.1365 74.437 83.1632 74.4423 83.19C74.4477 83.2328 74.4637 83.281 74.4798 83.3227C74.4851 83.3494 74.4905 83.3709 74.5012 83.3976C74.5065 83.4083 74.5119 83.4244 74.5172 83.4351C74.5333 83.4832 74.5547 83.5314 74.5814 83.5785C74.5868 83.5945 74.5921 83.6052 74.6028 83.6213C74.6135 83.6427 74.6243 83.6587 74.635 83.6801C74.6778 83.7604 74.7248 83.845 74.7891 83.9359C75.2311 84.5962 76.1268 84.8467 76.8834 84.7289C77.6037 84.6176 78.1581 84.2131 78.4823 83.6213C78.5198 83.5517 78.5572 83.4725 78.5893 83.3976C78.6054 83.3602 78.6215 83.328 78.6375 83.297C78.6803 83.1793 78.7167 83.0626 78.7435 82.9396C79.0581 81.5387 78.4609 80.1752 77.2302 79.4668C77.8916 77.6774 77.0707 75.7756 75.626 74.6198C75.8389 74.5139 76.0412 74.4015 76.2445 74.2848C76.2927 74.2581 76.3398 74.2313 76.3826 74.2046C76.4308 74.1778 76.4789 74.1457 76.5271 74.12C76.6544 74.0451 76.7828 73.9702 76.9049 73.891C76.9209 73.8803 76.937 73.8696 76.953 73.8589C77.0386 73.8054 77.1178 73.7519 77.1981 73.693C77.3105 73.6192 77.4218 73.5443 77.5341 73.4694C77.5555 73.4533 77.5769 73.4383 77.5983 73.4223C77.6722 73.3688 77.7471 73.3152 77.822 73.2617C77.9173 73.1932 78.0136 73.129 78.1045 73.0595C78.1259 73.0434 78.142 73.0327 78.1634 73.0167C78.2961 72.9161 78.4352 72.8144 78.5679 72.7138C78.6 72.687 78.6375 72.6603 78.6696 72.6389C79.2293 72.2129 79.7837 71.7656 80.3691 71.3129C82.3468 73.9017 83.0607 76.452 82.837 79.7225C82.6026 83.1686 81.1899 86.7163 77.5876 87.7705C74.2079 88.7615 69.9657 86.4552 71.1118 82.5564C71.5003 81.1555 72.5609 80.3507 73.9843 80.1806ZM35.6582 72.4366C36.0467 72.1166 36.4844 71.909 36.9424 71.7067C37.3534 71.5259 37.7954 71.3396 38.1261 71.0304C38.8185 70.3861 38.7918 69.379 38.6537 68.5165C38.5734 68.0049 38.4771 67.4987 38.7543 67.0299C38.8613 66.8437 39.0047 66.6896 39.1813 66.5612C39.5066 66.3268 39.9165 66.1995 40.3007 66.0882C41.5582 65.7307 42.5706 65.4589 42.5385 63.8878C42.5171 62.945 42.1661 61.8641 42.3202 60.9319C42.7365 61.3793 43.1464 61.7678 43.567 62.1199C43.7222 62.2472 43.8709 62.3703 44.0315 62.4869C44.0529 62.503 44.0743 62.519 44.1 62.5351C44.2444 62.6421 44.3825 62.7427 44.527 62.8444C44.5591 62.8658 44.5858 62.8861 44.6179 62.9022C44.7667 63.0038 44.9155 63.0948 45.0653 63.1901C45.0867 63.2008 45.1027 63.2168 45.1241 63.2275C45.1455 63.2436 45.1659 63.2543 45.1926 63.2703C45.3425 63.3602 45.4912 63.4458 45.6464 63.5315C45.6946 63.5582 45.7416 63.5839 45.7898 63.6107C45.8701 63.6535 45.945 63.6909 46.0242 63.7337C46.0991 63.7712 46.1687 63.8076 46.2425 63.845C46.2639 63.8557 46.2853 63.8664 46.3067 63.8771C46.3228 63.8825 46.3335 63.8932 46.3495 63.8985C46.4458 63.9467 46.5411 63.9895 46.6374 64.0366C46.723 64.0741 46.8022 64.1169 46.8825 64.1543C46.9146 64.1704 46.952 64.1864 46.9841 64.2025C47.0847 64.2453 47.1864 64.2924 47.2934 64.3352C47.3512 64.3619 47.4047 64.3833 47.4636 64.4101C47.5118 64.4315 47.5653 64.4529 47.6124 64.4743C47.8103 64.5535 48.0073 64.6391 48.2095 64.7194C49.2326 65.1239 50.2515 65.5124 51.2318 66.0133C49.5045 66.7217 48.4118 67.9311 47.9323 69.7579C47.1757 69.2196 46.2478 69.0173 45.3264 69.1928C44.4146 69.3683 43.5563 69.912 43.0875 70.7211C42.8104 71.2005 42.6937 71.7335 42.7419 72.2878C42.7526 72.3884 42.7676 72.4901 42.789 72.5854C42.789 72.5961 42.7943 72.6014 42.7943 72.6121C42.7997 72.6335 42.805 72.6549 42.8104 72.6817C42.8264 72.7512 42.8478 72.8197 42.8746 72.8893C42.8853 72.9214 42.896 72.9482 42.9067 72.9803C42.9334 73.0488 42.9655 73.1183 43.003 73.1825C43.0083 73.1932 43.0137 73.1986 43.0191 73.2093C43.0287 73.2243 43.034 73.2403 43.0447 73.2564C43.0875 73.3366 43.1357 73.4116 43.1892 73.4854C43.1999 73.4961 43.2106 73.5122 43.2213 73.5229C43.2695 73.5871 43.3166 73.6459 43.3701 73.7037C43.3754 73.7091 43.3754 73.7091 43.3808 73.7144C43.3968 73.7305 43.4129 73.7519 43.4343 73.7679C43.4824 73.8161 43.536 73.8643 43.583 73.906C43.6044 73.922 43.6259 73.9435 43.6473 73.9595C43.7115 74.0077 43.7757 74.0558 43.8388 74.0933C43.8602 74.1093 43.8816 74.12 43.903 74.135C43.978 74.1778 44.0582 74.2206 44.1321 74.2581C44.1428 74.2634 44.1588 74.2688 44.1695 74.2741C44.2391 74.3062 44.314 74.333 44.3878 74.3598C44.4146 74.3694 44.436 74.3747 44.4628 74.3801C44.5484 74.4068 44.6286 74.4283 44.7132 74.4443C44.7292 74.4497 44.7453 74.4497 44.7613 74.4497C45.3532 74.546 45.9867 74.4175 46.5357 73.9916C46.6856 73.875 46.8397 73.7519 46.9734 73.6192C47.043 73.5496 47.1115 73.4747 47.1757 73.3902C47.4101 73.0862 47.5385 72.7138 47.1971 72.3938C47.0687 72.2718 46.9092 72.1862 46.7284 72.2022C46.0563 72.2611 45.7791 73.5015 44.7346 73.0755C44.4253 72.9482 44.1856 72.7352 44.085 72.4152C43.9244 71.8929 44.2016 71.3182 44.5805 70.9608C45.1081 70.461 45.8166 70.3379 46.509 70.5295C47.7194 70.8602 48.2577 72.58 47.9698 73.7412C47.5385 75.4888 45.8219 76.0796 44.1856 75.9683C41.8461 75.8077 37.8489 74.226 35.9996 76.33L35.9728 76.3675L35.6903 76.8993C35.2162 76.3621 34.9123 75.568 34.8267 74.8863C34.7089 73.9649 34.923 73.0381 35.6582 72.4366ZM52.6915 66.8919C52.8253 66.9882 52.9527 67.0888 53.0811 67.1905C53.0864 67.1958 53.0864 67.1958 53.0918 67.2012C53.2727 67.3499 53.4546 67.504 53.6247 67.6592C53.6301 67.6646 53.6355 67.6699 53.6408 67.6699C53.6515 67.6753 53.6569 67.686 53.6676 67.6913C53.6943 67.717 53.7264 67.7438 53.7521 67.7705C53.9233 67.93 54.0935 68.0905 54.2594 68.2553L54.2647 68.2607C54.8084 68.8097 55.3253 69.3683 55.8529 69.9174C55.7833 69.8799 55.7084 69.8424 55.6335 69.8103C55.3938 69.7044 55.1487 69.6348 54.9197 69.592C54.36 69.4433 53.7789 69.4861 53.2191 69.699C52.8521 69.8371 52.5107 70.0608 52.2442 70.3486L52.2281 70.3647C51.6631 70.9875 51.4447 71.8138 51.7487 72.6175C51.7754 72.6924 51.8129 72.7716 51.8557 72.8465C51.8664 72.8679 51.8814 72.8947 51.8974 72.9161C51.9296 72.9749 51.967 73.0274 52.0098 73.0862C52.0366 73.1237 52.0687 73.1665 52.1008 73.2039C52.1061 73.2093 52.1115 73.2189 52.1168 73.2243C52.1639 73.2778 52.2174 73.3313 52.2709 73.3795C52.4839 73.5657 52.7397 73.677 53.0115 73.6192C53.1399 73.5871 53.2513 73.5175 53.3369 73.4223C53.369 73.3848 53.3957 73.3473 53.4225 73.3152C53.4278 73.3045 53.4385 73.2938 53.4439 73.2831C53.4599 73.2617 53.4706 73.235 53.4813 73.2136C53.4867 73.2039 53.491 73.1879 53.4963 73.1772C53.5017 73.1558 53.5124 73.1344 53.5177 73.113C53.5177 73.1023 53.5231 73.0916 53.5231 73.0755C53.5284 73.0541 53.5284 73.0327 53.5284 73.0113C53.5284 73.0006 53.5284 72.9899 53.5284 72.9856C53.5231 72.9268 53.507 72.8679 53.4867 72.809C53.4813 72.7983 53.476 72.793 53.476 72.7823C53.4653 72.7609 53.4546 72.7459 53.4439 72.7245C53.4385 72.7138 53.4332 72.7084 53.4278 72.6977C53.4171 72.6817 53.4064 72.6603 53.3904 72.6442C53.385 72.6335 53.3797 72.6282 53.369 72.6175C53.3529 72.6014 53.3422 72.58 53.3262 72.564C53.3208 72.5586 53.3155 72.5479 53.3101 72.5426C53.262 72.4901 53.2149 72.442 53.1721 72.3938C53.156 72.3777 53.1399 72.3617 53.1239 72.3456C53.1185 72.3349 53.1078 72.3296 53.1025 72.3189C53.0918 72.3028 53.0757 72.2932 53.065 72.2771C53.0597 72.2664 53.049 72.2611 53.0436 72.2504C53.0383 72.245 53.0383 72.2397 53.0329 72.2397L53.0383 72.245C52.9901 72.1862 52.9527 72.1273 52.943 72.0685C52.9002 71.7977 53.0329 71.4456 53.2138 71.2433L53.2298 71.2273C53.6783 70.7532 54.4563 70.7157 54.9946 71.0464C56.0124 71.6639 56.1033 73.2671 55.336 74.135L55.32 74.1511C55.138 74.3491 54.925 74.5139 54.6907 74.6359C53.2352 75.3872 51.0563 74.6252 49.9903 73.4961C48.8923 72.3349 48.8977 70.3807 49.6329 69.0227C50.3093 67.7491 51.3698 67.2857 52.6915 66.8919ZM0.113586 36.2552C0.497787 34.9453 1.78738 34.0881 3.03416 33.7103C4.38262 33.3047 5.66258 33.3582 7.04314 33.2522C9.05191 33.0917 10.4378 32.4903 11.8719 31.0359C12.5697 30.3274 13.1775 29.5451 13.7533 28.7403C14.6694 27.4624 15.4742 26.2585 16.4598 25.1455C16.9564 24.5911 17.4947 24.0592 18.1229 23.553C18.2995 23.4085 19.7111 22.4817 19.9455 22.3758C21.7424 21.5185 23.6131 21.3955 25.5641 21.6191C27.1148 21.7947 28.063 21.9231 29.5131 22.5834C30.9568 23.2437 32.1511 24.1545 33.3348 25.1455H33.3401C33.628 25.3905 33.9202 25.6356 34.2081 25.8914C37.8328 29.0121 41.9157 31.9519 46.9788 31.0251C47.2774 30.9716 47.5706 30.9138 47.8628 30.8496L47.9805 30.8229C47.7996 31.8139 46.8397 33.0328 46.0937 33.6621C44.1 35.3552 41.5475 35.856 39.0315 36.2242C37.0869 36.511 36.1484 36.724 34.5281 37.9065C34.2883 38.0821 34.0593 38.3539 33.8303 38.5562C31.2714 40.841 28.8517 42.152 25.3286 41.5549C22.6692 41.1075 20.8466 39.6852 20.0258 37.0868C19.1889 34.4284 19.6844 31.6063 22.1523 30.0299C23.8956 28.9158 26.1388 28.8205 27.9838 29.742C28.3455 29.9228 28.6923 30.1519 28.9748 30.4451L28.9908 30.4612C29.5399 31.0412 29.7261 31.9091 29.6833 32.6872C29.5987 34.1416 28.6762 35.6538 27.0185 35.2171C26.6246 35.1101 26.3367 34.9346 26.097 34.6103L26.0863 34.5943C25.9472 34.4016 25.8198 34.1309 25.6432 33.9489C25.6326 33.9393 25.6218 33.9286 25.6058 33.9179C25.5951 33.9072 25.5844 33.8965 25.5694 33.8858C25.5587 33.8751 25.5427 33.8644 25.532 33.8537C25.5212 33.843 25.5052 33.8376 25.4945 33.8269C25.4784 33.8162 25.4677 33.8109 25.4517 33.8055C25.441 33.8002 25.4249 33.7895 25.4142 33.7841C25.3982 33.7788 25.3821 33.7734 25.3661 33.7681C25.35 33.7627 25.3393 33.7574 25.3233 33.7574C25.3083 33.752 25.2869 33.752 25.2708 33.752C25.2548 33.752 25.2441 33.7467 25.228 33.7467C25.2066 33.7467 25.1852 33.752 25.1638 33.752C25.1478 33.752 25.137 33.752 25.121 33.7574C25.0942 33.7627 25.0675 33.7734 25.0407 33.7788C25.0311 33.7841 25.0204 33.7841 25.0043 33.7895C24.9669 33.8055 24.9241 33.8216 24.8813 33.8483C24.7796 33.9072 24.7004 33.9864 24.6415 34.0881C24.5987 34.1683 24.5773 34.2475 24.5666 34.3331C24.5666 34.3545 24.5613 34.3759 24.5613 34.3974C24.5613 34.423 24.5613 34.4551 24.5666 34.4819C24.5666 34.5033 24.5666 34.5194 24.572 34.5408C24.5773 34.5729 24.588 34.6103 24.5934 34.6467C24.5987 34.6628 24.5987 34.6735 24.6041 34.6895C24.6201 34.7377 24.6362 34.7912 24.6629 34.8393C24.6843 34.8864 24.7111 34.9399 24.7379 34.9881C24.7432 35.0042 24.7539 35.0149 24.7646 35.0309C24.785 35.0684 24.8064 35.0994 24.8278 35.1369C24.8385 35.1529 24.8545 35.169 24.8652 35.1904C24.8866 35.2225 24.908 35.2546 24.9348 35.2867C24.9508 35.3027 24.9615 35.3231 24.9776 35.3391C24.999 35.3659 25.0257 35.398 25.0514 35.4247C25.0675 35.4408 25.0835 35.4622 25.0996 35.4783C25.1263 35.505 25.1531 35.5318 25.1745 35.5575C25.1906 35.5735 25.2066 35.5896 25.2227 35.6056C25.2494 35.6324 25.2762 35.6591 25.3029 35.6859C25.3179 35.7019 25.334 35.718 25.35 35.734C25.3768 35.7608 25.4035 35.7822 25.4303 35.8079C25.4463 35.8239 25.4624 35.8346 25.4784 35.8507C25.5052 35.8721 25.532 35.8988 25.5587 35.9202C25.5748 35.931 25.5897 35.947 25.6058 35.9577C25.6326 35.9791 25.6593 36.0005 25.6861 36.0209C25.7021 36.0316 25.7128 36.0423 25.7289 36.053C25.7556 36.0744 25.7877 36.0958 25.8145 36.1118C25.8252 36.1172 25.8359 36.1279 25.8455 36.1332C25.883 36.16 25.9204 36.1814 25.9525 36.1974C26.1762 36.3301 26.4213 36.4372 26.6771 36.5003C27.5568 36.7293 28.4418 36.6501 29.2145 36.1493C31.2661 34.8286 31.6075 31.3237 29.9337 29.5611L29.9176 29.5451C28.2599 27.8242 25.0257 27.4196 22.8404 28.218C20.0579 29.2411 18.2139 31.9412 18.3102 34.9132C18.4483 39.1266 21.0071 42.2633 25.2387 42.8605C27.0934 43.1216 27.0078 43.691 28.1753 44.9645C29.5934 46.5142 31.341 47.8455 33.201 48.8258C33.1422 48.8686 33.079 48.9104 33.0095 48.9585C32.9987 48.9692 32.9827 48.9799 32.972 48.9853C32.8329 49.0816 32.6895 49.1929 32.5407 49.3053C32.53 49.316 32.5193 49.3213 32.5086 49.3309C32.3588 49.4487 32.21 49.5653 32.0655 49.6884C32.0495 49.6991 32.0388 49.7098 32.0227 49.7259C31.9542 49.7847 31.8847 49.8479 31.8205 49.9067C31.8205 49.9067 31.8151 49.9067 31.8151 49.9121C31.7509 49.9709 31.6878 50.0341 31.6289 50.0929C31.6128 50.109 31.6021 50.1197 31.5861 50.1357C31.5326 50.1893 31.4801 50.2481 31.432 50.3006C31.2714 50.4868 31.1494 50.6687 31.0906 50.8335C30.7866 51.7389 31.6342 52.0054 32.4016 52.1434C32.4604 52.1541 32.5247 52.1648 32.5824 52.1755C32.5878 52.1755 32.5931 52.1755 32.5931 52.1755C32.7323 52.1969 32.8703 52.2184 32.988 52.2344C33.0469 52.2451 33.0993 52.2505 33.1475 52.2612C34.939 52.6068 36.6332 53.5818 37.8757 54.9078C37.9763 55.0148 38.0726 55.1261 38.1689 55.2385C38.1946 55.2706 38.2267 55.307 38.2534 55.3444C38.2802 55.3765 38.307 55.414 38.3337 55.4461C38.3712 55.4942 38.414 55.5413 38.4514 55.5948C38.4878 55.6483 38.5306 55.6965 38.5681 55.75C38.6055 55.7971 38.643 55.8453 38.6805 55.8934C38.6912 55.9095 38.7019 55.9202 38.7126 55.9362C38.7168 55.9469 38.7222 55.9523 38.7275 55.963C38.765 56.0154 38.8025 56.0689 38.8453 56.1224C38.872 56.1599 38.8988 56.192 38.9202 56.2284C38.9683 56.298 39.0154 56.3675 39.0636 56.4371C39.0689 56.4424 39.0743 56.4521 39.0796 56.4574C39.192 56.6233 39.3033 56.7935 39.4157 56.9583C39.421 56.969 39.4264 56.9797 39.4371 56.9904C39.6715 57.3478 39.8951 57.7042 40.1188 58.0456C40.4923 58.6149 40.8754 59.1907 41.2917 59.7333C37.8275 60.2823 34.0486 59.8617 31.3303 57.4484C30.4613 56.6757 29.7314 55.8346 28.9213 55.0148C27.6156 53.6888 26.3581 52.9108 24.6255 52.2184C23.474 51.7603 22.2646 51.435 21.0649 51.1375C18.2674 50.445 14.5527 49.7943 12.7077 47.35C12.3032 46.8117 12.0207 46.1728 11.7702 45.5553C11.4716 44.8147 11.1998 44.0688 10.8584 43.3453C9.90486 41.3205 8.59386 39.8886 6.66964 38.7327C4.79358 37.6037 2.63498 37.0012 0.454979 36.8738C0.39077 36.8685 0.0450974 36.8738 0.00763702 36.8524C-0.0298233 36.7561 0.092186 36.3355 0.113586 36.2552Z" fill="url(#paint0_linear_308_768)"/>
<defs>
<linearGradient id="paint0_linear_308_768" x1="72.2193" y1="34.8966" x2="43.5111" y2="76.2504" gradientUnits="userSpaceOnUse">
<stop stop-color="#0063B5"/>
<stop offset="1" stop-color="#5DCC6C"/>
</linearGradient>
</defs>
</svg>
