<svg width="130" height="132" viewBox="0 0 130 132" fill="none" xmlns="http://www.w3.org/2000/svg">
<path d="M94.7658 71.2268L94.7245 71.2252H94.6402L94.5511 71.2284L94.5065 71.2316L94.4143 71.2412L94.3665 71.2475C94.3904 71.2443 94.4127 71.2412 94.4365 71.2396L94.4715 71.2364C94.4954 71.2332 94.5193 71.2316 94.5431 71.23L94.6131 71.2268H94.7547L94.7961 71.2284C94.8199 71.23 94.8311 71.2316 94.8279 71.2316C94.812 71.23 94.7913 71.2284 94.7658 71.2268ZM72.0635 64.0937L73.0387 64.1494C77.17 64.4977 81.2233 65.282 85.2003 66.5022C86.0435 66.7567 86.8659 67.0558 87.6661 67.3994C91.2168 69.3942 93.6666 70.678 95.014 71.2507C96.6382 71.825 98.7444 72.3134 101.329 72.7158C102.9 73.508 103.224 74.83 102.301 76.6833C98.2115 81.1328 95.8301 83.8435 95.1572 84.8171C92.3335 88.5634 90.0157 92.0138 88.2038 95.1684L83.1689 101.339C80.8511 104.015 77.6265 106.998 73.4952 110.286C71.4844 111.614 69.4848 112.756 67.4963 113.714C62.366 115.908 59.2305 117.051 58.0883 117.144C55.9264 117.691 53.7152 118.093 51.4563 118.351C49.7446 118.631 46.8906 118.725 42.8914 118.633C40.0327 118.677 38.5071 117.877 38.3178 116.229C38.2653 115.769 38.3162 115.329 38.4705 114.905C39.2246 114.037 39.9245 112.68 40.5672 110.835C40.9776 109.214 41.0954 107.589 40.9204 105.962C41.0349 105.435 41.2958 104.992 41.6999 104.635C42.2614 104.15 42.9407 103.967 43.7377 104.09C44.3199 104.134 45.0278 104.653 45.8646 105.644C46.5948 106.065 47.0895 106.29 47.3456 106.32C49.1973 106.772 51.2574 106.888 53.5243 106.668C59.9782 106.148 65.0608 104.788 68.7753 102.588C73.0068 100.342 76.0166 97.4401 77.8031 93.883C78.3965 92.6979 78.8578 91.4396 79.1887 90.1081C79.4385 88.7241 79.308 86.9281 78.7942 84.72C78.748 83.4108 77.162 81.6386 74.0361 79.4036C73.5239 78.9343 72.1399 78.0959 69.8841 76.8901C68.9996 76.4749 68.1406 76.1551 67.3086 75.9292C65.538 75.4838 64.0809 75.4091 62.9339 75.7049C60.4284 76.0167 58.2601 76.6817 56.4275 77.703C53.3143 79.5976 51.6885 81.5655 51.5501 83.608C51.3783 83.9055 51.7028 84.7836 52.5205 86.2408C53.2141 87.2844 54.7794 88.557 57.2165 90.0556C57.5824 90.3674 57.8211 90.8701 57.934 91.5652C61.3876 91.6686 63.0405 91.6193 62.8941 91.4205C63.9186 91.1294 64.636 90.5233 65.0465 89.6038C64.8922 89.1472 64.5899 88.7591 64.1381 88.4425C63.4525 88.0018 62.4519 87.6503 61.1347 87.391C60.8022 87.2939 60.4331 86.9424 60.0307 86.3379C59.3832 84.6898 59.932 83.5253 61.6803 82.8461C66.4543 83.1244 69.2048 85.3277 69.9334 89.4574C69.663 92.017 68.4412 93.9689 66.2666 95.3132C65.5698 95.7077 64.784 95.9988 63.9138 96.1865C63.6672 96.3822 62.0828 96.4601 59.1605 96.4172C54.1988 96.2947 50.9901 95.9065 49.5362 95.2511L41.2369 90.2019C38.9605 89.1631 37.6783 88.6223 37.3872 88.5777C36.7541 88.3582 35.3669 88.075 33.2273 87.7235C32.6864 87.531 32.3428 87.3703 32.1932 87.2383C31.0558 86.314 30.8108 85.1416 31.4567 83.721C31.7621 83.0163 32.8741 81.9854 34.791 80.6301L48.8314 70.9484C49.2769 70.616 50.6688 69.8715 53.0057 68.715C55.9391 67.3294 59.4962 66.0074 63.6768 64.7491C65.7098 64.2273 68.5065 64.0094 72.0635 64.0937Z" fill="#005090"/>
<path d="M36.8116 50.5878C38.6649 50.6705 40.6741 50.9935 42.8423 51.555C42.9028 51.5709 42.9617 51.5884 43.0205 51.6091C46.6285 52.8499 49.3376 54.5028 51.1447 56.5644C52.0229 57.5651 51.9242 59.089 50.922 59.9656C50.4352 60.3935 49.826 60.5892 49.2262 60.5621C48.9892 60.551 48.7554 60.5064 48.5311 60.4269H48.5231C48.2797 60.9137 47.8756 61.3066 47.3745 61.5373C43.3753 63.3763 40.8952 65.0784 39.9375 66.6406C39.4667 67.4089 38.6267 67.8273 37.7741 67.7891C37.4559 67.7748 37.1361 67.6969 36.8323 67.5505C35.7171 67.0112 35.1922 65.7131 35.6185 64.5503C36.7893 61.3607 37.063 59.334 36.4394 58.4734H36.4473C35.9621 58.0105 34.8645 57.6303 33.1528 57.3328H33.1544C32.9571 57.301 32.7535 57.2803 32.5403 57.2708C31.6208 57.231 30.5534 57.3948 29.3364 57.7655H29.3444C28.4615 58.0996 27.9795 58.58 27.8999 59.2084L27.9047 59.2099C27.8968 59.4915 27.9795 59.8335 28.1497 60.2344L28.2022 60.368V60.3696C28.3517 60.7482 28.9101 61.4418 29.8789 62.4488C30.1462 62.7288 30.3434 63.0692 30.4532 63.4399C30.6823 64.221 30.5868 64.9352 30.1653 65.5811C29.6101 66.4322 28.9451 66.841 28.1704 66.806C27.682 66.7853 27.1475 66.5849 26.5716 66.2095V66.2079C26.4905 66.157 26.4141 66.0997 26.341 66.0393C23.0798 63.3094 22.0203 60.1183 23.1609 56.4674C23.1991 56.3465 23.2453 56.2304 23.3009 56.1174C24.5402 53.6135 27.5945 51.87 32.464 50.89C33.8018 50.618 35.251 50.5178 36.8116 50.5878Z" fill="#005090"/>
<path d="M64.2016 53.6501L64.2462 53.6564L64.2668 53.6596L64.2875 53.6612L64.3098 53.6644L64.3305 53.666L64.3512 53.6692L64.3718 53.6708H64.3909C64.3941 53.6723 64.3957 53.6723 64.3973 53.6723C64.3655 53.6692 64.3353 53.666 64.3034 53.6628C64.2716 53.6596 64.2414 53.6548 64.2096 53.6501H64.2016ZM33.0028 14.6786L33.1301 14.6866C33.8205 14.7868 34.417 15.0047 34.9213 15.3388C36.3801 16.1517 39.2785 17.9032 43.6151 20.5932L62.9194 30.1269C64.27 30.8475 65.2866 31.5109 65.969 32.1186C66.8328 32.8535 67.4898 33.6616 67.9432 34.5445C69.8537 39.1976 71.2902 42.2361 72.2559 43.6582L75.447 47.0053L82.0282 51.8334L82.6724 52.5413C83.1083 53.316 83.1242 54.1114 82.7202 54.9275C82.27 55.7674 81.4889 56.1842 80.3769 56.1763C79.9872 56.1429 79.6197 56.0124 79.2745 55.7897L74.4687 52.2629C73.8864 53.1856 73.0083 53.6994 71.8343 53.8044L70.7812 53.8823C67.5296 53.631 65.6604 53.5435 65.172 53.6183L64.1332 53.7646L60.4394 54.6952C59.7697 54.6682 59.2765 54.5202 58.9552 54.2482C58.5384 53.9014 58.287 53.6087 58.1995 53.3669C57.7891 52.177 57.1273 50.8519 56.2174 49.3947C55.6606 48.5754 55.0625 47.8993 54.4214 47.3696C53.6673 46.6983 52.829 46.1383 51.9111 45.6865L50.1008 44.9277L46.6646 43.6773C46.0331 43.4085 45.4986 42.8517 45.0611 42.0086C44.7461 41.3007 44.7557 40.4655 45.0897 39.5078L47.5253 35.647L48.0645 34.3536L48.8138 31.9388C49.132 31.3613 49.5122 30.9366 49.9544 30.6678C49.7365 30.0155 46.7967 28.6299 41.1382 26.511L39.4313 25.8572C39.2929 26.2278 39.0701 26.6096 38.7647 27.0026C38.0313 27.9077 37.2296 28.7668 36.361 29.5812L36.2401 29.9058C36.089 30.1205 36.194 30.5612 36.5567 31.2261C37.0228 31.8815 37.6655 32.564 38.4847 33.2719C38.6311 33.4119 38.7822 33.6919 38.9397 34.1134C39.2038 34.8691 39.0256 35.6502 38.4052 36.4551C35.4702 38.4006 33.119 38.6234 31.3548 37.1216C30.1044 36.2722 29.4315 34.5764 29.336 32.0358C29.2724 31.8275 29.8785 29.0945 31.1543 23.8384C31.2195 22.876 30.9984 20.9352 30.4909 18.0177C30.4687 17.6073 30.4878 17.2621 30.5498 16.9789C31.0541 15.3452 31.8718 14.5784 33.0028 14.6786Z" fill="#005090"/>
<path d="M73.4445 61.4323C75.4426 61.5214 77.3961 61.7489 79.305 62.1148C82.0619 62.6365 84.7456 63.4224 87.3577 64.4723C87.4277 64.501 87.4961 64.5312 87.5629 64.5662C92.5023 67.1083 95.8128 68.5973 97.4974 69.0316C97.577 69.0522 97.6565 69.0761 97.7345 69.1063C100.168 70.0099 102.64 70.5174 105.149 70.6303C105.751 70.6574 106.355 70.6605 106.96 70.6414C107.02 70.6399 107.08 70.6414 107.141 70.643C107.359 70.6526 107.572 70.6924 107.779 70.7592C109.584 71.3462 110.203 72.5138 109.634 74.2653C109.551 74.5214 109.43 74.7712 109.276 75.0146C109.101 75.2866 108.873 75.5204 108.606 75.7034C104.979 78.1803 102.435 80.3676 100.972 82.2638H100.977C94.9506 91.166 89.9666 97.7296 86.0214 101.958L86.0134 101.966C79.6009 108.781 74.6122 113.205 71.0472 115.236L70.966 115.281C62.3105 119.781 53.3336 121.824 44.0385 121.41C41.9164 121.315 39.7784 121.092 37.6244 120.742C36.3104 120.527 35.418 119.29 35.6327 117.976C35.83 116.756 36.9117 115.9 38.116 115.954C38.2098 115.959 38.3037 115.968 38.3991 115.982C40.3542 116.301 42.295 116.503 44.2215 116.589C52.6495 116.966 60.7944 115.117 68.6562 111.046H68.661C71.8044 109.255 76.4161 105.13 82.4962 98.6698C86.287 94.6053 91.1438 88.1959 97.0663 79.4402L97.1554 79.3177C98.1862 77.9798 99.6037 76.564 101.404 75.0702H101.411C99.6514 74.7712 97.9079 74.3051 96.1834 73.6719H96.1914C94.1567 73.1263 90.5854 71.5403 85.4789 68.9154L85.4869 68.917C83.1882 67.9975 80.8258 67.3087 78.403 66.8506L78.3967 66.849C76.7184 66.5276 74.9955 66.3272 73.2313 66.2492C69.8859 66.0997 66.3845 66.3876 62.7257 67.1115C62.6589 67.1258 62.5921 67.1353 62.5237 67.1433C60.462 67.3724 56.2575 69.2352 49.9086 72.7302L49.8306 72.7699C45.615 74.8968 40.6231 78.3346 34.8532 83.0847C34.7594 83.1626 34.6608 83.2326 34.5558 83.2947C33.8717 83.7035 33.2179 84.0853 32.5943 84.4432H32.6023C34.6512 84.8823 36.5061 85.4216 38.1685 86.0643H38.1701C39.7688 86.6592 41.1465 87.2526 42.2982 87.846H42.2998C42.3905 87.8937 42.478 87.9462 42.5623 88.0035C47.2806 91.2487 50.1695 93.0081 51.2321 93.2801L51.2401 93.2817C51.4151 93.2929 51.5869 93.3231 51.7555 93.3708C54.0224 94.0294 56.2798 94.408 58.5291 94.5082C59.1209 94.5353 59.7111 94.5417 60.3013 94.5305H60.3093C64.878 94.1933 67.3533 92.3416 67.7383 88.9723L67.7463 88.9738C67.6588 87.8921 66.7234 86.8008 64.9385 85.6984H64.9449C64.3213 85.4645 63.8297 85.3405 63.4718 85.3245C63.1377 85.3086 62.9182 85.3882 62.8132 85.5616C62.3407 86.3427 61.4944 86.7579 60.6433 86.7213C60.252 86.7038 59.8606 86.5908 59.5027 86.3729C58.3637 85.6841 58.001 84.2014 58.6914 83.0624C59.7922 81.2457 61.3942 80.3835 63.4956 80.4774C64.5058 80.5235 65.6305 80.7892 66.8729 81.2744C66.997 81.3237 67.1179 81.3825 67.2324 81.4509C70.6861 83.519 72.4646 85.999 72.5696 88.8911C72.5727 88.9898 72.5696 89.09 72.5616 89.1886C72.016 95.4293 68.0294 98.8145 60.6036 99.3427L60.489 99.3491C59.7636 99.365 59.0382 99.357 58.3112 99.3252C55.7627 99.2122 53.2111 98.7939 50.6579 98.0716L50.6658 98.0732C50.5226 98.0557 50.3779 98.0303 50.2299 97.9969H50.2283C48.6185 97.6374 45.2014 95.6648 39.9804 92.0791H39.9868C39.0196 91.5875 37.844 91.0848 36.4631 90.5726L36.4329 90.5615C33.2211 89.3222 29.0945 88.5046 24.0549 88.11C22.8395 88.0146 21.885 87.0251 21.8357 85.8066C21.7848 84.588 22.6518 83.5238 23.856 83.3281C24.976 83.1452 27.6565 81.7898 31.8991 79.2652H31.9071C37.8678 74.3671 43.092 70.7814 47.5797 68.5066H47.5828C54.3756 64.7666 59.1337 62.7208 61.8539 62.3677H61.8619C65.8755 61.5787 69.7363 61.2669 73.4445 61.4323Z" fill="url(#paint0_linear_404_2643)"/>
<path d="M33.5105 104.422C34.737 104.476 35.4385 105.195 35.6183 106.579C35.7026 107.228 35.5435 107.844 35.1395 108.423C35.0774 108.51 35.0106 108.595 34.9374 108.673C34.0959 109.591 33.4834 110.338 33.1001 110.913L33.0889 110.93C32.8487 111.285 32.6594 111.632 32.5242 111.974L32.4876 112.063C32.2601 112.572 32.2299 113.06 32.3953 113.528H32.3969C32.591 114.024 32.8201 114.425 33.0841 114.731L33.0921 114.732C33.458 114.961 33.8652 115.178 34.3186 115.38L34.4379 115.437C34.4411 115.438 34.4427 115.44 34.4443 115.44C34.904 115.669 35.9619 115.82 37.6227 115.893C38.2161 115.92 38.8858 115.938 39.6335 115.944C39.6621 115.944 39.6923 115.944 39.721 115.946C41.0111 116.003 42.034 117.074 42.0229 118.377C42.0101 119.708 40.922 120.777 39.5905 120.764C39.4012 120.763 39.2167 120.761 39.0337 120.758H39.0417C38.6042 121.086 38.057 121.266 37.4875 121.24C37.3475 121.234 37.2059 121.215 37.0643 121.183C34.2566 120.553 32.4478 120.037 31.6365 119.638C31.3995 119.52 31.1879 119.388 31.0018 119.242H31.0081C30.6439 119.013 30.3034 118.752 29.9869 118.458L29.9948 118.459C28.8272 117.635 27.9061 116.67 27.23 115.561L27.195 115.502C25.2081 112.02 26.7098 108.482 31.7017 104.89C32.0263 104.656 32.4049 104.508 32.7994 104.456C33.0539 104.424 33.2894 104.413 33.5105 104.422Z" fill="url(#paint1_linear_404_2643)"/>
<path d="M48.9381 20.8191C49.1974 21.1484 49.366 21.5397 49.4297 21.9533C49.4042 21.5175 49.242 21.1404 48.9461 20.8207L48.9381 20.8191ZM48.6168 24.1423C48.1602 24.5336 47.5637 24.75 46.9401 24.7213C46.8764 24.7197 46.8144 24.7134 46.7508 24.7054H46.7428C46.8446 24.7197 46.9448 24.7293 47.0403 24.7341C47.6909 24.7627 48.2191 24.5654 48.6231 24.1423H48.6168ZM30.6789 10.5648C30.9541 10.5775 31.2468 10.6205 31.5554 10.692C32.0868 10.8161 32.6928 11.0579 33.3737 11.4159C33.4517 11.4572 33.5264 11.5018 33.5996 11.5511C36.9848 13.8339 41.8527 16.7164 48.2048 20.2003C48.3384 20.2734 48.4625 20.3578 48.577 20.4516H48.585C50.0485 21.0991 54.8432 22.9651 62.9722 26.0496L63.066 26.0878C64.5964 26.7416 65.7767 27.3971 66.604 28.0525L66.6087 28.0572C68.0055 29.1692 69.0379 30.3862 69.706 31.7081C69.7426 31.7797 69.7744 31.8529 69.8031 31.9277C71.7009 36.8448 72.9894 39.686 73.6671 40.4512H73.6751C74.0123 40.7168 74.2716 41.0668 74.4291 41.4661H74.4355C75.0941 42.3776 77.6696 44.3168 82.1652 47.2837C82.2988 47.3712 82.4245 47.473 82.5374 47.5859C83.958 48.9986 84.7948 50.6959 85.0493 52.6749C85.2195 53.9953 84.2857 55.2027 82.9654 55.3729C82.8254 55.3904 82.6854 55.3968 82.5486 55.3904C81.4 55.3395 80.4185 54.4677 80.2674 53.2889C80.164 52.4776 79.8394 51.7713 79.2954 51.17L79.3033 51.1716C74.2382 47.8182 71.2459 45.4256 70.3264 43.9939C70.2962 43.9462 70.266 43.8969 70.2374 43.8491H70.2437C70.2151 43.8189 70.1865 43.7887 70.1578 43.7585C69.0777 42.594 67.4821 39.2883 65.3743 33.8398H65.3806C65.0275 33.1605 64.4373 32.4908 63.6117 31.8322C63.1328 31.4536 62.3486 31.0289 61.2557 30.558H61.2621C52.0179 27.0503 46.9194 25.0459 45.9665 24.5432C45.7151 24.4111 45.4972 24.268 45.3095 24.1152H45.3174C40.1585 21.2757 35.9667 18.8226 32.7438 16.7562H32.7358C32.8344 18.2245 32.871 19.3842 32.8472 20.2369L32.8456 20.2655L32.3015 33.6028H32.3095C33.1017 34.807 33.9814 35.4306 34.9502 35.4736C35.3129 35.4895 35.6867 35.4242 36.0733 35.2779L36.1783 35.2413C37.1916 34.9104 37.9902 34.3648 38.5709 33.6028H38.5788C38.5693 33.6028 38.5597 33.6028 38.5502 33.6028C38.4786 33.5996 38.4038 33.5964 38.3259 33.5932C37.9648 33.5837 37.5639 33.5869 37.1232 33.6028C37.0548 33.606 36.9864 33.606 36.9196 33.6028C35.6804 33.5471 34.6702 32.5481 34.6209 31.2866C34.57 29.9567 35.6072 28.8367 36.9387 28.7858C37.4875 28.7636 37.9998 28.7604 38.4706 28.7747C38.5502 28.7779 38.6281 28.7795 38.7061 28.7842C40.063 28.8447 41.1464 29.069 41.9545 29.4603C43.4244 30.1682 44.1371 31.2802 44.0909 32.7962C44.0846 33.0174 44.048 33.2353 43.9812 33.4469C42.971 36.6571 40.868 38.784 37.6721 39.826H37.6768C36.5235 40.2491 35.4338 40.4385 34.4093 40.3923C31.7718 40.2746 29.5542 38.6074 27.7582 35.3892C27.5418 35.0011 27.4368 34.5604 27.4543 34.1166L28.0286 20.0682C28.062 18.8338 27.9348 16.7419 27.65 13.7941C27.6373 13.6653 27.6357 13.5364 27.6436 13.4091C27.6739 12.943 27.79 12.5183 27.9936 12.1317V12.1301C28.5727 11.0325 29.4667 10.5107 30.6789 10.5648Z" fill="url(#paint2_linear_404_2643)"/>
<path d="M37.1106 48.0011C39.7895 48.1204 42.4334 48.6295 45.0439 49.5283H45.0503C50.4034 51.1573 53.5595 53.6469 54.5188 56.9955C54.8846 58.2761 54.1449 59.6108 52.8643 59.9767C52.6066 60.0514 52.3473 60.0801 52.0928 60.0689C51.0858 60.0228 50.1759 59.3451 49.8832 58.3222C49.4011 56.6408 47.2949 55.2377 43.5645 54.1162L43.4738 54.0859C41.3071 53.3414 39.1134 52.9183 36.8895 52.8197C35.3003 52.7481 33.6968 52.8419 32.0773 53.1028H32.0853C28.1035 53.9507 25.9718 55.9583 25.6902 59.1272H25.695C25.6457 61.3066 26.2104 62.8147 27.3876 63.6482H27.3956C27.4513 63.6689 27.4974 63.6801 27.5324 63.6832H27.534C27.5451 63.6769 27.5563 63.6673 27.569 63.6562L27.6517 63.591C28.0399 63.2951 28.2371 62.864 28.2435 62.2977C28.2578 60.9662 29.3475 59.8971 30.679 59.9115C30.7076 59.9115 30.7347 59.913 30.7633 59.913C32.055 59.9719 33.0779 61.0441 33.0652 62.347C33.0429 64.4882 32.2109 66.1824 30.5676 67.4296H30.5692C30.2733 67.6666 29.9615 67.8655 29.6354 68.0261H29.6338C29.0134 68.33 28.358 68.4891 27.6676 68.505C27.5594 68.5066 27.4497 68.5066 27.3399 68.5002C26.6479 68.47 25.948 68.2934 25.2385 67.972C25.1351 67.9243 25.0348 67.8702 24.9378 67.8098C22.0934 65.9963 20.7397 63.004 20.8797 58.8329L20.8876 58.6993C21.3824 53.133 24.8153 49.689 31.1881 48.3638L31.2946 48.3447C33.2513 48.0298 35.1889 47.9152 37.1106 48.0011Z" fill="url(#paint3_linear_404_2643)"/>
<path d="M78.6764 59.8845C78.8896 59.894 79.1012 59.9051 79.3112 59.9163C79.3684 59.9211 79.4257 59.9258 79.4814 59.9338C82.6916 60.3522 85.7253 60.9917 88.5824 61.8507C88.7033 61.8873 88.821 61.9334 88.9355 61.9875L99.7959 67.2228H99.8023C100.558 67.5219 101.318 67.7414 102.085 67.8846C102.182 67.9021 102.279 67.926 102.373 67.9562C102.511 67.9991 102.659 68.0405 102.817 68.0771C103.079 67.9673 103.364 67.9037 103.663 67.8926L116.348 67.4487C116.413 67.4471 116.479 67.4471 116.542 67.4503C117.735 67.5028 118.723 68.4318 118.833 69.6409C118.936 70.7656 118.244 71.7884 117.21 72.14L117.217 72.1416C117.077 72.5123 116.84 72.8925 116.507 73.2822C116.41 73.3967 116.302 73.5017 116.186 73.5956C107.295 80.7558 100.905 86.4286 97.0152 90.614H97.0216C88.121 102.24 82.208 109.365 79.2825 111.991L79.2666 112.005C74.5738 116.145 71.0645 118.77 68.7387 119.882L68.7339 119.883C62.4296 122.875 52.0687 124.463 37.6481 124.648C37.602 124.649 37.5558 124.648 37.5113 124.646C37.4365 124.643 37.3617 124.635 37.2886 124.625C33.3259 124.078 30.1284 122.497 27.6944 119.878C27.5799 119.756 27.4781 119.621 27.3922 119.476C25.515 116.339 25.2876 112.631 26.7081 108.35C26.7845 108.121 26.8943 107.903 27.0343 107.707C27.4288 107.157 27.8392 106.705 28.2687 106.353C28.3785 106.263 28.4882 106.18 28.5996 106.104C29.4189 105.537 30.2286 105.272 31.0303 105.307C31.7955 105.342 32.5527 105.65 33.3036 106.232C33.6186 106.477 33.9192 106.773 34.204 107.122C34.2947 107.231 34.3758 107.349 34.4458 107.475C35.5291 109.416 35.518 111.872 34.4076 114.843C34.0322 115.849 33.0586 116.455 32.0421 116.409C31.7971 116.399 31.549 116.35 31.3071 116.259C31.2451 116.235 31.1862 116.212 31.1274 116.185L31.1194 116.183C31.2069 116.395 31.3056 116.601 31.4153 116.802H31.4233C33.022 118.423 35.1378 119.431 37.7738 119.824C51.3894 119.638 61.017 118.206 66.6611 115.531C68.5796 114.614 71.7135 112.238 76.0628 108.404C78.7767 105.967 84.5211 99.015 93.2975 87.5469C93.3436 87.4865 93.393 87.4292 93.4454 87.3719C96.8339 83.7194 101.996 79.025 108.933 73.2886H108.94C108.304 73.2599 107.678 73.2202 107.066 73.1677H107.06C106.272 73.182 105.537 73.174 104.855 73.1438C103.334 73.077 102.076 72.8956 101.078 72.6013H101.084C100.003 72.3929 98.9369 72.0748 97.8854 71.6484L97.7454 71.5864L87.025 66.4195H87.0329C84.4972 65.667 81.8008 65.1023 78.9437 64.7253H78.9501C78.7862 64.7157 78.6208 64.7078 78.4553 64.6998C73.0211 64.458 66.1584 65.2248 57.8656 67.0017C54.1765 67.8226 50.9567 69.0841 48.2062 70.7878L48.176 70.8085C42.438 74.243 36.9815 78.0387 31.8083 82.1986C31.7605 82.2368 31.7112 82.2734 31.6603 82.3084C30.5006 83.1038 29.0068 83.9692 27.179 84.903L27.1313 84.9269C27.0056 84.9873 26.8799 85.0494 26.7543 85.1098H26.7622C27.5354 85.2403 28.3196 85.3946 29.1166 85.5727L29.1914 85.5918C30.7313 85.9863 32.05 86.4556 33.1493 86.9997L33.2734 87.0665C41.229 91.5987 47.1818 94.6419 51.1301 96.1977C53.4241 97.0504 55.3378 97.5117 56.8697 97.5785C57.4186 97.604 57.9181 97.5785 58.3699 97.5022H58.3715C65.4553 96.177 69.558 92.962 70.6779 87.8587L70.6843 87.8603C69.7902 85.4741 68.0801 83.9263 65.5539 83.2168H65.5619C64.9351 83.0974 64.3338 83.0243 63.7563 82.9988C62.3405 82.9352 61.0742 83.1563 59.9591 83.6606H59.967C60.8117 84.5101 61.8935 85.1003 63.2139 85.4312C64.3958 85.727 65.1721 86.8581 65.021 88.0687C64.8699 89.2777 63.839 90.1845 62.6205 90.1797C62.2816 90.1781 61.9539 90.1717 61.6358 90.1574C60.7545 90.1177 59.9527 90.0286 59.2305 89.8886C54.8987 89.055 53.1011 86.7277 53.8377 82.9097C53.9299 82.4293 54.167 81.9887 54.5154 81.645C57.0479 79.1618 60.1675 78.0037 63.8756 78.1691C64.7378 78.2073 65.6303 78.3171 66.5545 78.4984C66.6102 78.5096 66.6659 78.5223 66.7216 78.5366C71.1885 79.7472 74.1045 82.555 75.471 86.9615C75.5839 87.3242 75.6078 87.706 75.5442 88.0798C74.2413 95.7332 68.8119 100.453 59.2575 102.241L59.2289 102.246C58.4494 102.383 57.6063 102.43 56.6979 102.389C54.606 102.297 52.1737 101.732 49.4041 100.7L49.3627 100.684C45.2187 99.0516 39.0957 95.9289 30.9938 91.3171H31.0017C30.2206 90.9306 29.2407 90.5854 28.0603 90.2783H28.0667C25.865 89.7868 23.789 89.4988 21.8387 89.4113C19.0293 89.2857 16.4793 89.58 14.1885 90.2942H14.1965C13.8497 90.4135 13.5029 90.5329 13.1545 90.649C12.865 90.746 12.5691 90.7842 12.2812 90.7715C11.3298 90.7301 10.4549 90.1208 10.1161 89.1695C9.67701 87.9303 10.3102 86.5686 11.5414 86.1057C11.9169 85.9657 12.2955 85.8352 12.6804 85.7127L12.6884 85.7143C16.807 84.2842 20.9049 82.5836 24.9821 80.611H24.9837C26.5602 79.8045 27.8344 79.0743 28.8096 78.4173H28.8159C34.1451 74.1365 39.7623 70.2279 45.6673 66.6899C48.8855 64.6966 52.6096 63.2299 56.8395 62.2914L56.8554 62.2882C65.5523 60.4253 72.8255 59.6236 78.6764 59.8845Z" fill="url(#paint4_linear_404_2643)"/>
<path d="M38.4086 46.0588C47.2742 46.4549 53.0265 49.4217 55.6641 54.9625C56.2368 56.1636 55.7261 57.6032 54.5235 58.1743C54.1544 58.3509 53.7631 58.4241 53.3813 58.4066C52.5206 58.3684 51.7077 57.8673 51.31 57.0353C49.5029 53.2365 45.1409 51.1843 38.2241 50.8757C37.2728 50.8328 36.2722 50.8232 35.2239 50.8471L35.2318 50.8487C28.9561 51.555 25.3927 53.6501 24.5448 57.1339H24.5512C24.0517 60.1231 24.2982 62.2388 25.2909 63.4828L25.2988 63.4844C25.9558 64.0253 26.5604 64.3085 27.1155 64.3339C27.5753 64.3546 28.0016 64.1955 28.3914 63.8583L28.3993 63.8599C28.622 63.5942 28.7143 63.3492 28.6761 63.1265H28.6841C28.6523 63.0645 28.6109 63.0024 28.5648 62.9404H28.5727C26.7974 61.6073 25.6345 60.4985 25.0825 59.6156C24.8932 59.3117 24.75 59.0079 24.6562 58.7041C24.2601 57.433 24.9695 56.0808 26.2406 55.6847C26.5142 55.5988 26.7926 55.5654 27.0646 55.5781C28.0032 55.6195 28.8638 56.2129 29.2106 57.1323H29.2186C29.5145 57.5412 30.3194 58.2348 31.6334 59.2099C31.7464 59.2927 31.8514 59.3865 31.9484 59.4883C32.4559 60.0244 32.8488 60.613 33.1304 61.2557C33.1542 61.3098 33.1765 61.3639 33.1956 61.4196C33.921 63.4685 33.5122 65.3647 31.9659 67.1067C31.9229 67.1544 31.8784 67.2005 31.8307 67.2451C30.2812 68.7325 28.6666 69.4388 26.9883 69.364C25.3736 69.2924 23.6985 68.4954 21.9645 66.9762C21.8818 66.9031 21.8023 66.8251 21.7307 66.7408C19.6515 64.3387 19.0168 60.8087 19.8281 56.1492L19.8599 55.9917C21.2471 50.2999 26.2311 46.9846 34.8134 46.0429C34.8802 46.0365 34.9486 46.0317 35.0171 46.0301C36.1942 46.0015 37.3253 46.0111 38.4086 46.0588Z" fill="url(#paint5_linear_404_2643)"/>
<path d="M30.9671 8.77195C32.3988 8.83558 33.5697 9.05671 34.4812 9.43214L34.4876 9.43373C35.5248 9.80916 36.4156 10.245 37.1617 10.743C37.2365 10.7923 37.3081 10.8464 37.3765 10.9036C39.6131 12.784 42.8409 15.0174 47.0613 17.6041C47.8789 18.1004 48.905 18.6158 50.1363 19.1503L50.1697 19.1647C53.8238 20.8175 59.1243 22.2747 66.0713 23.5362C66.2988 23.5775 66.52 23.6523 66.7268 23.7573C67.9867 24.3936 69.1034 25.5406 70.0786 27.1982C70.1438 27.3096 70.1995 27.4257 70.2456 27.5466C72.4027 33.0969 73.8424 36.2849 74.5646 37.1105H74.5726C74.7126 37.2234 74.8414 37.3523 74.9544 37.4939C76.4211 39.3376 79.1366 41.2243 83.1009 43.1571C83.2488 43.2287 83.3888 43.3162 83.5193 43.418C84.5151 44.188 85.398 45.1456 86.1695 46.2894H86.1711C87.9878 48.8283 88.7069 52.3106 88.3267 56.7394C88.2169 58.0311 87.1049 58.9983 85.8196 58.9411C85.7861 58.9395 85.7527 58.9379 85.7193 58.9347C84.3926 58.8202 83.4095 57.6525 83.524 56.3258C83.804 53.0535 83.3713 50.6307 82.2228 49.0574L82.1718 48.9842C81.7407 48.3447 81.2683 47.8102 80.7529 47.3791H80.7608C76.4163 45.2395 73.2904 43.0251 71.3798 40.7391H71.3878C71.2685 40.6357 71.1508 40.5228 71.0362 40.3971C69.9274 39.1881 68.1951 35.5611 65.8391 29.516H65.847C65.4684 28.8892 65.1121 28.4518 64.7796 28.202H64.786C57.6751 26.8896 52.1518 25.3465 48.2162 23.5744H48.2178C46.7797 22.9508 45.5564 22.3319 44.5494 21.7179L44.543 21.7147C40.2017 19.0533 36.8245 16.7196 34.4128 14.7104H34.4208C33.9881 14.432 33.4345 14.1743 32.7615 13.9357L32.6406 13.8896C32.2079 13.7098 31.5955 13.6016 30.8033 13.5666C30.439 13.5491 30.0349 13.5491 29.5927 13.5634H29.6006C29.8536 14.4479 30.0397 15.4247 30.159 16.4937C30.1717 16.6067 30.1765 16.7212 30.1733 16.8357L29.7565 30.3719H29.7613C29.809 31.8593 30.0747 33.0508 30.5567 33.9448H30.5631C31.7339 35.5467 33.2897 36.3899 35.2321 36.4774C36.5222 36.5346 37.9826 36.2578 39.6131 35.6486H39.6211C41.3773 34.5079 42.1886 33.6107 42.0566 32.9617H42.0646C41.7973 32.8551 41.4107 32.7899 40.9017 32.7676C40.022 32.7278 38.778 32.8137 37.1712 33.0269C37.0281 33.046 36.8849 33.0524 36.7449 33.046C35.5995 32.9951 34.6212 32.1297 34.4653 30.9541C34.2903 29.6337 35.2193 28.4215 36.5397 28.2481C38.2291 28.0238 39.7022 27.9395 40.9542 27.9952C42.5497 28.0668 43.7906 28.3643 44.6767 28.8892C45.4896 29.3697 46.0638 30.0155 46.3995 30.83H46.4027C47.8789 34.0387 46.4186 37.0421 42.02 39.8371C41.888 39.9214 41.748 39.993 41.6032 40.0503C39.0993 41.0255 36.8229 41.4693 34.7771 41.377C31.3966 41.2259 28.6414 39.6208 26.5081 36.5617C26.462 36.4949 26.419 36.4265 26.3808 36.3565C25.4757 34.7354 24.9937 32.7342 24.938 30.356V30.2239L25.3468 16.9169H25.3548C25.1464 15.1511 24.7407 13.8705 24.1362 13.0751C24.0312 12.9351 23.9406 12.7855 23.869 12.6281C23.7687 12.4117 23.7003 12.1874 23.6637 11.9551V11.9536C23.4013 10.2912 24.1394 9.32396 25.8766 9.05352L25.9466 9.04239C27.8762 8.799 29.5497 8.70832 30.9671 8.77195Z" fill="url(#paint6_linear_404_2643)"/>
<path d="M34.1118 114.096C37.2488 112.139 40.8106 108.744 38.7569 104.677C36.8638 100.924 32.7516 100.646 29.3107 102.383C29.0196 102.529 28.7269 102.693 28.4374 102.87H28.439C23.2752 106.013 21.0847 111.336 23.8193 116.818C26.7861 122.764 32.2712 126.049 38.6567 127.139C50.6275 129.183 60.8468 128.124 69.0919 124.099L67.1114 124.159C68.341 124.668 69.4641 124.037 69.5739 123.981C71.3174 123.108 75.4981 119.236 81.7722 113.483L83.18 112.193C85.4581 110.106 91.4856 102.644 100.763 89.607C101.21 88.9771 102.896 87.6519 106.438 84.9571C108.666 83.2597 111.441 81.1471 114.689 78.5319C120.758 73.6481 124.065 69.3911 124.7 66.9874L124.565 67.3676V67.366C124.913 66.5992 124.834 65.7068 124.36 65.0116C123.885 64.318 123.082 63.9203 122.242 63.9649L112.934 64.458L113.232 64.4596C108.257 64.1081 105.676 63.9028 105.251 63.8392C102.742 63.4654 107.448 63.4256 107.196 66.402V66.3877C107.01 68.7898 103.868 68.7818 105.186 68.575C106.393 68.3841 107.266 67.3215 107.219 66.0997C107.173 64.8796 106.22 63.8869 105.001 63.7899C101.376 63.502 94.874 61.5644 84.7406 58.518C83.0257 58.0041 81.1645 57.4442 79.2555 56.8747C73.8659 55.268 69.0012 55.5702 65.091 56.302C60.5541 57.1515 55.6751 58.6532 50.4891 60.8644C47.7195 62.0448 41.202 65.8834 31.2801 72.4439L31.2785 72.4454C31.2769 72.4454 31.2865 72.4391 31.2881 72.4391L31.2849 72.4407C30.4577 72.9672 24.2663 75.88 12.1587 81.2744C9.61659 82.407 7.7299 83.7004 6.33954 84.6835C5.76367 85.0923 5.18462 85.5521 4.75033 86.0611V86.0627C4.36376 86.5177 3.21043 88.1323 4.41308 89.8313C4.8951 90.5122 5.55846 90.8303 5.96252 90.9846L5.1878 90.5026C5.69685 90.9751 6.29022 91.1533 6.5368 91.2233C8.24532 91.7037 12.8586 91.691 19.5193 91.6035C20.1016 91.5971 20.8349 91.7896 22.1792 92.1841C22.3621 92.2382 22.5657 92.2986 22.763 92.3559C22.9459 92.4084 22.7852 92.3623 22.9714 92.4164C23.1559 92.4689 23.0032 92.4243 23.1893 92.4784C24.7817 92.9382 26.7018 93.5299 28.7889 94.8885C34.5604 98.6444 39.0639 100.755 41.983 102.123L42.1103 102.182C48.2651 105.066 52.9453 106.003 55.5653 106.19C60.3759 106.53 65.3726 104.648 70.5379 100.607C75.3406 96.8515 78.344 92.4084 78.3838 87.2319C78.4204 82.2798 74.7997 78.158 68.7133 76.0916C62.0049 73.8135 56.1316 74.3846 53.2873 78.4205C53.1218 78.6543 52.9994 78.9152 52.9262 79.192C51.4117 84.9094 54.0922 88.8752 59.8128 90.3897C61.114 90.7349 62.5648 90.9592 64.1493 91.0801C65.476 91.1819 66.6357 90.1877 66.7359 88.8609C66.8377 87.5326 65.8435 86.3745 64.5168 86.2727C63.1518 86.1693 62.0017 85.9816 61.0472 85.7286C57.6015 84.8171 56.8316 83.2804 57.5872 80.4265L57.2277 81.198C58.1297 79.9174 61.0011 78.5637 67.1638 80.6572C72.0444 82.3148 73.578 85.0287 73.5621 87.1954C73.5382 90.3276 71.7565 93.5347 67.5679 96.8102C62.9864 100.393 59.1414 101.608 55.9073 101.379C53.9506 101.241 49.8448 100.483 44.1561 97.8171L44.0288 97.7567C41.1654 96.4156 36.9036 94.416 31.4185 90.8462C28.711 89.0852 26.2214 88.3344 24.5256 87.846C24.4333 87.819 24.392 87.8078 24.3029 87.7824C24.0563 87.7108 24.3442 87.7935 24.0993 87.7235C23.9211 87.671 23.7206 87.6121 23.5393 87.5597C22.4035 87.2256 20.9129 86.7642 19.4557 86.7833C12.2589 86.8772 8.67961 86.8167 7.84285 86.5813C7.73785 86.5527 8.08942 86.6195 8.46167 86.9647C8.23737 86.7563 7.9733 86.5924 7.68695 86.4827C7.6615 86.4731 8.03056 86.5956 8.34713 87.0458C9.2523 88.3232 8.24055 89.4002 8.4219 89.187C8.46167 89.1409 8.6478 88.9564 9.12503 88.6191C10.4406 87.6869 12.0203 86.6147 14.1202 85.6793C25.9669 80.401 32.6546 77.2831 33.8731 76.5084L33.87 76.5099C33.8954 76.494 33.9209 76.4781 33.9415 76.4638L33.9384 76.4654C43.9318 69.8588 50.0834 66.2779 52.3805 65.2996C57.2897 63.2045 61.8315 61.8173 65.9787 61.041C69.4021 60.3999 73.4459 60.174 77.8779 61.496C79.825 62.075 81.594 62.6079 83.3518 63.1361C93.1655 66.0854 100.337 68.2569 104.619 68.5957L104.435 63.8122C105.731 63.607 102.578 63.6038 102.391 66.0122L102.392 65.9963C102.139 68.9855 106.913 68.9616 104.541 68.6084C105.205 68.7071 108.071 68.9282 112.891 69.2702C112.99 69.2766 113.09 69.2782 113.189 69.2718L122.497 68.7786L120.173 65.3775V65.3791L120.037 65.7577C119.842 66.5038 117.718 69.9065 111.667 74.776C108.472 77.3483 105.746 79.4227 103.517 81.1201C100.42 83.4792 97.8329 85.4073 96.8339 86.8104C87.4784 99.9599 81.7515 106.963 79.9237 108.638V108.639L78.5142 109.93C71.7613 116.121 68.3649 119.196 67.4152 119.67C67.0939 119.832 67.9099 119.272 68.9567 119.705C68.3172 119.441 67.5965 119.463 66.9761 119.765C59.8764 123.232 50.7404 124.31 39.468 122.387C34.2406 121.495 30.2668 118.941 28.1335 114.665C26.7273 111.848 27.494 109.088 30.9461 106.987C31.1306 106.875 31.312 106.773 31.4838 106.687C33.5629 105.638 34.2136 106.376 34.4538 106.85C34.4538 106.851 34.9756 107.874 31.5601 110.006C30.4306 110.711 30.0854 112.196 30.7902 113.326C31.4949 114.457 32.9823 114.801 34.1118 114.096Z" fill="url(#paint7_linear_404_2643)"/>
<path d="M26.3264 4.7838C30.0155 4.94924 32.4017 5.25309 33.4866 5.69533C33.6457 5.76055 33.7952 5.83214 33.9352 5.91009H33.9432C35.666 6.47641 37.5829 7.45157 39.6891 8.83398L39.7353 8.86421H39.7337C39.8005 8.91034 39.8657 8.95965 39.9262 9.01056L47.6082 15.5233H47.6145C48.7997 16.3155 49.9466 16.9359 51.057 17.3877C52.2485 17.8729 53.16 18.1481 53.7932 18.2133L53.9173 18.2308C55.1581 18.4265 56.5739 18.5601 58.1679 18.6317C59.7571 18.7017 61.5213 18.7097 63.4621 18.6572C63.5194 18.6556 63.5782 18.6556 63.6355 18.6588C63.6752 18.6604 63.7134 18.6635 63.7532 18.6667C64.8286 18.7669 65.9771 19.0708 67.1957 19.5783C67.2577 19.6037 67.3166 19.6308 67.3755 19.661C69.2367 20.6218 70.6525 22.0154 71.6229 23.8448C71.7199 24.0261 71.7915 24.2202 71.8392 24.4207C72.7715 28.3754 73.5621 30.6821 74.2079 31.3422H74.2159L74.2493 31.3661L85.0429 39.7401L85.1208 39.8021C86.4635 40.9364 87.9636 42.7149 89.6244 45.1393L89.6276 45.1409C92.0297 48.3734 92.5865 52.037 91.3011 56.1317C90.9655 57.1959 89.9601 57.8657 88.8958 57.8179C88.6906 57.8084 88.4838 57.7734 88.2786 57.7082C87.0091 57.3089 86.3028 55.9567 86.7005 54.6857C87.5039 52.134 87.173 49.8894 85.711 47.955L85.6458 47.8627C84.265 45.8472 83.0783 44.4091 82.0824 43.5485H82.0872L71.2952 35.1761H71.2904C71.1107 35.044 70.9389 34.8929 70.7718 34.7243C69.5262 33.4564 68.3458 30.5087 67.2307 25.8794H67.2386C66.7646 25.0824 66.1092 24.4557 65.2708 24.0023H65.2788C64.5916 23.7223 63.9775 23.5489 63.435 23.4805H63.4271C61.4434 23.533 59.6203 23.5203 57.9563 23.4471C56.2048 23.3691 54.6315 23.2212 53.2348 23.0033H53.2428C52.1642 22.8839 50.8311 22.5006 49.2403 21.8547V21.8531C47.7736 21.2566 46.283 20.4468 44.7702 19.4208C44.6986 19.3715 44.6302 19.3205 44.5634 19.2633L36.9466 12.8062H36.9546C35.1347 11.6195 33.5534 10.8241 32.2108 10.4184C31.996 10.3532 31.7908 10.2593 31.6015 10.1368L31.6095 10.1384C30.9397 9.88868 29.3473 9.70733 26.8355 9.59597C26.1482 9.56575 25.3926 9.5403 24.567 9.51962H24.5749C25.3862 10.6745 26.0639 12.0204 26.608 13.5587H26.6143C26.7098 13.7193 26.7973 13.8911 26.8752 14.0741C27.7247 16.0785 27.8011 21.5683 27.1059 30.5468H27.1139C27.2745 31.6349 27.8154 32.8201 28.7381 34.1007L28.746 34.1023C31.5522 36.4917 34.255 37.7436 36.8543 37.8597C38.2192 37.9202 39.5539 37.6689 40.8616 37.1025H40.8695C43.4132 34.9645 44.2611 32.9235 43.4084 30.9795H43.4164C42.7626 30.3289 42.0753 29.9869 41.3563 29.9551C40.4798 29.9153 39.5539 30.3368 38.5788 31.2182C38.2956 31.4743 38.0077 31.7622 37.715 32.082C37.2139 32.6276 36.5171 32.8901 35.8299 32.8599C35.2842 32.836 34.7433 32.626 34.309 32.2283C33.3275 31.3279 33.2623 29.8039 34.1627 28.8224C34.5572 28.3913 34.9517 27.9984 35.3447 27.642C37.5034 25.6901 39.5857 24.7595 41.5933 24.8486C43.5293 24.9345 45.3969 25.9717 47.1945 27.9586C47.3298 28.1081 47.4459 28.2736 47.5397 28.4533C49.8607 32.8678 48.5754 37.0596 43.6836 41.0302C43.5325 41.1543 43.3655 41.2593 43.1873 41.342C40.9984 42.3681 38.7951 42.831 36.5775 42.7324C32.8789 42.5669 29.1405 40.8393 25.3608 37.5495C25.2303 37.435 25.1126 37.3077 25.0092 37.1693C23.4041 35.0106 22.4958 32.8869 22.2874 30.7998C22.273 30.6566 22.2714 30.5134 22.2826 30.3718C22.9205 22.2444 22.9841 17.4704 22.4735 16.0514H22.4814C22.3351 15.851 22.2205 15.6299 22.141 15.396C21.0131 12.0442 19.0676 10.0462 16.3012 9.40031C15.1113 9.12351 14.3174 7.99722 14.4542 6.78344C14.5911 5.56806 15.6155 4.64858 16.8373 4.64222C20.6202 4.62313 23.7827 4.67085 26.3264 4.7838Z" fill="url(#paint8_linear_404_2643)"/>
<path d="M39.3645 43.5389C41.4039 43.6296 43.5403 43.8762 45.7722 44.2802L45.9281 44.3137C52.7065 46.0079 56.5801 49.2865 57.5505 54.1512C57.8114 55.4572 56.9635 56.7267 55.6574 56.9876C55.4618 57.0258 55.2677 57.0401 55.0768 57.0321C53.9951 56.9844 53.0438 56.2049 52.8226 55.0945C52.2531 52.2438 49.5965 50.2171 44.8495 49.0145H44.8575C42.8579 48.655 40.9553 48.4354 39.1513 48.3543C34.2818 48.1379 30.1203 48.9349 26.6683 50.7453H26.6746C22.8837 53.0042 21.2214 56.022 21.6891 59.7969V59.8017C21.8688 61.2764 22.6165 62.7749 23.9337 64.2957H23.9416C25.0234 65.2566 26.0542 65.7593 27.0373 65.8038C27.1344 65.807 27.233 65.807 27.33 65.8022L27.338 65.8038C29.2947 65.3011 30.51 64.2066 30.9857 62.5188H30.9937C30.7391 60.7132 29.7131 59.711 27.9139 59.5138C26.5903 59.369 25.6358 58.1775 25.7806 56.8539C25.9206 55.5845 27.023 54.6539 28.2829 54.7095C28.3354 54.7111 28.3879 54.7159 28.4404 54.7223C32.9758 55.2202 35.4415 57.7957 35.8345 62.4488C35.8551 62.6826 35.8408 62.9181 35.7915 63.1472C34.9643 67.0908 32.4604 69.5533 28.2797 70.5364C28.1763 70.5603 28.0729 70.5778 27.9695 70.5873C27.5702 70.6287 27.1725 70.6398 26.7796 70.6223C24.6209 70.5253 22.5449 69.5629 20.5516 67.7318C20.488 67.673 20.4275 67.6094 20.3703 67.5441C18.3627 65.2534 17.2078 62.8688 16.9039 60.3887C16.1737 54.4852 18.649 49.8656 24.3282 46.5312L24.4284 46.4756C28.6504 44.2612 33.628 43.2828 39.3645 43.5389Z" fill="url(#paint9_linear_404_2643)"/>
<path d="M81.6115 112.57C81.3204 112.557 81.0516 112.607 80.8034 112.72C81.085 112.624 81.3824 112.583 81.6815 112.596C81.9201 112.607 82.1603 112.653 82.3926 112.737C82.1174 112.637 81.8565 112.581 81.6115 112.57ZM73.3982 56.1492C71.3922 56.0585 68.7197 56.1938 65.379 56.5501H65.3853C61.4895 57.3248 58.1297 58.335 55.306 59.5806H55.3124L37.9838 71.1473L37.9917 71.1489C37.9217 71.2062 37.8486 71.2634 37.7706 71.3191C36.2148 72.4438 29.6925 74.9557 18.2022 78.8547H18.2101C14.9522 80.2737 12.5182 81.6434 10.9052 82.9638H10.9131C7.6631 85.9958 5.71278 88.6222 5.06214 90.8446C10.3468 90.0444 14.6515 89.7183 17.9731 89.8663C19.6307 89.9394 21.0433 90.1319 22.2126 90.4421H22.2189C24.9392 90.9019 32.1105 94.4048 43.7314 100.951H43.7393C46.8541 102.263 49.7557 103.135 52.4442 103.565H52.4505C53.2714 103.676 54.0843 103.751 54.8876 103.786C59.5503 103.994 63.9361 102.927 68.0468 100.583H68.0547C73.8102 96.764 76.5925 93.4408 76.4001 90.6139C76.3921 90.4819 76.3937 90.3499 76.4064 90.2178C76.8041 86.1295 74.8156 82.6058 70.4409 79.6469H70.4489C67.805 78.4427 65.3599 77.7889 63.1153 77.6887C60.2805 77.563 57.7654 78.317 55.5669 79.9508H55.5749C54.2386 82.2718 54.5043 84.5593 56.3735 86.8135H56.3814C57.7956 87.9923 59.2433 88.6143 60.7275 88.6811C62.016 88.7384 63.33 88.3773 64.6695 87.5962C65.0847 87.3544 65.5412 87.251 65.9883 87.2701C66.7789 87.3067 67.5377 87.7314 67.9656 88.4664C68.6354 89.6165 68.2456 91.0928 67.0955 91.7625C64.8302 93.0813 62.6189 93.6921 60.4602 93.5967C57.9213 93.4837 55.4572 92.3925 53.0646 90.3228C52.9739 90.2433 52.888 90.1574 52.8101 90.0651C49.2005 85.8431 48.841 81.4859 51.7315 76.9951C51.8747 76.7724 52.0528 76.5751 52.2612 76.4097C55.5065 73.8405 59.1637 72.6458 63.233 72.8272C66.1489 72.9576 69.2796 73.7944 72.6203 75.3391C72.7317 75.39 72.8398 75.4504 72.9432 75.5188C78.9947 79.5404 81.7531 84.5498 81.217 90.5503H81.225C81.3968 95.1604 77.8906 99.8469 70.705 104.611L70.5777 104.689C65.6176 107.551 60.3266 108.857 54.7047 108.606C53.7248 108.563 52.7337 108.471 51.7331 108.332L51.6838 108.326C48.989 107.895 46.143 107.091 43.1412 105.913H43.1332C43.2128 106.514 43.2462 107.146 43.235 107.81C43.2318 107.958 43.2159 108.105 43.1873 108.25C41.9846 114.15 39.2676 117.007 35.0392 116.818C34.7863 116.806 34.527 116.784 34.2629 116.751C32.9409 116.585 32.0056 115.38 32.171 114.059C32.3285 112.804 33.4245 111.896 34.667 111.95C34.7322 111.953 34.7974 111.959 34.8626 111.967C34.931 111.975 34.9994 111.982 35.0663 111.985C36.6332 112.055 37.7468 110.575 38.4085 107.546L38.4149 107.548C38.399 105.343 37.3363 103.851 35.2285 103.068L35.2365 103.07C35.0217 103.051 34.8085 103.037 34.5986 103.027C30.068 102.825 26.6414 104.866 24.3172 109.148H24.3252C23.2339 113.463 25.049 117.815 29.7705 122.209H29.7784C34.2359 124.862 39.3344 126.318 45.0724 126.572C45.7724 126.604 46.4834 126.619 47.2041 126.614H47.2709C55.5733 126.789 62.3485 125.451 67.595 122.599C71.9967 120.123 76.093 117.02 79.8823 113.286C80.0939 113.078 80.3389 112.912 80.603 112.798H80.6109C82.2272 111.337 87.9016 103.988 97.6325 90.7476L97.6484 90.7269C98.8956 89.0677 100.765 87.0219 103.254 84.5928C103.345 84.5037 103.442 84.4225 103.545 84.3494C112.755 77.8303 117.901 73.9407 118.984 72.6824H118.992C119.073 72.517 119.174 72.3611 119.291 72.2179C121.932 69.0108 123.572 66.5308 124.21 64.7825H124.204L111.843 65.982C111.786 65.9867 111.727 65.9899 111.67 65.9915C111.116 66.0058 110.502 65.9963 109.826 65.9676C108.453 65.9056 106.827 65.7545 104.949 65.5143C102.419 65.1929 99.8739 64.6266 97.3111 63.8185L97.2491 63.7978L76.2155 56.5326H76.2235C75.5092 56.329 74.5675 56.2001 73.3982 56.1492ZM73.6162 51.3498C75.2213 51.4214 76.5432 51.6059 77.582 51.9065L77.6997 51.9431L98.824 59.2401H98.8272C101.092 59.9528 103.336 60.4492 105.556 60.7307L105.559 60.7323C107.314 60.9566 108.805 61.0966 110.03 61.1507C110.553 61.1746 111.029 61.1825 111.455 61.1746H111.463L126.526 59.7126C126.641 59.7015 126.755 59.6983 126.868 59.7031C127.885 59.7492 128.78 60.4348 129.073 61.437C129.994 64.5932 128.028 69.1429 123.173 75.0893H123.179C123.098 75.2309 123.003 75.3725 122.894 75.514C121.73 77.0333 116.251 81.26 106.46 88.1943H106.468C104.233 90.3833 102.577 92.1936 101.503 93.6237C91.15 107.707 85.1161 115.415 83.4028 116.744V116.746C83.2294 116.88 83.056 116.994 82.881 117.088L82.8889 117.09C78.8992 120.96 74.5897 124.197 69.9589 126.801L69.9303 126.816C63.9345 130.086 56.3528 131.625 47.1866 131.434H47.1945C46.4007 131.439 45.618 131.424 44.8449 131.389C38.197 131.093 32.2664 129.361 27.0518 126.195C26.915 126.113 26.7893 126.017 26.6716 125.911C20.2766 120.039 17.9699 113.927 19.7548 107.575C19.8009 107.413 19.863 107.255 19.9425 107.104C22.2985 102.626 25.5055 99.8326 29.5621 98.727H29.57C25.2415 96.4935 22.5355 95.3179 21.4522 95.2002C21.3201 95.1859 21.1913 95.162 21.064 95.1254C20.1604 94.8741 19.0326 94.7182 17.6804 94.6578C14.2252 94.5034 9.30959 94.9759 2.93206 96.0736C2.75707 96.1038 2.58367 96.1149 2.41346 96.107C1.32058 96.0577 0.366089 95.2638 0.154526 94.1455C-0.677475 89.7326 1.85031 84.7948 7.73787 79.332L7.84923 79.2349C9.82977 77.6123 12.6853 75.9929 16.4157 74.3782C16.4761 74.3512 16.5366 74.3273 16.5986 74.3066C27.475 70.6176 33.5693 68.3332 34.8817 67.4566H34.8897C34.9867 67.366 35.0917 67.2816 35.2031 67.2085L52.8244 55.4445C52.9373 55.3697 53.055 55.3045 53.1775 55.2488C56.3941 53.8107 60.1914 52.6606 64.5693 51.7968C64.6377 51.7841 64.7077 51.7729 64.7777 51.765C68.3267 51.3832 71.2745 51.2448 73.6162 51.3498Z" fill="#FEFEFE"/>
<path d="M24.9586 0.0257518C26.5924 0.0989289 28.2484 0.328004 29.9251 0.712978L30.0269 0.738431C33.0781 1.58156 35.5677 2.62989 37.4973 3.88026H37.5053C37.6023 3.92163 37.7009 3.96935 37.7996 4.02185C38.964 4.6343 42.1886 7.25436 47.4748 11.8772H47.4828C48.5693 12.6742 49.5063 13.2374 50.2937 13.5651C51.393 14.02 54.0798 14.3414 58.3527 14.5323C60.0437 14.607 61.9829 14.6627 64.1719 14.6961C64.1941 14.6961 64.218 14.6977 64.2403 14.6977C64.3007 14.7009 64.3596 14.7057 64.42 14.7136C66.3242 14.9411 67.9468 15.3961 69.2879 16.0801C71.7998 17.3448 73.7087 19.117 75.0116 21.3998H75.0148C75.0371 21.4364 75.0593 21.4745 75.0816 21.5127C75.7911 22.7535 76.4815 25.6711 77.156 30.2653L77.164 30.2669C77.3533 30.795 77.6014 31.2261 77.9069 31.5618L77.9244 31.5793C78.1868 31.8736 78.4414 32.0947 78.6848 32.2411H78.6927C82.9783 34.0339 85.5872 35.2922 86.5163 36.016C86.6801 36.1433 86.8265 36.2769 86.9553 36.4137H86.9633C89.8458 38.6918 91.8359 40.8728 92.932 42.9535H92.9336C96.1359 48.6247 96.4652 54.051 93.9231 59.2338C93.4888 60.1215 92.5788 60.6226 91.6498 60.5812C91.3285 60.5669 91.0055 60.4874 90.6969 60.3362C89.5022 59.7492 89.0091 58.3064 89.5945 57.1101C91.3984 53.4337 91.101 49.4854 88.7036 45.2682L88.667 45.1997C87.8653 43.6789 86.2379 41.9609 83.7817 40.0456C83.6783 39.966 83.5828 39.8769 83.4938 39.7799H83.5001C82.8224 39.2915 80.5476 38.24 76.6756 36.6237C76.5992 36.5919 76.5245 36.5569 76.4529 36.5172C75.7036 36.1099 75.0021 35.542 74.3466 34.8118C73.5258 33.913 72.9102 32.8154 72.4981 31.5189C72.46 31.3932 72.4297 31.2659 72.4106 31.1371C71.822 27.0789 71.3193 24.6752 70.9057 23.9244H70.9073L70.8262 23.7907C70.0006 22.3479 68.7629 21.212 67.1101 20.3832L67.0958 20.3753C66.2908 19.9649 65.2488 19.6769 63.9683 19.5147H63.9619C62.0354 19.4844 60.276 19.4335 58.6868 19.3619C53.4578 19.1281 50.0424 18.6811 48.4436 18.0177L48.4404 18.0161C47.2585 17.5246 45.9413 16.7387 44.4873 15.6602C44.4364 15.622 44.3855 15.5806 44.3378 15.5377C39.4906 11.2982 36.5937 8.89765 35.6472 8.33928L35.6552 8.34087C35.4452 8.27088 35.2431 8.17225 35.0586 8.04817C33.5458 7.02528 31.4666 6.14557 28.8227 5.40743L28.8306 5.40903C27.4562 5.09246 26.1008 4.90633 24.7629 4.84588C21.9631 4.7218 19.246 5.15609 16.6085 6.15193L16.5305 6.17897C16.3222 6.25056 16.1106 6.32692 15.8974 6.40646H15.9054C18.7783 7.58524 21.1057 9.47989 22.8906 12.0888H22.8985C23.1785 12.3576 23.4203 12.6901 23.6255 13.0846C24.6293 15.0286 25.2227 20.8143 25.4056 30.4403L25.4136 30.4419C25.7333 32.3556 26.4762 34.0498 27.6407 35.5197L27.7059 35.6072C29.2538 37.7548 31.3743 39.1261 34.066 39.721L34.1312 39.7353C35.0634 39.9692 35.932 40.1028 36.7385 40.1394C38.4597 40.2158 39.8931 39.8435 41.0368 39.0211L41.0384 39.0227C45.5213 35.5993 47.0294 32.2761 45.5595 29.0515H45.5675C44.7148 27.8171 43.6394 27.1712 42.3397 27.1139C42.0263 27.0996 41.7018 27.1203 41.363 27.1744H41.3709C39.3665 27.8314 38.2259 28.9449 37.9475 30.5166C37.7327 31.7209 36.659 32.5576 35.469 32.5036C35.364 32.4988 35.2591 32.4877 35.1525 32.4686C33.8416 32.2363 32.9667 30.9859 33.199 29.6751C33.8273 26.134 36.126 23.7494 40.0967 22.5197C40.1889 22.4911 40.2828 22.4688 40.3783 22.4513C41.2102 22.3002 42.0041 22.2413 42.7613 22.2747C45.5738 22.4004 47.8693 23.8035 49.6494 26.484C49.7083 26.5715 49.7608 26.6621 49.8069 26.7576C52.5718 32.4049 50.6246 37.7707 43.9639 42.8549L43.9242 42.8835C41.8561 44.3964 39.4031 45.09 36.5683 44.9627C35.4468 44.9134 34.2648 44.7352 33.0224 44.4282H33.0272C29.1726 43.5771 26.1167 41.6045 23.8578 38.5136H23.861C22.1238 36.3199 21.0405 33.8001 20.6125 30.9557C20.5982 30.8507 20.5887 30.7457 20.5871 30.6407C20.428 22.0663 20.0399 17.0123 19.4226 15.4772L19.4306 15.4788C19.2938 15.3484 19.1713 15.202 19.0663 15.0429C16.9267 11.7643 13.5001 10.0144 8.78652 9.79487C7.74296 9.74555 6.85052 9.03128 6.57531 8.0243C6.29851 7.01733 6.70257 5.94672 7.57592 5.37244C10.161 3.67346 12.6029 2.42945 14.9032 1.64042H14.9063C18.1659 0.410726 21.5177 -0.128556 24.9586 0.0257518Z" fill="#FEFEFE"/>
<path d="M38.5154 39.8292C41.3296 39.9549 44.0737 40.4417 46.751 41.2912H46.7574C53.3449 43.1397 57.8262 47.2694 60.1997 53.6819C60.6626 54.9307 60.0247 56.3179 58.7775 56.7792C58.4657 56.8954 58.1459 56.9415 57.8325 56.9288C56.894 56.8858 56.0254 56.294 55.6786 55.3571C53.8651 50.4574 50.4305 47.3092 45.3798 45.9125L45.2923 45.887C43.0333 45.1712 40.7076 44.7591 38.3134 44.6526C34.2266 44.4696 29.9426 45.1759 25.4613 46.7699H25.4693C23.748 47.6242 22.2113 49.3931 20.856 52.0784H20.8575C19.219 55.5702 18.5557 58.4209 18.8643 60.6322L18.8818 60.7833C19.2302 65.368 21.8868 67.8083 26.8533 68.101C30.8828 67.3724 33.0924 65.3791 33.4806 62.118H33.4901C33.4201 61.173 33.2928 60.3394 33.1051 59.6188C32.612 57.7178 31.5334 56.7299 29.8678 56.6552C29.3142 56.6313 28.6954 56.7076 28.0114 56.8842C27.7728 56.9463 27.5325 56.9701 27.2987 56.959C26.2695 56.9129 25.3452 56.205 25.0732 55.155C24.7391 53.8665 25.5138 52.5509 26.8024 52.2168C28.215 51.8509 29.5004 51.6934 30.6585 51.7443C34.2903 51.9066 36.6622 54.1274 37.7725 58.4082C38.0446 59.4613 38.2243 60.6433 38.3102 61.9541C38.3198 62.0798 38.3182 62.2071 38.3055 62.3327C37.7598 68.268 34.1216 71.79 27.391 72.9004C27.2255 72.9275 27.0585 72.9386 26.8915 72.9306C26.8867 72.9306 26.8803 72.9306 26.874 72.9291C18.9645 72.5775 14.7011 68.7007 14.0855 61.3003H14.0903C13.6464 58.1282 14.4577 54.3501 16.5226 49.9642L16.5512 49.907C18.4363 46.1702 20.7669 43.6503 23.5396 42.3475C23.608 42.3157 23.6796 42.287 23.7512 42.26C28.8672 40.429 33.7892 39.6193 38.5154 39.8292Z" fill="#FEFEFE"/>
<defs>
<linearGradient id="paint0_linear_404_2643" x1="79.4919" y1="85.2114" x2="61.1293" y2="116.147" gradientUnits="userSpaceOnUse">
<stop stop-color="#0063B5"/>
<stop offset="1" stop-color="#5DCC6C"/>
</linearGradient>
<linearGradient id="paint1_linear_404_2643" x1="36.6172" y1="111.09" x2="30.7732" y2="117.353" gradientUnits="userSpaceOnUse">
<stop stop-color="#0063B5"/>
<stop offset="1" stop-color="#5DCC6C"/>
</linearGradient>
<linearGradient id="paint2_linear_404_2643" x1="65.2014" y1="28.3391" x2="50.7108" y2="49.7556" gradientUnits="userSpaceOnUse">
<stop stop-color="#0063B5"/>
<stop offset="1" stop-color="#5DCC6C"/>
</linearGradient>
<linearGradient id="paint3_linear_404_2643" x1="42.977" y1="56.1156" x2="37.066" y2="67.2867" gradientUnits="userSpaceOnUse">
<stop stop-color="#0063B5"/>
<stop offset="1" stop-color="#5DCC6C"/>
</linearGradient>
<linearGradient id="paint4_linear_404_2643" x1="81.3031" y1="85.5377" x2="62.8759" y2="121.133" gradientUnits="userSpaceOnUse">
<stop stop-color="#0063B5"/>
<stop offset="1" stop-color="#5DCC6C"/>
</linearGradient>
<linearGradient id="paint5_linear_404_2643" x1="43.343" y1="55.2756" x2="36.4238" y2="67.6812" gradientUnits="userSpaceOnUse">
<stop stop-color="#0063B5"/>
<stop offset="1" stop-color="#5DCC6C"/>
</linearGradient>
<linearGradient id="paint6_linear_404_2643" x1="66.0759" y1="28.6557" x2="49.882" y2="52.7041" gradientUnits="userSpaceOnUse">
<stop stop-color="#0063B5"/>
<stop offset="1" stop-color="#5DCC6C"/>
</linearGradient>
<linearGradient id="paint7_linear_404_2643" x1="154.098" y1="-3.60602" x2="-39.1454" y2="6.70054" gradientUnits="userSpaceOnUse">
<stop stop-color="#0063B5"/>
<stop offset="1" stop-color="#5DCC6C"/>
</linearGradient>
<linearGradient id="paint8_linear_404_2643" x1="110.776" y1="-38.9048" x2="-13.237" y2="-33.1267" gradientUnits="userSpaceOnUse">
<stop stop-color="#0063B5"/>
<stop offset="1" stop-color="#5DCC6C"/>
</linearGradient>
<linearGradient id="paint9_linear_404_2643" x1="67.4961" y1="21.2854" x2="2.21823" y2="24.4241" gradientUnits="userSpaceOnUse">
<stop stop-color="#0063B5"/>
<stop offset="1" stop-color="#5DCC6C"/>
</linearGradient>
</defs>
</svg>
