<svg width="111" height="88" viewBox="0 0 111 88" fill="none" xmlns="http://www.w3.org/2000/svg">
<path d="M70.3435 45.8004C68.6964 45.6355 67.0547 45.7843 65.429 45.6248C65.1411 45.5981 64.8586 45.5553 64.5814 45.5018C68.2854 45.3156 71.83 43.9896 74.5911 41.4329C75.0599 40.9962 75.5019 40.5328 75.8754 40.0106C75.9236 39.9464 76.1579 39.5793 76.2436 39.4776C76.2757 39.499 76.312 39.5365 76.3281 39.5525C76.4619 39.6756 76.5946 39.7976 76.7284 39.9142C76.7658 39.9464 76.8033 39.9785 76.8397 40.0106C76.8557 40.0266 76.8718 40.0373 76.8878 40.0534C76.9681 40.1229 77.0537 40.1968 77.1329 40.2663C77.165 40.2931 77.1918 40.3145 77.2239 40.3413C77.2613 40.3734 77.2934 40.399 77.3309 40.4312C77.4047 40.4954 77.485 40.5542 77.5599 40.6174C77.576 40.6281 77.5867 40.6388 77.6027 40.6495C77.6552 40.6923 77.7033 40.7297 77.7568 40.7672C77.8692 40.8517 77.9805 40.9374 78.0982 41.023C78.1196 41.039 78.141 41.0551 78.1624 41.0701C78.2791 41.1503 78.3968 41.2306 78.5135 41.3098C78.5616 41.3419 78.6098 41.374 78.6633 41.4061C78.7586 41.4703 78.8602 41.5281 78.9619 41.587C79.0143 41.6191 79.0678 41.6512 79.1267 41.6833C79.436 41.8588 79.7667 42.0236 80.1177 42.1788C80.2569 42.2366 80.3896 42.2954 80.5287 42.349C80.5769 42.365 80.6186 42.3811 80.6667 42.4025C81.0938 42.5566 81.5251 42.6839 81.9831 42.7856C82.0848 42.807 82.6392 42.9183 82.7248 42.9879C82.7034 43.1687 81.9564 43.9521 81.8451 44.0688C80.2783 45.7629 78.5777 46.9776 76.5207 47.9836C75.8058 47.5416 75.092 47.1638 74.3568 46.8492C74.3033 46.8277 74.2551 46.8063 74.2016 46.786C74.0261 46.7111 73.8452 46.6415 73.6686 46.5773C73.6055 46.5516 73.5359 46.5302 73.4663 46.5035C73.3122 46.45 73.1571 46.4018 73.0029 46.3536C72.8959 46.3226 72.79 46.2905 72.6829 46.2584C72.5342 46.2156 72.379 46.1781 72.2249 46.1407C72.1393 46.1193 72.0537 46.0989 71.9691 46.0775C71.9317 46.0668 71.8942 46.0615 71.8567 46.0561C71.7026 46.024 71.5528 45.9919 71.3987 45.9652C71.3505 45.9545 71.3024 45.9491 71.2542 45.9384C71.2168 45.9331 71.1857 45.9277 71.1483 45.9224C71.1269 45.917 71.1055 45.917 71.084 45.9117C70.8443 45.8592 70.5939 45.8271 70.3435 45.8004ZM60.5574 18.1463C64.0163 19.3343 65.6581 23.1581 69.9593 21.8321C71.1964 21.449 72.3094 20.6025 73.0511 19.5419C73.6793 18.6418 74.117 17.4539 73.8238 16.357C73.6633 15.7502 73.3015 15.2654 72.7953 14.8972C72.3416 14.5622 71.7444 14.3867 71.1911 14.3439C69.666 14.2208 68.355 15.0042 68.6643 16.693C68.9415 18.1945 69.6232 17.7204 70.5564 17.0868C70.5939 17.0654 70.626 17.044 70.6635 17.028C70.6838 17.0173 70.7105 17.0066 70.7319 17.0012C70.7533 16.9959 70.7748 16.9852 70.7908 16.9852C70.8122 16.9798 70.8336 16.9745 70.8604 16.9745C70.8818 16.9745 70.9032 16.9691 70.9192 16.9691C70.9396 16.9691 70.961 16.9691 70.9824 16.9691C71.0038 16.9691 71.0198 16.9745 71.0412 16.9798C71.0626 16.9852 71.084 16.9905 71.1001 16.9959C71.1215 17.0012 71.1376 17.0066 71.1536 17.0173C71.1697 17.0226 71.1911 17.0333 71.2061 17.044C71.2221 17.0547 71.2382 17.0654 71.2596 17.0761C71.2756 17.0868 71.2917 17.0975 71.3077 17.1082C71.3238 17.1189 71.3398 17.135 71.3559 17.1511C71.3719 17.1618 71.3826 17.1778 71.3987 17.1928C71.4147 17.2088 71.4254 17.2249 71.4361 17.2409C71.4469 17.257 71.4576 17.2731 71.4683 17.2891C71.4779 17.3052 71.4886 17.3266 71.4993 17.348C71.51 17.364 71.5153 17.3801 71.526 17.3961C71.5368 17.4165 71.5421 17.4379 71.5474 17.4593C71.5528 17.4753 71.5582 17.4914 71.5635 17.5128C71.5689 17.5342 71.5742 17.5556 71.5742 17.577C71.5742 17.593 71.5796 17.6145 71.5796 17.6305C71.5796 17.6508 71.5796 17.6776 71.5796 17.699C71.5796 17.715 71.5796 17.7311 71.5742 17.7525C71.5689 17.7739 71.5635 17.8007 71.5582 17.8221C71.5528 17.8381 71.5528 17.8542 71.5474 17.8692C71.5368 17.8906 71.526 17.9173 71.5153 17.9387C71.51 17.9548 71.5046 17.9708 71.4939 17.9815C71.4779 18.0083 71.4576 18.0297 71.4361 18.0564C71.4254 18.0671 71.4201 18.0778 71.4094 18.0886C71.3773 18.1196 71.3398 18.1517 71.2917 18.1838C70.5939 18.6579 69.8105 19.0892 69.0849 19.0196C69.0581 19.0196 69.0324 19.0153 69.0057 19.01C68.9468 18.9993 68.8933 18.9886 68.8398 18.9725C68.8291 18.9672 68.8184 18.9672 68.8077 18.9672C68.7446 18.9458 68.675 18.919 68.6108 18.8923C68.5894 18.8816 68.5733 18.8709 68.5519 18.8602C68.5102 18.8388 68.462 18.812 68.4192 18.781C68.3978 18.7649 68.3711 18.7489 68.3496 18.7328C68.3068 18.7007 68.2694 18.6686 68.2276 18.6311C68.2062 18.6097 68.1848 18.5937 68.1634 18.5723C68.1206 18.5305 68.0778 18.4877 68.0404 18.4396C68.0243 18.4182 68.0029 18.3968 67.9868 18.3754C67.9291 18.3015 67.8702 18.2266 67.8167 18.1356C67.2463 17.2409 67.135 16.0316 67.5234 15.047C68.0297 13.7681 69.208 13.156 70.5297 13.0543C70.6527 13.0447 70.7694 13.0393 70.8871 13.0393C70.9246 13.0393 70.9663 13.0393 71.0038 13.0393C71.084 13.0393 71.1643 13.0393 71.2435 13.0447C71.2917 13.049 71.3345 13.049 71.3826 13.0543C71.4522 13.0597 71.526 13.065 71.5956 13.0757C71.6438 13.0811 71.6919 13.0918 71.7401 13.0971C71.8086 13.1078 71.8781 13.1185 71.9424 13.1346C71.9905 13.1453 72.0376 13.156 72.0858 13.1667C72.15 13.1827 72.2195 13.1988 72.2827 13.2202C72.3308 13.2363 72.379 13.2523 72.4272 13.263C72.4914 13.2833 72.5545 13.3047 72.6134 13.3315C72.6615 13.3476 72.7097 13.369 72.7579 13.3904C72.8157 13.4171 72.8745 13.4439 72.9387 13.4706C72.9869 13.492 73.035 13.5177 73.0768 13.5391C73.1678 13.5873 73.2534 13.6354 73.339 13.689C73.3443 13.5284 73.3593 13.3797 73.3754 13.2256C73.3754 13.2202 73.3754 13.2149 73.3754 13.2149C73.3807 13.1774 73.3861 13.1346 73.3914 13.0971C73.4128 12.9805 73.4342 12.8574 73.461 12.7461C73.4663 12.7301 73.4663 12.714 73.4717 12.6979C73.4771 12.6819 73.4824 12.6605 73.4824 12.6444C73.5199 12.5117 73.5573 12.3833 73.6055 12.2559C73.6055 12.2506 73.6108 12.2452 73.6108 12.2399C73.6215 12.2185 73.6258 12.1917 73.6365 12.1703C73.6419 12.1596 73.6472 12.1489 73.6526 12.1382C73.6954 12.0269 73.7435 11.9199 73.797 11.814C73.8131 11.7819 73.8238 11.7551 73.8399 11.723C73.8452 11.7123 73.8506 11.7069 73.8559 11.6962C73.9137 11.5849 73.9726 11.4779 74.0368 11.372C74.0528 11.3506 74.0635 11.3292 74.0796 11.3078C74.0849 11.297 74.0956 11.2863 74.101 11.2756C74.1695 11.1697 74.2444 11.0627 74.3193 10.9567L74.3247 10.9514C74.3461 10.9193 74.3728 10.8925 74.3942 10.8604C74.4681 10.7641 74.5483 10.6742 74.6286 10.5832C74.6339 10.5779 74.6393 10.5725 74.6447 10.5672C74.6661 10.5458 74.6821 10.5244 74.7024 10.504C74.7934 10.4024 74.8951 10.306 74.9957 10.2108C75.0224 10.1894 75.0438 10.1626 75.0706 10.1412C75.0706 10.1412 75.076 10.1412 75.076 10.1359L75.0813 10.1305C75.1776 10.046 75.2729 9.96037 75.3745 9.87475C75.4013 9.85335 75.428 9.83301 75.4548 9.81161C75.4602 9.80626 75.4655 9.80091 75.4709 9.79556C75.5768 9.70994 75.6892 9.62432 75.8058 9.54513C75.8326 9.52373 75.8593 9.50767 75.8914 9.48627C76.0038 9.406 76.1205 9.33216 76.2382 9.2626C76.2436 9.25725 76.2489 9.25725 76.2543 9.25189C76.281 9.23584 76.312 9.21979 76.3388 9.19838C76.4565 9.12989 76.5689 9.06568 76.6909 9.00147C76.6963 8.99612 76.7016 8.99612 76.707 8.99076C76.7123 8.98541 76.723 8.98541 76.7284 8.98006C76.7498 8.96936 76.7712 8.95866 76.7979 8.94261C76.9253 8.87411 77.0537 8.8099 77.1864 8.75104C77.2185 8.73499 77.2453 8.72428 77.2774 8.70823C77.4047 8.65044 77.5332 8.59693 77.6659 8.54342C77.6926 8.53272 77.7194 8.52202 77.7461 8.51131C77.7515 8.50596 77.7622 8.50596 77.7675 8.50061C77.912 8.44817 78.0554 8.39466 78.1988 8.3465C78.2095 8.34115 78.2149 8.34115 78.2256 8.3358C78.2363 8.33045 78.247 8.33045 78.2523 8.3251C78.3968 8.27694 78.5349 8.23413 78.6794 8.19775C78.7008 8.19239 78.7222 8.18704 78.7425 8.18169C78.7853 8.17099 78.8335 8.15494 78.8763 8.14424C78.9084 8.13353 78.9458 8.12818 78.978 8.11748C79.0143 8.10678 79.0571 8.09608 79.0946 8.09072C79.1321 8.08002 79.1695 8.07467 79.2123 8.06397C79.2391 8.05862 79.2701 8.05327 79.2969 8.04257C79.3504 8.03186 79.3985 8.02116 79.4521 8.01046C79.5109 7.99976 79.5634 7.99013 79.6222 7.97942C79.6704 7.96872 79.7239 7.96337 79.772 7.95267C79.7977 7.94732 79.8245 7.94197 79.8512 7.94197C79.8941 7.93662 79.9315 7.93126 79.9743 7.92056C80.0332 7.90986 80.0963 7.90451 80.1552 7.89381C80.2141 7.88846 80.2676 7.87776 80.3264 7.8724C80.3842 7.86705 80.4431 7.85635 80.5073 7.851C80.5661 7.84565 80.6239 7.8403 80.6775 7.83495C80.7363 7.8296 80.7952 7.82424 80.854 7.82424C80.9118 7.81889 80.976 7.81889 81.0349 7.81889C81.0884 7.81889 81.1409 7.81354 81.1944 7.81354C81.5465 7.80819 81.8879 7.82424 82.2175 7.8617C82.2442 5.48585 81.7166 4.71424 79.2594 4.19198C78.2898 3.98436 77.3255 3.92015 76.3442 3.80885C75.5179 3.71253 74.6339 3.56912 73.9137 3.12713C73.6847 2.988 73.4771 2.81784 73.2908 2.62092L73.2748 2.60487C72.8157 2.10937 72.5492 1.52932 72.4325 0.869004C72.4111 0.756633 72.363 0.234374 72.3255 0C71.9531 0.0642121 71.3612 0.293235 71.0947 0.42594C70.2953 0.810143 69.5975 1.39019 69.1973 2.20033C68.9201 2.76433 68.7606 3.32405 68.6322 3.9362C68.5252 4.43706 68.4353 4.96467 68.2169 5.42806C67.6305 6.68448 66.1482 7.11577 64.9014 7.3876C62.5726 7.89381 61.9808 8.40001 61.4371 10.7224L61.4318 10.7491C61.267 11.4362 60.9951 12.043 60.4354 12.501C60.0512 12.8103 59.5825 13.0126 59.134 13.2149C58.5486 13.476 57.9996 13.7318 57.4506 14.0721C55.9469 15.0042 54.9934 16.724 55.3562 18.4877C56.8374 17.7043 59.0174 17.6198 60.5574 18.1463ZM79.9583 9.24119C78.2256 9.53978 76.5047 10.3917 75.4441 11.6331C73.4556 13.9661 75.4334 18.5573 78.7639 17.4967C79.7667 17.1821 80.5287 16.4854 80.411 15.366C80.3468 14.7377 79.8941 13.8324 79.2123 13.705C78.9619 13.6568 78.6152 13.705 78.3647 13.8377C78.3647 13.8377 78.3647 13.8377 78.3647 13.8324C78.3594 13.8377 78.354 13.8377 78.3487 13.8431C78.2898 13.8752 78.2416 13.9073 78.1935 13.9447C77.896 14.2101 78.1624 15.3874 77.2239 15.2386C77.0377 15.2065 76.9039 15.1262 76.814 15.0096C76.8086 14.9989 76.8033 14.9882 76.7926 14.9775C76.7712 14.9507 76.7551 14.9186 76.7444 14.8919C76.7391 14.8769 76.7337 14.8608 76.723 14.8448C76.7123 14.818 76.7016 14.7859 76.6963 14.7592C76.6909 14.7431 76.6855 14.7217 76.6855 14.7056C76.6802 14.6735 76.6749 14.6425 76.6749 14.605C76.6749 14.589 76.6695 14.5676 76.6695 14.5515C76.6695 14.5034 76.6695 14.4606 76.6695 14.4135C76.6695 14.4081 76.6695 14.4028 76.6695 14.3921C76.6749 14.3386 76.6802 14.2797 76.6909 14.2262C76.6963 14.2101 76.6963 14.1898 76.7016 14.1738C76.707 14.1363 76.7177 14.0935 76.7284 14.0507C76.7337 14.0293 76.7391 14.0079 76.7444 13.9918C76.7551 13.9554 76.7658 13.9126 76.7819 13.8752C76.7872 13.8538 76.7926 13.8377 76.8033 13.8163C76.8193 13.7735 76.8354 13.7318 76.8504 13.689C76.8557 13.6782 76.8611 13.6622 76.8664 13.6515C76.8878 13.598 76.9146 13.5445 76.9413 13.492C76.9467 13.4813 76.952 13.4706 76.9574 13.4599C76.9788 13.4171 77.0002 13.3797 77.0216 13.3422C77.0323 13.3262 77.043 13.3101 77.0484 13.294C77.0698 13.263 77.0858 13.2309 77.1072 13.2041C77.1168 13.1881 77.1275 13.172 77.1383 13.1613C77.1597 13.1346 77.1811 13.1078 77.2025 13.0811C77.2132 13.0704 77.2239 13.0597 77.2292 13.049C77.2613 13.0179 77.2881 12.9858 77.3202 12.9591C77.4154 12.8735 77.5225 12.7943 77.6295 12.7301C78.1196 12.4261 78.6366 12.3202 79.1374 12.3726C79.2337 12.3833 79.3343 12.3994 79.4306 12.4208C79.4574 12.4261 79.4788 12.4315 79.5056 12.4422C79.5741 12.4582 79.6436 12.4796 79.7132 12.5064C79.7453 12.5171 79.772 12.5278 79.7977 12.5385C79.8619 12.5652 79.9262 12.5909 79.9904 12.623C80.0171 12.6337 80.0439 12.6498 80.0653 12.6605C80.1498 12.7033 80.2301 12.7515 80.3104 12.805C80.3104 12.805 80.3157 12.805 80.3157 12.8103C80.3949 12.8628 80.4752 12.927 80.5554 12.9912C80.5769 13.0126 80.5983 13.0286 80.6239 13.049C80.6775 13.0971 80.731 13.1453 80.7791 13.1988C80.8059 13.2256 80.8273 13.247 80.8487 13.2737C80.8958 13.3262 80.9439 13.3797 80.9867 13.4385C81.0081 13.4653 81.0242 13.4867 81.0456 13.5124C81.1045 13.598 81.1623 13.6836 81.2158 13.7681C82.9003 13.4278 84.6747 15.1904 85.1756 16.6823C85.411 17.3854 85.4795 18.0404 85.4795 18.7756C85.4795 19.0731 85.4367 19.6703 85.5919 19.9261C85.6133 19.9625 85.64 19.9999 85.6775 20.0267C85.6989 20.0427 85.7192 20.0588 85.746 20.0748C85.7567 20.0802 85.7674 20.0855 85.7781 20.0909C85.7941 20.1016 85.8156 20.107 85.837 20.1177C85.853 20.123 85.8637 20.1284 85.8798 20.1337C85.9012 20.1391 85.9172 20.1498 85.9386 20.1551C85.9547 20.1605 85.975 20.1658 85.9911 20.1658C86.0125 20.1701 86.0339 20.1754 86.0553 20.1808C86.0767 20.1861 86.0927 20.1861 86.1141 20.1915C86.1355 20.1968 86.1623 20.1968 86.1837 20.2022C86.2051 20.2076 86.2265 20.2076 86.2468 20.2076C86.2736 20.2129 86.295 20.2129 86.3218 20.2183C86.3432 20.2183 86.3646 20.2236 86.3913 20.2236C86.4181 20.2236 86.4448 20.229 86.4716 20.229C86.493 20.229 86.5133 20.229 86.5347 20.2343C86.5615 20.2343 86.5936 20.2397 86.6204 20.2397C86.6418 20.2397 86.6632 20.2397 86.6846 20.2397C86.7167 20.2397 86.7434 20.2397 86.7745 20.245C86.7959 20.245 86.8119 20.245 86.8333 20.245C86.8654 20.245 86.8975 20.245 86.9296 20.245C86.9457 20.245 86.9617 20.245 86.9778 20.245C87.0153 20.245 87.0463 20.245 87.0838 20.245C87.0945 20.245 87.1052 20.245 87.1159 20.245C87.2336 20.245 87.3395 20.245 87.4359 20.245H87.4412C87.468 20.245 87.4947 20.245 87.5215 20.245C87.5375 20.245 87.5482 20.245 87.5643 20.245C87.5793 20.245 87.5953 20.245 87.6114 20.245C87.6328 20.245 87.6595 20.245 87.6756 20.245C87.8725 20.2504 88.0651 20.2611 88.2567 20.2771C88.2942 20.2825 88.3263 20.2825 88.3637 20.2878C88.4001 20.2932 88.4322 20.2932 88.4697 20.2985C88.5928 20.3092 88.7094 20.3253 88.8325 20.3413C88.8967 20.352 88.9545 20.3574 89.0187 20.3681C89.1578 20.3895 89.2905 20.4152 89.4297 20.4419C89.4768 20.4526 89.5249 20.4633 89.5784 20.474C89.7593 20.5168 89.9359 20.5596 90.1167 20.6132C90.5694 20.7459 91.0179 20.916 91.4706 21.1236C91.4545 19.665 90.6711 16.9959 90.1756 15.7769C89.2263 13.4546 87.2924 11.3238 84.9947 10.1198C83.4761 9.31611 81.6685 8.94261 79.9583 9.24119ZM59.9602 64.469C62.8766 63.1794 65.184 62.6475 67.5074 60.2556C67.6198 60.1378 67.7578 60.0158 67.8113 59.8617C67.8541 59.728 68.0457 59.622 68.1581 59.5524C68.4567 59.3448 69.8319 57.2355 70.1198 56.7774C71.281 54.9613 72.1767 53.6514 74.0154 52.442C74.9539 51.8245 75.9717 51.3397 77.0698 51.0786C77.3833 51.0037 77.698 50.9502 78.018 50.9084C78.0661 50.9031 78.1881 50.887 78.2898 50.871C78.2309 50.8175 78.1678 50.764 78.1357 50.7372C76.7658 49.5867 74.7346 48.3036 73.0458 47.7128C71.4469 47.1531 69.8051 47.0675 68.126 47.0311C66.5645 46.9936 64.9228 47.0097 63.4095 46.5677C63.0093 46.45 62.6251 46.3066 62.2526 46.1193C60.8346 45.4226 59.545 44.1597 58.25 43.2329C56.4275 41.9284 54.6199 41.1824 52.3767 40.9374C50.4792 40.7297 48.7412 40.9802 46.8597 41.0915C44.851 41.2145 43.1557 41.0604 41.2743 40.2663C39.563 39.5472 37.9802 38.5455 36.2914 37.7738C34.4517 36.9369 32.6719 36.4735 30.6417 36.6555C27.2192 36.953 25.2532 39.3502 24.8904 42.6582C24.5864 45.4172 25.1943 46.9187 27.2406 48.783C28.131 49.5921 29.4367 50.5456 30.6738 50.6526C32.048 50.7693 33.7593 50.3915 34.7075 49.3267C35.7049 48.2072 35.7638 47.0364 35.6621 45.6088C35.6139 44.9431 35.0275 44.2507 34.5373 43.8344C34.0364 43.4085 32.9063 42.6946 32.2299 43.0788C31.6541 43.4031 30.982 44.2186 31.4144 44.8896C31.515 45.0491 31.6595 45.2032 31.7708 45.3691C31.7868 45.3905 31.8029 45.4172 31.8136 45.4429C31.8297 45.4697 31.8457 45.4964 31.8618 45.5232C31.8725 45.5446 31.8832 45.566 31.8939 45.5874C31.9046 45.6141 31.9206 45.6409 31.9313 45.6666C31.942 45.688 31.9474 45.7147 31.9581 45.7361C31.9688 45.7629 31.9795 45.7897 31.9848 45.8111C31.9902 45.8378 31.9955 45.8592 32.0009 45.886C32.0062 45.9117 32.0116 45.9331 32.0116 45.9598C32.0116 45.9866 32.0116 46.008 32.0062 46.0347C32.0062 46.0508 32.0062 46.0615 32.0062 46.0775C32.0062 46.0936 32.0009 46.1096 31.9955 46.1246C31.9902 46.1407 31.9848 46.1621 31.9741 46.1781C31.9688 46.1888 31.9688 46.1995 31.9634 46.2049C31.9581 46.2209 31.9527 46.2316 31.942 46.2477C31.926 46.2691 31.9099 46.2905 31.8939 46.3119C31.8885 46.3173 31.8885 46.3226 31.8832 46.328C31.8725 46.3387 31.8618 46.3494 31.8511 46.3643C31.8136 46.3965 31.7654 46.4286 31.7076 46.4607C31.0195 46.7914 30.2415 45.7522 30.0659 45.1936C29.6175 43.7873 30.6835 42.0878 32.0854 41.7475C33.2798 41.4543 34.7075 42.1681 35.5604 42.9772C36.179 43.569 36.4722 44.0741 36.7976 44.8522C36.8768 45.0491 37.1593 44.9538 37.3573 44.9538C37.8421 44.9592 38.3269 45.0063 38.8064 45.0972C42.1005 45.6933 44.9837 47.7813 48.2831 48.1816C49.2367 48.2982 50.2234 48.3036 51.1823 48.3036C52.4505 48.3089 53.8311 48.2715 55.0843 48.4791H55.1004L57.4987 49.0602L57.5244 49.0709C59.225 49.774 60.5039 51.2862 61.5174 52.7674C61.9487 53.4009 62.8124 54.6841 62.3222 55.4728C62.0129 55.9737 61.2295 56.1653 60.6912 56.2926C59.8703 56.4895 59.0655 56.6501 58.2768 56.9743C56.4382 57.7363 54.5878 59.1212 53.266 60.6066C52.6004 61.3579 52.0407 62.152 51.4381 62.945C50.5638 64.0955 49.7119 64.9687 48.5175 65.8003C46.3268 67.3285 43.571 68.2072 40.8954 67.686C39.5737 67.4302 38.2627 66.8437 37.0641 66.2423C35.7049 65.5552 34.3832 64.7879 33.0454 64.0633C30.3913 62.6421 27.2566 61.1663 24.1712 61.741C23.6489 61.8373 23.1213 61.9604 22.6997 61.5494C21.6498 60.5167 23.1481 58.3485 23.9732 57.5876C25.8814 55.8185 27.7789 55.5049 30.295 55.4996C32.8581 55.4942 33.2102 55.1475 35.3314 53.8697C37.3937 52.6229 39.4571 51.9198 41.8019 52.8894C44.7172 54.0933 45.9543 57.411 43.2735 59.606C42.3349 60.3722 41.1202 60.735 39.9258 60.4578C38.9937 60.2395 38.0872 59.606 37.794 58.6578C37.6976 58.3431 37.6762 58.0081 37.7351 57.6828C37.8421 57.1349 38.1514 56.6287 38.6095 56.3033C38.6362 56.2873 38.663 56.2712 38.6897 56.2498C38.7111 56.2391 38.7272 56.223 38.7475 56.2134C38.7689 56.2027 38.7957 56.1867 38.8171 56.176C38.8385 56.1653 38.8599 56.1546 38.8813 56.1439C38.9081 56.1332 38.9295 56.1225 38.9562 56.1117C38.9776 56.101 39.0033 56.0903 39.0247 56.085C39.0515 56.0743 39.0782 56.0689 39.105 56.0636C39.1264 56.0582 39.1531 56.0475 39.1745 56.0422C39.2013 56.0368 39.228 56.0315 39.2602 56.0315C39.2805 56.0261 39.3072 56.0261 39.3286 56.0208C39.3554 56.0208 39.3875 56.0208 39.4143 56.0261C39.4357 56.0261 39.4571 56.0261 39.4785 56.0315C39.5106 56.0368 39.5416 56.0475 39.5684 56.0582C39.5844 56.0636 39.6005 56.0636 39.6165 56.0743C39.6647 56.0957 39.7075 56.1171 39.745 56.1492C39.7878 56.1813 39.8188 56.2241 39.8509 56.2659C39.8563 56.2766 39.867 56.2873 39.8723 56.3033C39.8937 56.3461 39.9151 56.3889 39.9258 56.4317C39.9365 56.4735 39.9472 56.5216 39.9526 56.5698C39.9579 56.6287 39.9526 56.6822 39.9419 56.7293C39.9365 56.7453 39.9312 56.7614 39.9312 56.7774C39.9205 56.8095 39.9151 56.8416 39.8991 56.8737C39.8937 56.8898 39.883 56.9058 39.8777 56.9208C39.8616 56.9476 39.8456 56.9743 39.8295 56.9957C39.8188 57.0118 39.8081 57.0225 39.7985 57.0385C39.7771 57.0599 39.7557 57.0867 39.7343 57.1081C39.3822 57.4538 38.7636 57.6293 39.1264 58.4287C39.1638 58.5144 39.212 58.5935 39.2698 58.6631C39.6968 59.2014 40.507 59.3074 41.1416 59.1961C42.0149 59.0462 42.7555 58.5036 43.1718 57.7256C43.3794 57.3425 43.4704 56.9165 43.4169 56.4842C43.2938 55.521 42.5264 54.7483 41.7056 54.3063C40.6557 53.7412 39.4089 53.6192 38.2627 53.9382C37.1069 54.2582 36.2486 54.8339 35.2511 55.4568C33.9615 56.2605 32.8902 56.74 31.3395 56.8095C28.7496 56.9208 26.9473 56.6233 24.8743 58.5561C24.3574 59.0355 23.8244 59.7387 23.7014 60.4471L23.6864 60.5328C23.7763 60.506 23.8833 60.4739 23.9422 60.4632C24.3093 60.3776 24.6828 60.3358 25.0552 60.3091C27.7628 60.1229 30.5882 61.3418 32.9491 62.5458C34.4356 63.3024 35.8751 64.1383 37.3573 64.9002C38.5131 65.4963 39.8723 66.1567 41.1512 66.4071C44.1842 66.9989 47.4302 65.4428 49.4764 63.2596C50.0789 62.6154 50.5852 61.9443 51.1021 61.2359C51.9978 60.0158 52.808 59.0837 53.9863 58.1087C55.4996 56.8523 57.1895 55.8185 59.1083 55.308C59.6039 55.1743 60.0887 55.094 60.5949 55.0041C60.6858 54.988 61.0797 54.9185 61.1278 54.8286C61.2242 54.652 60.52 53.6567 60.4247 53.5176C59.5664 52.2665 58.4523 50.8924 57.0129 50.2952C56.3525 50.0244 54.7751 49.7473 54.0441 49.6884C52.0728 49.5343 50.0843 49.7312 48.1183 49.4915C44.3233 49.0334 41.2208 46.5463 37.4312 46.237C37.3306 46.2263 37.1486 46.2209 37.0748 46.3119C36.9678 46.4393 36.9785 46.9401 36.9678 47.1103C36.9571 47.2708 36.9356 47.4303 36.9142 47.5844C36.9089 47.6272 36.8982 47.67 36.8928 47.7128C36.8714 47.8348 36.8457 47.9579 36.8136 48.0799C36.7976 48.1334 36.7869 48.1869 36.7708 48.2393C36.7441 48.341 36.712 48.4416 36.6745 48.5379C36.6585 48.5807 36.6424 48.6235 36.6264 48.6653C36.621 48.676 36.6157 48.6867 36.6103 48.6974C36.5686 48.8098 36.5204 48.9157 36.4669 49.0227C36.4508 49.0548 36.4348 49.0869 36.4187 49.118C36.3545 49.2411 36.286 49.3631 36.2111 49.4808C36.1897 49.5182 36.163 49.5557 36.1362 49.5921C36.0827 49.6723 36.0302 49.7473 35.9767 49.8211C35.9018 49.9228 35.8216 50.0191 35.737 50.1143C35.7103 50.1464 35.6781 50.1839 35.6514 50.216C35.6353 50.2321 35.6246 50.2481 35.6086 50.2631C35.4973 50.3808 35.3796 50.4921 35.2565 50.5991C34.8412 50.9555 34.3564 51.2541 33.8074 51.4885C32.3412 52.1113 30.3913 52.2344 28.9251 51.5366C28.6907 51.4243 28.4617 51.3076 28.2434 51.1845C28.222 51.1749 28.1952 51.1589 28.1738 51.1482C28.1149 51.116 28.0614 51.0786 28.0026 51.0465C27.8431 50.9512 27.689 50.8603 27.5392 50.7586C27.3958 50.6633 27.2513 50.5617 27.1132 50.4611C27.0758 50.4343 27.0383 50.4022 27.0008 50.3755C26.8735 50.2738 26.7451 50.1678 26.6177 50.0608C26.5856 50.0341 26.5535 50.0084 26.5214 49.9763C26.4518 49.9174 26.3876 49.8586 26.3245 49.7954C26.2603 49.7366 26.2014 49.6723 26.1425 49.6135C26.0794 49.5503 26.0152 49.4861 25.9563 49.4219C25.8975 49.3577 25.8397 49.2946 25.7808 49.225C25.7005 49.134 25.6203 49.0495 25.5464 48.9532C25.2425 48.5807 24.6132 47.5897 24.1819 47.4249C23.9529 47.3393 23.7067 47.3875 23.483 47.4731C23.0411 47.6325 22.6151 47.8081 22.1988 48.005C20.9895 48.5754 19.8914 49.2946 18.8683 50.2107C17.7328 51.2273 16.7942 52.3885 15.7978 53.5283C14.6088 54.8864 13.4369 56.0475 11.8541 56.9529C10.4735 57.7417 8.67663 58.0766 7.13659 58.4448C3.89599 59.2218 1.30072 60.2235 0.821259 63.9467C0.7731 64.3298 0.698184 65.7361 0.932561 66.1781C1.06634 66.0935 1.27396 65.933 1.35423 65.8752C1.66887 65.6515 1.98779 65.4268 2.32384 65.2352C2.53681 65.1132 2.76156 64.9955 2.99593 64.9109C4.27484 64.4208 6.00645 64.3726 7.33887 64.6766C9.02338 65.0597 10.6865 66.3118 12.157 67.2065C13.4905 68.0156 14.9288 68.7508 16.517 68.7883C17.4984 68.8097 18.5001 68.6492 19.459 68.4736C20.3762 68.3035 21.2827 68.1119 22.1988 67.9621C22.3583 67.9364 22.5188 67.915 22.6782 67.8882C25.1515 67.5415 27.3958 67.6913 29.5918 68.9959C31.2068 69.9602 32.597 71.2647 34.1328 72.3456C35.9179 73.6085 37.6816 74.4229 39.8777 74.6894C43.5763 75.1421 48.7733 73.2671 51.7742 71.1374C52.5362 70.5937 53.2393 69.9976 53.906 69.3362C54.4711 68.7776 54.9987 68.1858 55.5531 67.6164C56.9176 66.1888 58.1644 65.262 59.9602 64.469ZM17.0714 79.882C17.0767 79.8296 17.0874 79.776 17.0928 79.7225C17.1035 79.653 17.1142 79.5845 17.1303 79.5149C17.2266 79.0676 17.4074 78.6416 17.6739 78.2639C17.7595 78.1408 17.8548 78.0241 17.9565 77.9118C17.9886 77.8743 18.026 77.8422 18.0624 77.8047C18.132 77.7362 18.2015 77.6613 18.2711 77.5971C18.3139 77.5607 18.361 77.5233 18.4092 77.4858C18.4787 77.4323 18.5483 77.3734 18.6168 77.321C18.6703 77.2835 18.7238 77.2514 18.7773 77.2193C19.3584 76.8469 20.0295 76.6072 20.7176 76.4841C21.2078 76.3996 21.7193 76.3835 22.2202 76.4306V76.4317C22.4653 76.452 22.705 76.4895 22.9394 76.543L22.9661 76.5483C24.8583 76.9689 26.2335 78.2371 26.8735 79.7921C26.6284 76.1973 27.4225 73.3688 29.5972 70.5242C29.4527 70.4236 29.3093 70.3326 29.1648 70.247C29.1274 70.2213 29.0846 70.1999 29.0482 70.1785C28.9358 70.1089 28.8181 70.0447 28.7068 69.9869C28.6747 69.9709 28.6426 69.9548 28.6158 69.9388C28.4777 69.8638 28.3386 69.7996 28.2006 69.7365C28.1684 69.7204 28.1363 69.7097 28.1042 69.6937C27.9929 69.6455 27.8859 69.5974 27.7735 69.5546C27.7361 69.5385 27.6997 69.5235 27.6569 69.5128C27.5231 69.4647 27.3851 69.4165 27.2513 69.3737H27.2459C27.2406 69.3737 27.2352 69.3683 27.2299 69.3683C27.0972 69.3255 26.9687 69.2945 26.8414 69.2624C26.8039 69.2517 26.7611 69.241 26.7237 69.2356C26.7023 69.2303 26.6755 69.2249 26.6541 69.2196C26.6391 69.2142 26.6284 69.2142 26.6124 69.2089C26.5428 69.1928 26.4679 69.1821 26.3983 69.1661C26.3673 69.1607 26.3405 69.1554 26.3084 69.15C26.2174 69.134 26.1265 69.1179 26.0419 69.1072C26.0205 69.1019 26.0045 69.1019 25.9831 69.0965C25.9777 69.0965 25.9777 69.0965 25.9724 69.0965C25.951 69.0912 25.9296 69.0912 25.9135 69.0912C25.8814 69.0858 25.845 69.0858 25.8129 69.0805C25.7273 69.0708 25.6417 69.0655 25.5571 69.0548C25.5304 69.0548 25.5036 69.0494 25.4769 69.0494C25.4501 69.0494 25.4233 69.0441 25.4019 69.0441C25.3859 69.0441 25.3645 69.0441 25.3484 69.0387C25.2692 69.0334 25.1836 69.028 25.1034 69.028C25.082 69.028 25.0552 69.028 25.0349 69.028C25.0188 69.028 25.0028 69.028 24.9867 69.028C24.976 69.028 24.9599 69.028 24.9492 69.028C24.9011 69.028 24.8583 69.028 24.8101 69.028C24.778 69.028 24.7523 69.028 24.7202 69.028C24.6828 69.028 24.6507 69.028 24.6132 69.028C24.5971 69.028 24.5811 69.028 24.565 69.028C24.5276 69.028 24.4965 69.028 24.4591 69.0334C24.4216 69.0334 24.3842 69.0334 24.3467 69.0387H24.3414C24.3146 69.0387 24.2825 69.0387 24.2557 69.0441C24.2397 69.0441 24.2247 69.0441 24.2087 69.0441C24.1765 69.0441 24.1391 69.0494 24.107 69.0494C23.9946 69.0548 23.8887 69.0655 23.7763 69.0762C23.7335 69.0805 23.6917 69.0805 23.6436 69.0858C23.6115 69.0912 23.5847 69.0912 23.5526 69.0965C23.4991 69.1019 23.4402 69.1072 23.3878 69.1179C23.3557 69.1233 23.3182 69.1233 23.2861 69.1286C23.2487 69.134 23.2112 69.134 23.1738 69.1393C23.1053 69.15 23.0357 69.1607 22.9661 69.1661C22.9073 69.1768 22.8441 69.1821 22.7799 69.1928C22.7532 69.1982 22.7264 69.1982 22.6997 69.2035C22.5562 69.2249 22.4118 69.2463 22.2684 69.2731C22.2523 69.2784 22.2362 69.2784 22.2202 69.2784C21.9644 69.3202 21.6979 69.3683 21.4368 69.4165C21.3405 69.4325 21.2399 69.454 21.1436 69.47C21.0365 69.4914 20.9359 69.5075 20.8289 69.5289C20.1793 69.6509 19.5072 69.7782 18.8041 69.8906C18.5857 69.9227 18.3664 69.9548 18.148 69.9869C17.5091 70.0661 16.8638 70.1143 16.2184 70.0715C14.5874 72.5062 14.2685 74.7322 11.2944 76.0368C9.55635 76.7987 7.63745 76.9796 6.05461 78.114C5.00473 78.8653 4.47711 79.989 4.38614 81.2561C4.35511 81.7195 4.37544 82.2043 4.47176 82.6624C4.49316 82.7801 4.58413 83.1472 4.67403 83.2863C4.86132 83.2274 5.33542 82.9182 5.4478 82.8497C6.0225 82.5083 6.59293 82.2418 7.24362 82.0716C9.58311 81.4648 11.944 82.4013 13.9057 83.6427C15.9412 84.9259 17.2426 86.1887 19.7844 86.3589C20.5892 86.4124 21.4314 86.3428 22.2255 86.1298C23.2915 85.8419 24.2771 85.2994 24.9974 84.4368L25.0135 84.4207C27.0169 81.9914 25.7112 78.5239 22.689 77.8475L22.6622 77.8422C22.5188 77.8101 22.3743 77.7844 22.2255 77.7683C21.3779 77.6667 20.4982 77.7994 19.7416 78.205C19.0866 78.556 18.4573 79.1746 18.3717 79.9462C18.3246 80.3454 18.4359 80.7243 18.6596 81.0592C18.788 81.2561 18.9261 81.4006 19.0759 81.5066C19.0706 81.5066 19.0652 81.5012 19.0652 81.5012C19.0759 81.5066 19.0866 81.5119 19.092 81.5226C19.108 81.5333 19.1241 81.544 19.139 81.5547C19.1712 81.5761 19.2086 81.5975 19.2407 81.6136C19.2568 81.6243 19.2728 81.6296 19.2889 81.6403C19.3317 81.6617 19.3745 81.6778 19.4162 81.6885C19.4323 81.6938 19.4537 81.6992 19.4697 81.7035C19.5072 81.7142 19.5447 81.7195 19.5821 81.7302C19.6089 81.7356 19.6303 81.7356 19.657 81.7409C19.6827 81.7409 19.7041 81.7463 19.7309 81.7463C19.7576 81.7463 19.7897 81.7463 19.8165 81.7463C19.8379 81.7463 19.854 81.7409 19.8754 81.7409C19.9492 81.7356 20.0188 81.7249 20.0937 81.7035C20.0937 81.7035 20.0937 81.7035 20.099 81.7035C20.1525 81.6885 20.2114 81.6724 20.2638 81.651H20.2692C20.312 81.635 20.3602 81.6136 20.403 81.5975C20.4137 81.5922 20.4244 81.5868 20.4351 81.5815C20.4725 81.5654 20.5143 81.544 20.5517 81.5226C20.5678 81.5119 20.5838 81.5066 20.5945 81.4959C20.632 81.4745 20.6641 81.4541 20.7016 81.4327C20.723 81.422 20.739 81.406 20.7594 81.3953C20.7861 81.3792 20.8129 81.3632 20.8343 81.3418C20.8396 81.3364 20.8503 81.3311 20.8557 81.3257C20.8771 81.3096 20.8985 81.2936 20.9199 81.2775C20.9466 81.2561 20.9734 81.2358 21.0002 81.2144C21.0151 81.2037 21.0312 81.1876 21.0472 81.1769C21.0633 81.1609 21.0793 81.1502 21.1008 81.1341C21.1168 81.1181 21.1329 81.1074 21.1543 81.0913C21.2024 81.0485 21.2506 81.0014 21.2977 80.9533C21.607 80.6493 22.0126 80.7724 22.2362 81.0378V81.0325C22.4278 81.2615 22.4867 81.6029 22.2362 81.8747V81.8694C22.2095 81.9015 22.1774 81.9282 22.1453 81.9539L22.1292 81.9646C21.0579 82.8593 20.0241 83.4832 18.6435 82.748C18.2979 82.5618 17.9939 82.3221 17.7488 82.0342C17.7167 81.9967 17.69 81.9539 17.6579 81.9175C17.6311 81.8801 17.599 81.848 17.5723 81.8105C17.5401 81.7677 17.5145 81.7195 17.4877 81.6724C17.4663 81.635 17.4395 81.6029 17.4235 81.5654C17.3967 81.5173 17.3753 81.4648 17.3486 81.4113C17.3325 81.3739 17.3111 81.3418 17.2951 81.3043C17.2576 81.2144 17.2266 81.1234 17.1945 81.0271C17.157 80.9051 17.1303 80.7778 17.1089 80.6547C17.1035 80.6119 17.0982 80.5691 17.0982 80.5327C17.0874 80.4471 17.0767 80.3668 17.0767 80.2823C17.0767 80.2287 17.0767 80.1806 17.0767 80.1324C17.0607 80.0318 17.066 79.9569 17.0714 79.882ZM37.0159 80.1806C36.1201 80.0746 34.6764 80.2555 34.015 80.9372C33.3964 81.5708 33.2156 83.2542 34.3243 83.419C34.959 83.5153 35.1291 83.3441 35.3367 82.7855C35.3582 82.7319 35.3796 82.6891 35.4063 82.6463C35.4117 82.6356 35.4224 82.6303 35.4277 82.6206C35.4491 82.5885 35.4759 82.5618 35.4973 82.5404C35.5123 82.5297 35.523 82.519 35.539 82.5083C35.5604 82.4922 35.5872 82.4708 35.6086 82.4601C35.6246 82.4494 35.646 82.4441 35.6621 82.4334C35.6888 82.4227 35.7103 82.412 35.737 82.4013C35.7584 82.397 35.7745 82.3916 35.7948 82.3863C35.8216 82.3809 35.843 82.3756 35.8697 82.3702C35.8911 82.3702 35.9125 82.3649 35.9286 82.3649C35.9553 82.3649 35.9821 82.3649 36.0035 82.3649C36.0249 82.3649 36.0409 82.3702 36.0613 82.3756C36.088 82.3809 36.1094 82.3863 36.1362 82.3916C36.1576 82.3959 36.1737 82.4013 36.1951 82.412C36.2218 82.4227 36.2432 82.4334 36.2646 82.4441C36.2807 82.4548 36.2967 82.4655 36.3117 82.4762C36.3331 82.4922 36.3545 82.5083 36.3759 82.5243C36.392 82.535 36.4027 82.5511 36.4187 82.5671C36.4348 82.5885 36.4508 82.6099 36.4669 82.6303C36.4776 82.6463 36.4883 82.6624 36.499 82.6838C36.5151 82.7105 36.5258 82.7373 36.5311 82.7641C36.5365 82.7855 36.5472 82.8069 36.5525 82.8283C36.5579 82.8593 36.5632 82.8914 36.5686 82.9235C36.5686 82.9449 36.5739 82.9663 36.5739 82.9877C36.5739 82.9931 36.5739 82.9984 36.5739 83.0038C36.5739 83.0359 36.5686 83.0733 36.5686 83.1097C36.5632 83.1365 36.5632 83.1632 36.5579 83.19C36.5525 83.2328 36.5365 83.281 36.5204 83.3227C36.5151 83.3494 36.5097 83.3709 36.499 83.3976C36.4936 83.4083 36.4883 83.4244 36.4829 83.4351C36.4669 83.4832 36.4455 83.5314 36.4187 83.5785C36.4134 83.5945 36.408 83.6052 36.3973 83.6213C36.3866 83.6427 36.3759 83.6587 36.3652 83.6801C36.3224 83.7604 36.2753 83.845 36.2111 83.9359C35.7691 84.5962 34.8733 84.8467 34.1167 84.7289C33.3964 84.6176 32.8421 84.2131 32.5178 83.6213C32.4803 83.5517 32.4429 83.4725 32.4108 83.3976C32.3947 83.3602 32.3787 83.328 32.3626 83.297C32.3198 83.1793 32.2834 83.0626 32.2567 82.9396C31.942 81.5387 32.5392 80.1752 33.77 79.4668C33.1086 77.6774 33.9294 75.7756 35.3742 74.6198C35.1612 74.5139 34.959 74.4015 34.7556 74.2848C34.7075 74.2581 34.6604 74.2313 34.6176 74.2046C34.5694 74.1778 34.5212 74.1457 34.4731 74.12C34.3457 74.0451 34.2173 73.9702 34.0953 73.891C34.0792 73.8803 34.0632 73.8696 34.0471 73.8589C33.9615 73.8054 33.8823 73.7519 33.8021 73.693C33.6897 73.6192 33.5784 73.5443 33.466 73.4694C33.4446 73.4533 33.4232 73.4383 33.4018 73.4223C33.328 73.3688 33.253 73.3152 33.1781 73.2617C33.0829 73.1932 32.9866 73.129 32.8956 73.0595C32.8742 73.0434 32.8581 73.0327 32.8367 73.0167C32.704 72.9161 32.5649 72.8144 32.4322 72.7138C32.4001 72.687 32.3626 72.6603 32.3305 72.6389C31.7708 72.2129 31.2164 71.7656 30.631 71.3129C28.6533 73.9017 27.9394 76.452 28.1631 79.7225C28.3975 83.1686 29.8102 86.7163 33.4125 87.7705C36.7922 88.7615 41.0346 86.4552 39.8884 82.5564C39.4999 81.1555 38.4393 80.3507 37.0159 80.1806ZM75.3424 72.4366C74.9539 72.1166 74.5162 71.909 74.0582 71.7067C73.6472 71.5259 73.2052 71.3396 72.8745 71.0304C72.1821 70.3861 72.2088 69.379 72.3469 68.5165C72.4272 68.0049 72.5235 67.4987 72.2463 67.0299C72.1393 66.8437 71.9959 66.6896 71.8193 66.5612C71.4939 66.3268 71.084 66.1995 70.6998 66.0882C69.4423 65.7307 68.4299 65.4589 68.462 63.8878C68.4834 62.945 68.8345 61.8641 68.6803 60.9319C68.264 61.3793 67.8541 61.7678 67.4335 62.1199C67.2784 62.2472 67.1296 62.3703 66.9691 62.4869C66.9477 62.503 66.9263 62.519 66.9006 62.5351C66.7561 62.6421 66.618 62.7427 66.4736 62.8444C66.4415 62.8658 66.4147 62.8861 66.3826 62.9022C66.2338 63.0038 66.0851 63.0948 65.9352 63.1901C65.9138 63.2008 65.8978 63.2168 65.8764 63.2275C65.855 63.2436 65.8346 63.2543 65.8079 63.2703C65.6581 63.3602 65.5093 63.4458 65.3541 63.5315C65.306 63.5582 65.2589 63.5839 65.2107 63.6107C65.1304 63.6535 65.0555 63.6909 64.9763 63.7337C64.9014 63.7712 64.8319 63.8076 64.758 63.845C64.7366 63.8557 64.7152 63.8664 64.6938 63.8771C64.6777 63.8825 64.667 63.8932 64.651 63.8985C64.5547 63.9467 64.4594 63.9895 64.3631 64.0366C64.2775 64.0741 64.1983 64.1169 64.118 64.1543C64.0859 64.1704 64.0485 64.1864 64.0163 64.2025C63.9158 64.2453 63.8141 64.2924 63.7071 64.3352C63.6493 64.3619 63.5958 64.3833 63.5369 64.4101C63.4887 64.4315 63.4352 64.4529 63.3881 64.4743C63.1901 64.5535 62.9932 64.6391 62.791 64.7194C61.7678 65.1239 60.749 65.5124 59.7687 66.0133C61.496 66.7217 62.5887 67.9311 63.0681 69.7579C63.8248 69.2196 64.7527 69.0173 65.6741 69.1928C66.5859 69.3683 67.4443 69.912 67.913 70.7211C68.1902 71.2005 68.3068 71.7335 68.2587 72.2878C68.248 72.3884 68.233 72.4901 68.2116 72.5854C68.2116 72.5961 68.2062 72.6014 68.2062 72.6121C68.2009 72.6335 68.1955 72.6549 68.1902 72.6817C68.1741 72.7512 68.1527 72.8197 68.126 72.8893C68.1153 72.9214 68.1046 72.9482 68.0939 72.9803C68.0671 73.0488 68.035 73.1183 67.9976 73.1825C67.9922 73.1932 67.9868 73.1986 67.9815 73.2093C67.9719 73.2243 67.9665 73.2403 67.9558 73.2564C67.913 73.3366 67.8648 73.4116 67.8113 73.4854C67.8006 73.4961 67.7899 73.5122 67.7792 73.5229C67.7311 73.5871 67.684 73.6459 67.6305 73.7037C67.6251 73.7091 67.6251 73.7091 67.6198 73.7144C67.6037 73.7305 67.5877 73.7519 67.5663 73.7679C67.5181 73.8161 67.4646 73.8643 67.4175 73.906C67.3961 73.922 67.3747 73.9435 67.3533 73.9595C67.2891 74.0077 67.2249 74.0558 67.1617 74.0933C67.1403 74.1093 67.1189 74.12 67.0975 74.135C67.0226 74.1778 66.9423 74.2206 66.8685 74.2581C66.8578 74.2634 66.8417 74.2688 66.831 74.2741C66.7615 74.3062 66.6865 74.333 66.6127 74.3598C66.5859 74.3694 66.5645 74.3747 66.5378 74.3801C66.4522 74.4068 66.3719 74.4283 66.2873 74.4443C66.2713 74.4497 66.2552 74.4497 66.2392 74.4497C65.6474 74.546 65.0138 74.4175 64.4648 73.9916C64.3149 73.875 64.1608 73.7519 64.0271 73.6192C63.9575 73.5496 63.889 73.4747 63.8248 73.3902C63.5904 73.0862 63.462 72.7138 63.8034 72.3938C63.9318 72.2718 64.0913 72.1862 64.2721 72.2022C64.9442 72.2611 65.2214 73.5015 66.2659 73.0755C66.5752 72.9482 66.815 72.7352 66.9156 72.4152C67.0761 71.8929 66.7989 71.3182 66.4201 70.9608C65.8924 70.461 65.184 70.3379 64.4915 70.5295C63.2811 70.8602 62.7428 72.58 63.0307 73.7412C63.462 75.4888 65.1786 76.0796 66.815 75.9683C69.1544 75.8077 73.1517 74.226 75.001 76.33L75.0278 76.3675L75.3103 76.8993C75.7844 76.3621 76.0884 75.568 76.174 74.8863C76.2917 73.9649 76.0777 73.0381 75.3424 72.4366ZM58.3089 66.8919C58.1751 66.9882 58.0478 67.0888 57.9193 67.1905C57.914 67.1958 57.914 67.1958 57.9086 67.2012C57.7278 67.3499 57.5458 67.504 57.3757 67.6592C57.3703 67.6646 57.365 67.6699 57.3596 67.6699C57.3489 67.6753 57.3436 67.686 57.3329 67.6913C57.3061 67.717 57.274 67.7438 57.2483 67.7705C57.0771 67.93 56.9069 68.0905 56.741 68.2553L56.7357 68.2607C56.192 68.8097 55.6751 69.3683 55.1475 69.9174C55.217 69.8799 55.292 69.8424 55.3669 69.8103C55.6066 69.7044 55.8517 69.6348 56.0807 69.592C56.6404 69.4433 57.2216 69.4861 57.7813 69.699C58.1484 69.8371 58.4898 70.0608 58.7562 70.3486L58.7723 70.3647C59.3374 70.9875 59.5557 71.8138 59.2518 72.6175C59.225 72.6924 59.1875 72.7716 59.1447 72.8465C59.134 72.8679 59.119 72.8947 59.103 72.9161C59.0709 72.9749 59.0334 73.0274 58.9906 73.0862C58.9639 73.1237 58.9318 73.1665 58.8997 73.2039C58.8943 73.2093 58.889 73.2189 58.8836 73.2243C58.8365 73.2778 58.783 73.3313 58.7295 73.3795C58.5165 73.5657 58.2607 73.677 57.9889 73.6192C57.8605 73.5871 57.7492 73.5175 57.6636 73.4223C57.6315 73.3848 57.6047 73.3473 57.5779 73.3152C57.5726 73.3045 57.5619 73.2938 57.5565 73.2831C57.5405 73.2617 57.5298 73.235 57.5191 73.2136C57.5137 73.2039 57.5094 73.1879 57.5041 73.1772C57.4987 73.1558 57.488 73.1344 57.4827 73.113C57.4827 73.1023 57.4773 73.0916 57.4773 73.0755C57.472 73.0541 57.472 73.0327 57.472 73.0113C57.472 73.0006 57.472 72.9899 57.472 72.9856C57.4773 72.9268 57.4934 72.8679 57.5137 72.809C57.5191 72.7983 57.5244 72.793 57.5244 72.7823C57.5351 72.7609 57.5458 72.7459 57.5565 72.7245C57.5619 72.7138 57.5672 72.7084 57.5726 72.6977C57.5833 72.6817 57.594 72.6603 57.61 72.6442C57.6154 72.6335 57.6208 72.6282 57.6315 72.6175C57.6475 72.6014 57.6582 72.58 57.6743 72.564C57.6796 72.5586 57.685 72.5479 57.6903 72.5426C57.7385 72.4901 57.7856 72.442 57.8284 72.3938C57.8444 72.3777 57.8605 72.3617 57.8765 72.3456C57.8819 72.3349 57.8926 72.3296 57.8979 72.3189C57.9086 72.3028 57.9247 72.2932 57.9354 72.2771C57.9407 72.2664 57.9514 72.2611 57.9568 72.2504C57.9621 72.245 57.9621 72.2397 57.9675 72.2397L57.9621 72.245C58.0103 72.1862 58.0478 72.1273 58.0574 72.0685C58.1002 71.7977 57.9675 71.4456 57.7866 71.2433L57.7706 71.2273C57.3222 70.7532 56.5441 70.7157 56.0058 71.0464C54.988 71.6639 54.8971 73.2671 55.6644 74.135L55.6805 74.1511C55.8624 74.3491 56.0754 74.5139 56.3097 74.6359C57.7652 75.3872 59.9442 74.6252 61.0101 73.4961C62.1082 72.3349 62.1028 70.3807 61.3676 69.0227C60.6912 67.7491 59.6306 67.2857 58.3089 66.8919ZM110.887 36.2552C110.503 34.9453 109.214 34.0881 107.967 33.7103C106.618 33.3047 105.338 33.3582 103.958 33.2522C101.949 33.0917 100.563 32.4903 99.129 31.0359C98.4312 30.3274 97.8234 29.5451 97.2476 28.7403C96.3315 27.4624 95.5267 26.2585 94.541 25.1455C94.0444 24.5911 93.5061 24.0592 92.8779 23.553C92.7013 23.4085 91.2897 22.4817 91.0553 22.3758C89.2584 21.5185 87.3877 21.3955 85.4367 21.6191C83.886 21.7947 82.9377 21.9231 81.4876 22.5834C80.0439 23.2437 78.8495 24.1545 77.6659 25.1455H77.6605C77.3726 25.3905 77.0805 25.6356 76.7926 25.8914C73.1678 29.0121 69.0849 31.9519 64.0217 31.0251C63.7231 30.9716 63.4299 30.9138 63.1377 30.8496L63.02 30.8229C63.2008 31.8139 64.1608 33.0328 64.9068 33.6621C66.9006 35.3552 69.453 35.856 71.9691 36.2242C73.9137 36.511 74.8523 36.724 76.4726 37.9065C76.7123 38.0821 76.9413 38.3539 77.1704 38.5562C79.7292 40.841 82.149 42.152 85.6721 41.5549C88.3316 41.1075 90.1542 39.6852 90.9751 37.0868C91.812 34.4284 91.3165 31.6063 88.8485 30.0299C87.1052 28.9158 84.862 28.8205 83.0169 29.742C82.6552 29.9228 82.3085 30.1519 82.0259 30.4451L82.0099 30.4612C81.4608 31.0412 81.2746 31.9091 81.3174 32.6872C81.402 34.1416 82.3245 35.6538 83.9823 35.2171C84.3761 35.1101 84.664 34.9346 84.9037 34.6103L84.9144 34.5943C85.0536 34.4016 85.1809 34.1309 85.3575 33.9489C85.3682 33.9393 85.3789 33.9286 85.395 33.9179C85.4057 33.9072 85.4164 33.8965 85.4313 33.8858C85.442 33.8751 85.4581 33.8644 85.4688 33.8537C85.4795 33.843 85.4956 33.8376 85.5063 33.8269C85.5223 33.8162 85.533 33.8109 85.5491 33.8055C85.5598 33.8002 85.5758 33.7895 85.5865 33.7841C85.6026 33.7788 85.6186 33.7734 85.6347 33.7681C85.6507 33.7627 85.6614 33.7574 85.6775 33.7574C85.6925 33.752 85.7139 33.752 85.7299 33.752C85.746 33.752 85.7567 33.7467 85.7727 33.7467C85.7941 33.7467 85.8156 33.752 85.837 33.752C85.853 33.752 85.8637 33.752 85.8798 33.7574C85.9065 33.7627 85.9333 33.7734 85.96 33.7788C85.9697 33.7841 85.9804 33.7841 85.9964 33.7895C86.0339 33.8055 86.0767 33.8216 86.1195 33.8483C86.2212 33.9072 86.3004 33.9864 86.3592 34.0881C86.402 34.1683 86.4234 34.2475 86.4341 34.3331C86.4341 34.3545 86.4395 34.3759 86.4395 34.3974C86.4395 34.423 86.4395 34.4551 86.4341 34.4819C86.4341 34.5033 86.4341 34.5194 86.4288 34.5408C86.4234 34.5729 86.4127 34.6103 86.4074 34.6467C86.402 34.6628 86.402 34.6735 86.3967 34.6895C86.3806 34.7377 86.3646 34.7912 86.3378 34.8393C86.3164 34.8864 86.2897 34.9399 86.2629 34.9881C86.2575 35.0042 86.2468 35.0149 86.2361 35.0309C86.2158 35.0684 86.1944 35.0994 86.173 35.1369C86.1623 35.1529 86.1462 35.169 86.1355 35.1904C86.1141 35.2225 86.0927 35.2546 86.066 35.2867C86.0499 35.3027 86.0392 35.3231 86.0232 35.3391C86.0018 35.3659 85.975 35.398 85.9493 35.4247C85.9333 35.4408 85.9172 35.4622 85.9012 35.4783C85.8744 35.505 85.8477 35.5318 85.8262 35.5575C85.8102 35.5735 85.7941 35.5896 85.7781 35.6056C85.7513 35.6324 85.7246 35.6591 85.6978 35.6859C85.6828 35.7019 85.6668 35.718 85.6507 35.734C85.624 35.7608 85.5972 35.7822 85.5705 35.8079C85.5544 35.8239 85.5384 35.8346 85.5223 35.8507C85.4956 35.8721 85.4688 35.8988 85.442 35.9202C85.426 35.931 85.411 35.947 85.395 35.9577C85.3682 35.9791 85.3414 36.0005 85.3147 36.0209C85.2986 36.0316 85.2879 36.0423 85.2719 36.053C85.2451 36.0744 85.213 36.0958 85.1863 36.1118C85.1756 36.1172 85.1649 36.1279 85.1552 36.1332C85.1178 36.16 85.0803 36.1814 85.0482 36.1974C84.8245 36.3301 84.5795 36.4372 84.3237 36.5003C83.444 36.7293 82.5589 36.6501 81.7862 36.1493C79.7346 34.8286 79.3932 31.3237 81.067 29.5611L81.0831 29.5451C82.7408 27.8242 85.975 27.4196 88.1604 28.218C90.9429 29.2411 92.7869 31.9412 92.6906 34.9132C92.5526 39.1266 89.9937 42.2633 85.762 42.8605C83.9074 43.1216 83.993 43.691 82.8254 44.9645C81.4073 46.5142 79.6597 47.8455 77.7996 48.8258C77.8585 48.8686 77.9216 48.9104 77.9912 48.9585C78.0019 48.9692 78.018 48.9799 78.0287 48.9853C78.1678 49.0816 78.3112 49.1929 78.46 49.3053C78.4707 49.316 78.4814 49.3213 78.4921 49.3309C78.6419 49.4487 78.7907 49.5653 78.9351 49.6884C78.9512 49.6991 78.9619 49.7098 78.978 49.7259C79.0464 49.7847 79.116 49.8479 79.1802 49.9067C79.1802 49.9067 79.1856 49.9067 79.1856 49.9121C79.2498 49.9709 79.3129 50.0341 79.3718 50.0929C79.3878 50.109 79.3985 50.1197 79.4146 50.1357C79.4681 50.1893 79.5205 50.2481 79.5687 50.3006C79.7292 50.4868 79.8512 50.6687 79.9101 50.8335C80.2141 51.7389 79.3664 52.0054 78.5991 52.1434C78.5402 52.1541 78.476 52.1648 78.4182 52.1755C78.4129 52.1755 78.4075 52.1755 78.4075 52.1755C78.2684 52.1969 78.1303 52.2184 78.0126 52.2344C77.9538 52.2451 77.9013 52.2505 77.8532 52.2612C76.0616 52.6068 74.3675 53.5818 73.1249 54.9078C73.0243 55.0148 72.928 55.1261 72.8317 55.2385C72.806 55.2706 72.7739 55.307 72.7472 55.3444C72.7204 55.3765 72.6936 55.414 72.6669 55.4461C72.6294 55.4942 72.5866 55.5413 72.5492 55.5948C72.5128 55.6483 72.47 55.6965 72.4325 55.75C72.3951 55.7971 72.3576 55.8453 72.3201 55.8934C72.3094 55.9095 72.2987 55.9202 72.288 55.9362C72.2838 55.9469 72.2784 55.9523 72.2731 55.963C72.2356 56.0154 72.1981 56.0689 72.1553 56.1224C72.1286 56.1599 72.1018 56.192 72.0804 56.2284C72.0323 56.298 71.9852 56.3675 71.937 56.4371C71.9317 56.4424 71.9263 56.4521 71.921 56.4574C71.8086 56.6233 71.6973 56.7935 71.5849 56.9583C71.5796 56.969 71.5742 56.9797 71.5635 56.9904C71.3291 57.3478 71.1055 57.7042 70.8818 58.0456C70.5083 58.6149 70.1251 59.1907 69.7088 59.7333C73.1731 60.2823 76.952 59.8617 79.6704 57.4484C80.5394 56.6757 81.2693 55.8346 82.0794 55.0148C83.3851 53.6888 84.6426 52.9108 86.3753 52.2184C87.5268 51.7603 88.7362 51.435 89.9359 51.1375C92.7334 50.445 96.4481 49.7943 98.2932 47.35C98.6977 46.8117 98.9803 46.1728 99.2307 45.5553C99.5293 44.8147 99.8011 44.0688 100.143 43.3453C101.096 41.3205 102.407 39.8886 104.331 38.7327C106.207 37.6037 108.366 37.0012 110.546 36.8738C110.61 36.8685 110.956 36.8738 110.993 36.8524C111.031 36.7561 110.909 36.3355 110.887 36.2552Z" fill="url(#paint0_linear_308_765)"/>
<defs>
<linearGradient id="paint0_linear_308_765" x1="38.7809" y1="34.8966" x2="67.489" y2="76.2507" gradientUnits="userSpaceOnUse">
<stop stop-color="#0063B5"/>
<stop offset="1" stop-color="#5DCC6C"/>
</linearGradient>
</defs>
</svg>
