<svg width="211" height="211" viewBox="0 0 211 211" fill="none" xmlns="http://www.w3.org/2000/svg">
<g filter="url(#filter0_f_404_54)">
<path d="M34.5751 126.375C30.7369 128.119 27.2252 130.475 24.1695 133.326C22.5449 134.842 19.901 134.142 19.2515 132.016C16.2261 122.105 14.8702 111.504 15.4913 100.556C15.6151 98.3683 15.816 96.2015 16.0922 94.0604C16.3334 92.189 18.9387 91.9376 19.5579 93.721C23.2063 104.228 28.637 113.937 35.5007 122.465C36.5401 123.756 36.086 125.69 34.576 126.376L34.5751 126.375Z" fill="#E3EEB2"/>
<path d="M87.1185 75.1519C86.5956 75.406 86.0782 75.672 85.5654 75.9426C86.0663 75.6582 86.5892 75.394 87.1185 75.1519Z" fill="#E3EEB2"/>
<path d="M87.1185 75.1519C86.5956 75.406 86.0782 75.672 85.5654 75.9426C86.0663 75.6582 86.5892 75.394 87.1185 75.1519Z" fill="#E3EEB2"/>
<path d="M193.44 84.1621C188.086 62.2831 174.718 43.3755 156.461 30.9434H156.456C143.362 22.0285 127.76 16.4391 110.791 15.4795C87.2242 14.1429 65.2553 21.968 48.3493 35.8623C38.5262 43.9277 30.4122 54.0471 24.6888 65.6067C22.9944 69.0331 22.877 73.0272 24.3292 76.5618C29.6783 89.6204 37.8355 101.291 48.0842 110.773C52.1371 114.522 56.5166 117.932 61.1804 120.945C74.7243 129.714 90.6661 135.187 107.933 136.166L108.187 136.18C118.205 136.726 128.148 134.683 137.109 130.353C141.317 128.317 144.777 125.013 147.087 120.951C150.446 115.041 147.283 107.393 140.647 105.92C140.46 105.875 140.275 105.84 140.089 105.809C140.068 105.802 140.047 105.802 140.03 105.797C137.561 105.388 135.036 105.94 132.871 107.195C132.127 107.628 131.369 108.045 130.602 108.443C121.523 113.185 111.096 115.609 100.126 114.987C98.4178 114.891 96.7299 114.719 95.0685 114.484H95.064C92.6963 114.142 90.3735 113.664 88.1076 113.057C88.0865 113.052 88.07 113.048 88.0508 113.043C80.0376 109.847 74.5867 101.81 75.1022 92.7293C75.5141 85.4602 79.6487 79.2873 85.5537 75.9518C85.5565 75.9472 85.561 75.9426 85.5656 75.9426C86.0665 75.6582 86.5894 75.394 87.1187 75.1518C101.596 67.9341 118.096 64.2747 135.408 65.2563C144.188 65.7526 152.629 67.4121 160.584 70.0834C161.513 70.3917 162.433 70.7164 163.348 71.0577C173.15 74.6748 182.173 79.8359 190.139 86.2344C191.668 87.4655 193.905 86.0767 193.439 84.163L193.44 84.1621ZM112.3 55.3571C106.266 58.3669 96.1749 59.0522 96.1749 59.0522C96.1749 59.0522 98.0298 41.1077 114.336 41.6517C132.172 42.2443 142.592 57.2661 142.756 57.5019C132.925 53.5948 118.16 52.4353 112.3 55.358V55.3571Z" fill="#E3EEB2"/>
<path d="M193.838 110.137C176.268 140.629 142.541 160.323 105.005 158.196C99.4683 157.882 94.066 157.107 88.8352 155.905C84.2823 154.864 79.8607 153.499 75.594 151.841C75.594 151.841 75.5904 151.833 75.5858 151.837C74.2822 151.333 72.9951 150.8 71.7237 150.24C68.7817 148.943 65.6966 147.98 62.5125 147.539C61.4676 147.394 60.409 147.29 59.3384 147.23C49.8814 146.694 41.0243 149.602 33.9909 154.866L33.9643 154.885C32.4442 156.014 32.1342 158.163 33.2708 159.677C33.4377 159.899 33.6056 160.122 33.7772 160.345C44.346 174.231 58.8733 185.011 75.7922 190.93C81.8055 193.038 88.1169 194.527 94.6613 195.325C96.608 195.565 98.5794 195.74 100.567 195.853C150.376 198.675 193.045 160.583 195.868 110.775L195.871 110.729C195.936 109.585 194.411 109.143 193.839 110.136L193.838 110.137ZM142.512 172.679C128.007 177.303 124.306 168.715 124.306 168.715C124.306 168.715 155.843 159.193 164.738 150.063C164.738 150.063 157.017 168.056 142.513 172.679H142.512Z" fill="#E3EEB2"/>
</g>
<path d="M34.5751 126.375C30.7369 128.119 27.2252 130.475 24.1695 133.326C22.5449 134.842 19.901 134.142 19.2515 132.016C16.2261 122.105 14.8702 111.504 15.4913 100.556C15.6151 98.3683 15.816 96.2015 16.0922 94.0604C16.3334 92.189 18.9387 91.9376 19.5579 93.721C23.2063 104.228 28.637 113.937 35.5007 122.465C36.5401 123.756 36.086 125.69 34.576 126.376L34.5751 126.375Z" fill="#E3EEB2"/>
<path d="M87.1185 75.1519C86.5956 75.406 86.0782 75.672 85.5654 75.9426C86.0663 75.6582 86.5892 75.394 87.1185 75.1519Z" fill="#E3EEB2"/>
<path d="M87.1185 75.1519C86.5956 75.406 86.0782 75.672 85.5654 75.9426C86.0663 75.6582 86.5892 75.394 87.1185 75.1519Z" fill="#E3EEB2"/>
<path d="M193.44 84.1621C188.086 62.2831 174.718 43.3755 156.461 30.9434H156.456C143.362 22.0285 127.76 16.4391 110.791 15.4795C87.2242 14.1429 65.2553 21.968 48.3493 35.8623C38.5262 43.9277 30.4122 54.0471 24.6888 65.6067C22.9944 69.0331 22.877 73.0272 24.3292 76.5618C29.6783 89.6204 37.8355 101.291 48.0842 110.773C52.1371 114.522 56.5166 117.932 61.1804 120.945C74.7243 129.714 90.6661 135.187 107.933 136.166L108.187 136.18C118.205 136.726 128.148 134.683 137.109 130.353C141.317 128.317 144.777 125.013 147.087 120.951C150.446 115.041 147.283 107.393 140.647 105.92C140.46 105.875 140.275 105.84 140.089 105.809C140.068 105.802 140.047 105.802 140.03 105.797C137.561 105.388 135.036 105.94 132.871 107.195C132.127 107.628 131.369 108.045 130.602 108.443C121.523 113.185 111.096 115.609 100.126 114.987C98.4178 114.891 96.7299 114.719 95.0685 114.484H95.064C92.6963 114.142 90.3735 113.664 88.1076 113.057C88.0865 113.052 88.07 113.048 88.0508 113.043C80.0376 109.847 74.5867 101.81 75.1022 92.7293C75.5141 85.4602 79.6487 79.2873 85.5537 75.9518C85.5565 75.9472 85.561 75.9426 85.5656 75.9426C86.0665 75.6582 86.5894 75.394 87.1187 75.1518C101.596 67.9341 118.096 64.2747 135.408 65.2563C144.188 65.7526 152.629 67.4121 160.584 70.0834C161.513 70.3917 162.433 70.7164 163.348 71.0577C173.15 74.6748 182.173 79.8359 190.139 86.2344C191.668 87.4655 193.905 86.0767 193.439 84.163L193.44 84.1621ZM112.3 55.3571C106.266 58.3669 96.1749 59.0522 96.1749 59.0522C96.1749 59.0522 98.0298 41.1077 114.336 41.6517C132.172 42.2443 142.592 57.2661 142.756 57.5019C132.925 53.5948 118.16 52.4353 112.3 55.358V55.3571Z" fill="#E3EEB2"/>
<path d="M193.838 110.137C176.268 140.629 142.541 160.323 105.005 158.196C99.4683 157.882 94.066 157.107 88.8352 155.905C84.2823 154.864 79.8607 153.499 75.594 151.841C75.594 151.841 75.5904 151.833 75.5858 151.837C74.2822 151.333 72.9951 150.8 71.7237 150.24C68.7817 148.943 65.6966 147.98 62.5125 147.539C61.4676 147.394 60.409 147.29 59.3384 147.23C49.8814 146.694 41.0243 149.602 33.9909 154.866L33.9643 154.885C32.4442 156.014 32.1342 158.163 33.2708 159.677C33.4377 159.899 33.6056 160.122 33.7772 160.345C44.346 174.231 58.8733 185.011 75.7922 190.93C81.8055 193.038 88.1169 194.527 94.6613 195.325C96.608 195.565 98.5794 195.74 100.567 195.853C150.376 198.675 193.045 160.583 195.868 110.775L195.871 110.729C195.936 109.585 194.411 109.143 193.839 110.136L193.838 110.137ZM142.512 172.679C128.007 177.303 124.306 168.715 124.306 168.715C124.306 168.715 155.843 159.193 164.738 150.063C164.738 150.063 157.017 168.056 142.513 172.679H142.512Z" fill="#E3EEB2"/>
<defs>
<filter id="filter0_f_404_54" x="0.34375" y="0.332031" width="210.529" height="210.668" filterUnits="userSpaceOnUse" color-interpolation-filters="sRGB">
<feFlood flood-opacity="0" result="BackgroundImageFix"/>
<feBlend mode="normal" in="SourceGraphic" in2="BackgroundImageFix" result="shape"/>
<feGaussianBlur stdDeviation="7.5" result="effect1_foregroundBlur_404_54"/>
</filter>
</defs>
</svg>
