<svg width="182" height="23" viewBox="0 0 182 23" fill="none" xmlns="http://www.w3.org/2000/svg">
<path d="M17.3516 6.52443C17.3516 7.51662 16.9805 8.47755 16.2383 9.40724C15.4883 10.3447 14.5469 11.1963 13.4141 11.9619C12.8438 12.3447 12.2617 12.7041 11.668 13.0401C11.082 13.3682 10.4805 13.669 9.86328 13.9424C9.24609 14.2158 8.66406 14.458 8.11719 14.669C7.57812 14.8721 7.07031 15.044 6.59375 15.1846C6.01562 15.3643 5.3125 15.6455 4.48438 16.0283C4.42188 16.0596 4.34375 16.1026 4.25 16.1572C4.15625 16.2041 4.04297 16.2627 3.91016 16.333C3.65234 16.4815 3.44531 16.5713 3.28906 16.6026C2.59375 16.7588 2.14453 16.8369 1.94141 16.8369C1.56641 16.8369 1.24609 16.7236 0.980469 16.4971C0.714844 16.2705 0.539062 15.9697 0.453125 15.5947C0.375 15.2666 0.316406 14.9932 0.277344 14.7744C0.246094 14.5557 0.230469 14.3877 0.230469 14.2705C0.230469 14.1611 0.253906 14.001 0.300781 13.7901C0.355469 13.5791 0.382812 13.3955 0.382812 13.2393C0.382812 13.1221 0.390625 12.9893 0.40625 12.8408C0.421875 12.6846 0.445312 12.5088 0.476562 12.3135C0.507812 12.1182 0.53125 11.9619 0.546875 11.8447C0.570312 11.7197 0.585938 11.626 0.59375 11.5635C0.625 11.3682 0.683594 11.001 0.769531 10.4619C0.855469 9.91505 0.964844 9.1924 1.09766 8.29396C1.17578 7.8174 1.26562 7.31349 1.36719 6.78224C1.46875 6.25099 1.58594 5.68459 1.71875 5.08302C1.73438 5.02834 1.75 4.95802 1.76562 4.87209C1.78906 4.78615 1.81641 4.68459 1.84766 4.5674C1.91016 4.33302 1.95703 4.1338 1.98828 3.96974C2.01953 3.80568 2.03516 3.64943 2.03516 3.50099C2.03516 3.34474 1.98828 3.21193 1.89453 3.10255C1.80078 2.99318 1.66797 2.8799 1.49609 2.76271C1.33203 2.63771 1.21484 2.53615 1.14453 2.45802C1.08203 2.37209 1.05078 2.24709 1.05078 2.08302C1.05078 1.77052 1.18359 1.45802 1.44922 1.14552C1.72266 0.825211 2.00781 0.665054 2.30469 0.665054C2.66406 0.665054 3.14453 0.700211 3.74609 0.770523C4.33984 0.840836 4.75391 0.875992 4.98828 0.875992C5.38672 0.875992 5.99219 0.852554 6.80469 0.805679C7.60938 0.758804 8.21094 0.735367 8.60938 0.735367C9.74219 0.735367 10.8086 0.825211 11.8086 1.0049C12.8086 1.18459 13.7109 1.5049 14.5156 1.96584C14.7344 2.09084 15.0547 2.31349 15.4766 2.6338C15.8984 2.93068 16.3164 3.51662 16.7305 4.39162C17.1445 5.26662 17.3516 5.97755 17.3516 6.52443ZM15.3125 6.52443C15.3125 5.43849 14.9141 4.60646 14.1172 4.02834C13.3281 3.45802 12.3906 3.08302 11.3047 2.90334C10.7656 2.8174 10.2148 2.75099 9.65234 2.70412C9.09766 2.65724 8.52734 2.6338 7.94141 2.6338C7.76172 2.6338 7.57422 2.64162 7.37891 2.65724C7.18359 2.66505 6.97656 2.67677 6.75781 2.6924C6.32812 2.73146 5.92188 2.77052 5.53906 2.80959C5.15625 2.84865 4.74219 2.87599 4.29688 2.89162C4.1875 3.40724 4.07812 3.9463 3.96875 4.5088C3.85938 5.06349 3.75 5.64552 3.64062 6.2549C3.61719 6.40334 3.58203 6.59865 3.53516 6.84084C3.48828 7.07521 3.42969 7.36818 3.35938 7.71974C3.29688 8.0713 3.23438 8.39162 3.17188 8.68068C3.11719 8.96974 3.07031 9.23927 3.03125 9.48927C2.99219 9.73927 2.95312 10.001 2.91406 10.2744C2.875 10.5401 2.83984 10.8135 2.80859 11.0947C2.77734 11.3682 2.75 11.6416 2.72656 11.9151C2.71094 12.1807 2.70312 12.4307 2.70312 12.6651C2.70312 13.2354 2.79297 13.7002 2.97266 14.0596C3.55859 13.9815 4.15625 13.8526 4.76562 13.6729C5.07031 13.5869 5.38672 13.4893 5.71484 13.3799C6.05078 13.2705 6.39844 13.1494 6.75781 13.0166C7.125 12.8838 7.44531 12.7705 7.71875 12.6768C8 12.5752 8.24219 12.4932 8.44531 12.4307C10.8438 11.6416 12.4102 10.9033 13.1445 10.2158C13.2617 10.1065 13.3945 9.96584 13.543 9.79396C13.6914 9.62209 13.8555 9.41505 14.0352 9.17287C14.3945 8.68849 14.6992 8.20021 14.9492 7.70802C15.1914 7.23146 15.3125 6.83693 15.3125 6.52443ZM34.1836 9.0674C34.1836 9.18459 34.0977 9.39162 33.9258 9.68849C33.5195 10.2744 33.0625 10.8604 32.5547 11.4463C32.0547 12.0322 31.5195 12.5908 30.9492 13.1221C30.3867 13.6455 29.7969 14.1377 29.1797 14.5986C28.5703 15.0518 27.9531 15.4463 27.3281 15.7822C26.7031 16.1104 26.0781 16.3643 25.4531 16.544C24.8359 16.7236 24.2383 16.8096 23.6602 16.8018C22.4102 16.8018 21.4375 16.4385 20.7422 15.7119C20.0547 14.9854 19.7109 13.8877 19.7109 12.419C19.7109 11.1924 19.8984 10.001 20.2734 8.84474C20.6562 7.68849 21.3047 6.57521 22.2188 5.5049C22.3906 5.3174 22.582 5.13771 22.793 4.96584C23.0117 4.79396 23.2383 4.64162 23.4727 4.5088C23.7148 4.37599 23.9609 4.27052 24.2109 4.1924C24.4688 4.11427 24.7266 4.0674 24.9844 4.05177C25.0469 4.05177 25.1328 4.05959 25.2422 4.07521C25.3516 4.09084 25.4688 4.11818 25.5938 4.15724C25.7188 4.1963 25.8398 4.24709 25.957 4.30959C26.0742 4.36427 26.168 4.43459 26.2383 4.52052C26.457 4.77052 26.6289 5.02834 26.7539 5.29396C26.8867 5.55959 26.9609 5.85255 26.9766 6.17287C26.9922 6.53224 26.9492 6.88771 26.8477 7.23927C26.7539 7.58302 26.5898 7.93849 26.3555 8.30568C26.1289 8.66505 25.8281 9.04005 25.4531 9.43068C25.0781 9.81349 24.625 10.2276 24.0938 10.6729C23.7578 10.9541 23.3828 11.2666 22.9688 11.6104C22.5625 11.9463 22.0703 12.3018 21.4922 12.6768C21.4922 13.4346 21.7188 14.0127 22.1719 14.4111C22.6328 14.8018 23.2617 14.9971 24.0586 14.9971C24.5039 14.9971 24.9531 14.9385 25.4062 14.8213C25.8594 14.7041 26.3047 14.5518 26.7422 14.3643C27.1797 14.169 27.6016 13.9502 28.0078 13.708C28.4219 13.458 28.8086 13.2041 29.168 12.9463C29.832 12.4619 30.4336 11.9815 30.9727 11.5049C31.5117 11.0205 32.0469 10.5127 32.5781 9.98146L33.2109 9.34865C33.5938 9.01271 33.8711 8.84474 34.043 8.84474C34.1367 8.84474 34.1836 8.91896 34.1836 9.0674ZM25.2305 6.73537C25.2227 6.61818 25.2031 6.5049 25.1719 6.39552C25.1484 6.27834 25.1094 6.17677 25.0547 6.09084C25 6.0049 24.9375 5.93849 24.8672 5.89162C24.7969 5.83693 24.7148 5.80959 24.6211 5.80959C24.207 5.83302 23.793 6.08693 23.3789 6.5713C22.9648 7.04787 22.5742 7.68068 22.207 8.46974C22.1211 8.64162 22.043 8.83693 21.9727 9.05568C21.9102 9.26662 21.8477 9.48537 21.7852 9.71193C21.7305 9.93068 21.6797 10.1494 21.6328 10.3682C21.5938 10.5869 21.5586 10.7822 21.5273 10.9541C21.9336 10.6494 22.3086 10.3682 22.6523 10.1104C22.9961 9.85255 23.3164 9.58693 23.6133 9.31349C23.8008 9.14162 23.9922 8.95802 24.1875 8.76271C24.3828 8.55959 24.5586 8.34865 24.7148 8.1299C24.8789 7.91115 25.0078 7.68459 25.1016 7.45021C25.1953 7.21584 25.2383 6.97755 25.2305 6.73537ZM44.0898 8.68068C44.0898 8.80568 44.0547 8.9463 43.9844 9.10255C43.9141 9.25099 43.8203 9.40724 43.7031 9.5713C43.5859 9.73537 43.4531 9.90334 43.3047 10.0752C43.1562 10.2393 43.0078 10.4033 42.8594 10.5674C42.7422 10.7002 42.6172 10.8369 42.4844 10.9776C42.3516 11.1104 42.1992 11.2627 42.0273 11.4346C41.8633 11.5986 41.668 11.794 41.4414 12.0205C41.2148 12.2393 40.9492 12.4971 40.6445 12.794C40.3711 13.0596 40.0664 13.3408 39.7305 13.6377C39.4023 13.9268 39.0664 14.2119 38.7227 14.4932C38.3867 14.7744 38.0586 15.044 37.7383 15.3018C37.418 15.5596 37.1406 15.7861 36.9062 15.9815C36.3438 16.4424 35.8086 16.876 35.3008 17.2822C34.793 17.6963 34.293 18.0674 33.8008 18.3955C32.8242 19.0518 32.0508 19.3799 31.4805 19.3799C31.2852 19.3799 31.0586 19.3291 30.8008 19.2276C30.5352 19.126 30.4023 18.9854 30.4023 18.8057C30.4023 18.2979 30.5938 17.8994 30.9766 17.6104C31.3516 17.3369 31.9375 17.0401 32.7344 16.7197C33.5156 16.4072 34.1016 16.1026 34.4922 15.8057C34.8828 15.5088 35.0781 15.1026 35.0781 14.5869C35.0781 14.3291 34.8086 13.8057 34.2695 13.0166C34.0039 12.6182 33.7656 12.2549 33.5547 11.9268C33.3516 11.5908 33.1758 11.2901 33.0273 11.0244C32.7305 10.4776 32.582 9.90334 32.582 9.30177C32.582 8.77834 32.6797 8.22755 32.875 7.64943C32.9688 7.3213 33.1172 6.99318 33.3203 6.66505C33.5312 6.32912 33.7578 6.03224 34 5.77443C34.2422 5.5088 34.4883 5.29787 34.7383 5.14162C34.9883 4.98537 35.207 4.91115 35.3945 4.91896C36.082 4.91896 36.4258 5.32521 36.4258 6.13771C36.4258 6.45021 36.3125 6.7549 36.0859 7.05177C35.9766 7.1924 35.8438 7.34084 35.6875 7.49709C35.5312 7.64552 35.3516 7.80568 35.1484 7.97755C34.9531 8.14162 34.7852 8.28615 34.6445 8.41115C34.5117 8.53615 34.4023 8.64162 34.3164 8.72755C34.3164 9.1338 34.4414 9.61037 34.6914 10.1572C34.8242 10.4229 34.9766 10.7119 35.1484 11.0244C35.3203 11.3369 35.5195 11.6729 35.7461 12.0322C35.9727 12.3916 36.1641 12.7158 36.3203 13.0049C36.4766 13.2861 36.5938 13.4932 36.6719 13.626C36.6797 13.6572 36.7227 13.6729 36.8008 13.6729C36.9102 13.6729 37.0977 13.5947 37.3633 13.4385C37.6367 13.2744 37.957 13.0596 38.3242 12.794C38.6992 12.5205 39.1055 12.208 39.543 11.8565C39.9805 11.4971 40.418 11.1182 40.8555 10.7197C41.3086 10.3135 41.6836 9.95802 41.9805 9.65334C42.2773 9.34865 42.5586 9.06349 42.8242 8.79787C43.0898 8.53224 43.2852 8.32912 43.4102 8.18849C43.543 8.04005 43.6172 7.96584 43.6328 7.96584C43.6953 7.96584 43.7539 7.98927 43.8086 8.03615C43.8633 8.08302 43.9102 8.14552 43.9492 8.22365C43.9961 8.29396 44.0312 8.37209 44.0547 8.45802C44.0781 8.53615 44.0898 8.61037 44.0898 8.68068ZM47.9023 8.29396C47.9023 7.70802 47.8125 7.28615 47.6328 7.02834C47.4609 6.77052 47.2617 6.64162 47.0352 6.64162C46.8398 6.64162 46.6406 6.68068 46.4375 6.7588C46.2422 6.82912 46.0547 6.92287 45.875 7.04005C45.6953 7.15724 45.5312 7.28615 45.3828 7.42677C45.2344 7.5674 45.1133 7.70412 45.0195 7.83693C44.832 8.08693 44.6328 8.37209 44.4219 8.6924C44.2188 9.01271 44.0117 9.34865 43.8008 9.70021C43.5977 10.0518 43.4023 10.4111 43.2148 10.7783C43.0273 11.1455 42.8594 11.5049 42.7109 11.8565C42.5703 12.2002 42.457 12.5322 42.3711 12.8526C42.2852 13.1651 42.2422 13.4463 42.2422 13.6963C42.2422 14.0635 42.3125 14.3604 42.4531 14.5869C42.5938 14.8057 42.8594 14.9151 43.25 14.9151C43.3828 14.9151 43.5781 14.833 43.8359 14.669C44.0938 14.4971 44.3672 14.2822 44.6562 14.0244C44.9531 13.7666 45.2422 13.4893 45.5234 13.1924C45.8047 12.8877 46.0352 12.5986 46.2148 12.3252C46.4102 12.0361 46.6055 11.7197 46.8008 11.376C47.0039 11.0322 47.1875 10.6807 47.3516 10.3213C47.5156 9.96193 47.6484 9.61037 47.75 9.26662C47.8516 8.91505 47.9023 8.59084 47.9023 8.29396ZM54.4531 13.5205C54.4531 13.6455 54.4258 13.7901 54.3711 13.9541C54.3242 14.1104 54.2461 14.2705 54.1367 14.4346C53.9961 14.6768 53.8086 14.9268 53.5742 15.1846C53.3477 15.4346 53.0898 15.6651 52.8008 15.876C52.5195 16.0791 52.2109 16.2471 51.875 16.3799C51.5391 16.5127 51.1914 16.5791 50.832 16.5791C50.3633 16.5791 49.957 16.4736 49.6133 16.2627C49.2773 16.0518 48.9844 15.7666 48.7344 15.4072C48.4922 15.0401 48.2891 14.6143 48.125 14.1299C47.9688 13.6455 47.8398 13.1338 47.7383 12.5947C47.3945 13.0947 46.9844 13.5908 46.5078 14.083C46.0391 14.5752 45.5508 15.0205 45.043 15.419C44.543 15.8096 44.0469 16.1299 43.5547 16.3799C43.0703 16.6221 42.6406 16.7432 42.2656 16.7432C42.0156 16.7432 41.7734 16.6807 41.5391 16.5557C41.3125 16.4307 41.1094 16.2627 40.9297 16.0518C40.7578 15.8408 40.6211 15.5986 40.5195 15.3252C40.418 15.0518 40.3672 14.7627 40.3672 14.458C40.3672 14.1533 40.3906 13.833 40.4375 13.4971C40.4922 13.1611 40.5781 12.8018 40.6953 12.419C40.8203 12.0283 40.9766 11.6065 41.1641 11.1533C41.3594 10.7002 41.5977 10.2041 41.8789 9.66505C42.1914 9.05568 42.5625 8.48146 42.9922 7.9424C43.4219 7.39552 43.8594 6.91896 44.3047 6.51271C44.75 6.09865 45.1719 5.77443 45.5703 5.54005C45.9766 5.29787 46.3047 5.17677 46.5547 5.17677C46.625 5.17677 46.7031 5.1924 46.7891 5.22365C46.8828 5.2549 46.9766 5.29005 47.0703 5.32912C47.1719 5.36037 47.2656 5.39162 47.3516 5.42287C47.4453 5.4463 47.5234 5.45802 47.5859 5.45802C47.6484 5.45802 47.7109 5.4463 47.7734 5.42287C47.8359 5.39162 47.8984 5.36037 47.9609 5.32912C48.0234 5.29005 48.0859 5.2549 48.1484 5.22365C48.2109 5.1924 48.2734 5.17677 48.3359 5.17677C48.4297 5.17677 48.5312 5.20802 48.6406 5.27052C48.75 5.33302 48.8555 5.41505 48.957 5.51662C49.0586 5.61037 49.1484 5.71974 49.2266 5.84474C49.3047 5.96974 49.3594 6.09084 49.3906 6.20802C49.4219 6.34865 49.4609 6.45412 49.5078 6.52443C49.5625 6.58693 49.6133 6.64552 49.6602 6.70021C49.7148 6.7549 49.7578 6.8213 49.7891 6.89943C49.8281 6.96974 49.8477 7.08302 49.8477 7.23927C49.8477 7.3174 49.8203 7.48146 49.7656 7.73146C49.7109 7.98146 49.6484 8.27443 49.5781 8.61037C49.5156 8.93849 49.457 9.28224 49.4023 9.64162C49.3477 10.001 49.3203 10.3291 49.3203 10.626C49.3203 11.4619 49.3672 12.1455 49.4609 12.6768C49.5547 13.208 49.6836 13.6299 49.8477 13.9424C50.0117 14.2471 50.2031 14.458 50.4219 14.5752C50.6484 14.6924 50.8867 14.751 51.1367 14.751C51.7305 14.751 52.2148 14.6494 52.5898 14.4463C52.9727 14.2432 53.3125 13.9424 53.6094 13.544C53.6953 13.4346 53.7695 13.3369 53.832 13.251C53.8945 13.1651 53.957 13.1221 54.0195 13.1221C54.1289 13.1221 54.2266 13.1651 54.3125 13.251C54.4062 13.3369 54.4531 13.4268 54.4531 13.5205ZM76.7734 2.27052C76.7734 2.37209 76.7617 2.49709 76.7383 2.64552C76.7148 2.79396 76.6797 2.9463 76.6328 3.10255C76.5938 3.25099 76.543 3.39552 76.4805 3.53615C76.4258 3.66896 76.3633 3.77443 76.293 3.85255C76.1055 4.07912 75.7695 4.1924 75.2852 4.1924C75.2852 3.66115 75.2109 3.21974 75.0625 2.86818C74.9922 2.70412 74.8633 2.5674 74.6758 2.45802C74.4961 2.34084 74.293 2.24318 74.0664 2.16505C73.8398 2.08693 73.6094 2.03224 73.375 2.00099C73.1484 1.96193 72.9531 1.9424 72.7891 1.9424C72.4141 1.9424 72.0508 1.95021 71.6992 1.96584C71.3555 1.98146 71.0156 2.01662 70.6797 2.0713C70.3516 2.11818 70.0156 2.18849 69.6719 2.28224C69.3359 2.36818 68.9844 2.48537 68.6172 2.6338C68.3359 2.75099 68.043 2.89162 67.7383 3.05568C67.4336 3.21193 67.1523 3.39162 66.8945 3.59474C66.6367 3.79787 66.4141 4.02052 66.2266 4.26271C66.0391 4.5049 65.9219 4.77052 65.875 5.05959C65.8594 5.27834 65.9258 5.52834 66.0742 5.80959C66.2227 6.09084 66.4219 6.36427 66.6719 6.6299C66.9297 6.89552 67.2227 7.13771 67.5508 7.35646C67.8867 7.57521 68.2344 7.73537 68.5938 7.83693C68.6562 7.86037 68.8008 7.91115 69.0273 7.98927C69.2539 8.0674 69.4961 8.14943 69.7539 8.23537C70.0195 8.3213 70.2617 8.40334 70.4805 8.48146C70.707 8.55177 70.8516 8.59474 70.9141 8.61037C72.6797 9.06349 73.9883 9.60255 74.8398 10.2276C75.6992 10.8447 76.1289 11.6026 76.1289 12.501C76.1289 12.7901 76.0625 13.0791 75.9297 13.3682C75.8047 13.6494 75.6445 13.9229 75.4492 14.1885C75.2539 14.4463 75.043 14.6846 74.8164 14.9033C74.5898 15.1221 74.3789 15.3057 74.1836 15.4541C73.957 15.6338 73.6992 15.8213 73.4102 16.0166C73.1211 16.2041 72.8125 16.3877 72.4844 16.5674C72.1562 16.7471 71.8164 16.9151 71.4648 17.0713C71.1133 17.2276 70.7578 17.3643 70.3984 17.4815C70.0469 17.5986 69.6758 17.7041 69.2852 17.7979C68.9023 17.8994 68.5195 17.9854 68.1367 18.0557C67.7617 18.126 67.3984 18.1807 67.0469 18.2197C66.7031 18.2666 66.3945 18.2901 66.1211 18.2901C65.918 18.2901 65.6523 18.2588 65.3242 18.1963C65.0039 18.1416 64.6875 18.0596 64.375 17.9502C64.0625 17.8486 63.793 17.7236 63.5664 17.5752C63.3477 17.4346 63.2383 17.2822 63.2383 17.1182C63.2383 17.0166 63.25 16.8916 63.2734 16.7432C63.3047 16.5947 63.3438 16.4502 63.3906 16.3096C63.4453 16.169 63.5039 16.0518 63.5664 15.958C63.6367 15.8565 63.7148 15.8057 63.8008 15.8057C63.957 15.8057 64.1172 15.833 64.2812 15.8877C64.4531 15.9346 64.6523 15.9893 64.8789 16.0518C65.1133 16.1143 65.3867 16.1729 65.6992 16.2276C66.0195 16.2744 66.4062 16.2979 66.8594 16.2979C67.3281 16.2979 67.8125 16.251 68.3125 16.1572C68.8203 16.0557 69.3164 15.9229 69.8008 15.7588C70.2852 15.5947 70.7461 15.4072 71.1836 15.1963C71.6289 14.9854 72.0273 14.7666 72.3789 14.5401C72.543 14.4307 72.7227 14.3057 72.918 14.1651C73.1211 14.0166 73.3086 13.8565 73.4805 13.6846C73.6523 13.5127 73.7969 13.3291 73.9141 13.1338C74.0312 12.9385 74.0898 12.7354 74.0898 12.5244C74.0898 12.2276 73.8711 11.9424 73.4336 11.669C73.0039 11.4033 72.5625 11.1963 72.1094 11.0479C71.6641 10.8994 71.2656 10.7822 70.9141 10.6963C70.4844 10.5869 70 10.4424 69.4609 10.2627C68.9297 10.083 68.3438 9.86818 67.7031 9.61818C66.6406 9.21193 65.7422 8.61818 65.0078 7.83693C64.2734 7.05568 63.9062 6.11427 63.9062 5.01271C63.8906 4.49709 64.0469 4.00099 64.375 3.52443C64.7109 3.04787 65.1602 2.60646 65.7227 2.20021C66.2852 1.79396 66.9258 1.43459 67.6445 1.12209C68.3711 0.801773 69.1172 0.551773 69.8828 0.372086C70.0391 0.340836 70.2266 0.305679 70.4453 0.266617C70.6719 0.227554 70.9023 0.196304 71.1367 0.172867C71.3789 0.141617 71.6094 0.118179 71.8281 0.102554C72.0547 0.0791168 72.2461 0.0673981 72.4023 0.0673981C72.5898 0.0673981 72.8242 0.0830231 73.1055 0.114273C73.3945 0.137711 73.6875 0.172867 73.9844 0.219742C74.2891 0.266617 74.5742 0.325211 74.8398 0.395523C75.1133 0.465836 75.332 0.547867 75.4961 0.641617C75.8945 0.852554 76.207 1.10646 76.4336 1.40334C76.6602 1.70021 76.7734 1.98927 76.7734 2.27052ZM93.2656 8.3174C93.2656 8.4424 93.1797 8.64943 93.0078 8.93849C92.6953 9.43849 92.3047 9.97755 91.8359 10.5557C91.375 11.1338 90.8594 11.7158 90.2891 12.3018C89.7266 12.8799 89.125 13.4385 88.4844 13.9776C87.8516 14.5166 87.207 14.9932 86.5508 15.4072C85.8945 15.8135 85.2461 16.1416 84.6055 16.3916C83.9648 16.6416 83.3555 16.7666 82.7773 16.7666H82.6953C81.3594 16.7666 80.3594 16.3838 79.6953 15.6182C79.0312 14.8526 78.6992 13.7861 78.6992 12.419C78.6992 11.8721 78.7422 11.294 78.8281 10.6846C78.9141 10.0752 79.0625 9.45802 79.2734 8.83302C79.4922 8.20021 79.7852 7.5713 80.1523 6.9463C80.5273 6.31349 81 5.70412 81.5703 5.11818C82 4.68849 82.4531 4.36037 82.9297 4.1338C83.4062 3.89943 83.8555 3.78224 84.2773 3.78224C84.3398 3.78224 84.4219 3.79787 84.5234 3.82912C84.625 3.86037 84.7266 3.90334 84.8281 3.95802C84.9375 4.0049 85.0391 4.0674 85.1328 4.14552C85.2344 4.21584 85.3203 4.29396 85.3906 4.3799C85.6094 4.66115 85.7695 4.93068 85.8711 5.18849C85.9727 5.4463 86.0234 5.74709 86.0234 6.09084C86.0234 6.54396 85.9609 6.95802 85.8359 7.33302C85.7109 7.70021 85.5312 8.05959 85.2969 8.41115C85.0625 8.76271 84.7734 9.11818 84.4297 9.47755C84.0859 9.82912 83.6914 10.2119 83.2461 10.626C83.0977 10.7666 82.9219 10.9229 82.7188 11.0947C82.5156 11.2666 82.2969 11.4463 82.0625 11.6338C81.8281 11.8213 81.5859 12.0166 81.3359 12.2197C81.0859 12.4229 80.8398 12.6221 80.5977 12.8174C80.6602 14.2158 81.4375 14.9151 82.9297 14.9151C83.7578 14.9151 84.6406 14.6963 85.5781 14.2588C86.0391 14.0401 86.4688 13.7901 86.8672 13.5088C87.2656 13.2197 87.6562 12.9268 88.0391 12.6299C88.2266 12.4815 88.4336 12.3057 88.6602 12.1026C88.8867 11.8994 89.1172 11.6846 89.3516 11.458C89.5938 11.2315 89.832 11.0049 90.0664 10.7783C90.3086 10.5518 90.5352 10.3369 90.7461 10.1338C90.8789 10.001 91.0195 9.86037 91.168 9.71193C91.3242 9.56349 91.4883 9.40334 91.6602 9.23146L92.293 8.59865C92.6758 8.26271 92.9531 8.09474 93.125 8.09474C93.2188 8.09474 93.2656 8.16896 93.2656 8.3174ZM84.2422 6.55959C84.2422 6.32521 84.1797 6.12209 84.0547 5.95021C83.9297 5.77052 83.7773 5.68068 83.5977 5.68068C83.4648 5.68068 83.293 5.73537 83.082 5.84474C82.8789 5.95412 82.6602 6.14943 82.4258 6.43068C81.9492 7.0088 81.543 7.70802 81.207 8.52834C80.8711 9.34084 80.6367 10.2471 80.5039 11.2471C80.9961 10.8486 81.4102 10.4932 81.7461 10.1807C82.0898 9.86818 82.3984 9.57521 82.6719 9.30177C82.8594 9.11427 83.043 8.91505 83.2227 8.70412C83.4102 8.49318 83.5781 8.27052 83.7266 8.03615C83.8828 7.80177 84.0078 7.55959 84.1016 7.30959C84.1953 7.05959 84.2422 6.80959 84.2422 6.55959ZM111.141 8.77443C111.141 8.92287 111.113 9.07521 111.059 9.23146C111.012 9.3799 110.949 9.53224 110.871 9.68849C110.801 9.83693 110.719 9.98537 110.625 10.1338C110.531 10.2744 110.441 10.4111 110.355 10.544C110.129 10.8955 109.863 11.2549 109.559 11.6221C109.254 11.9815 108.926 12.333 108.574 12.6768C108.23 13.0205 107.875 13.3447 107.508 13.6494C107.141 13.9541 106.781 14.2236 106.43 14.458C106.148 14.6455 105.879 14.8213 105.621 14.9854C105.371 15.1494 105.117 15.2901 104.859 15.4072C104.602 15.5244 104.332 15.6182 104.051 15.6885C103.77 15.7588 103.461 15.794 103.125 15.794C102.477 15.794 101.949 15.6299 101.543 15.3018C101.34 15.1377 101.16 14.9268 101.004 14.669C100.855 14.4033 100.723 14.1104 100.605 13.7901C100.496 13.4697 100.398 13.1299 100.312 12.7705C100.234 12.4111 100.168 12.0557 100.113 11.7041C100.043 11.2666 99.9766 10.876 99.9141 10.5322C99.8516 10.1807 99.7773 9.88771 99.6914 9.65334C99.6133 9.41115 99.5156 9.22755 99.3984 9.10255C99.2812 8.96974 99.1289 8.90334 98.9414 8.90334C98.793 8.90334 98.6523 8.91896 98.5195 8.95021C98.3867 8.98146 98.2461 9.04396 98.0977 9.13771C97.957 9.23146 97.8008 9.36427 97.6289 9.53615C97.457 9.70802 97.2539 9.93459 97.0195 10.2158C96.793 10.4971 96.5312 10.8408 96.2344 11.2471C95.9375 11.6533 95.5898 12.1377 95.1914 12.7002C94.9961 12.9736 94.7656 13.2744 94.5 13.6026C94.2344 13.9307 93.9609 14.2432 93.6797 14.5401C93.4062 14.8369 93.1367 15.0986 92.8711 15.3252C92.6055 15.5518 92.3711 15.6963 92.168 15.7588C91.4805 15.6104 91.1367 14.7549 91.1367 13.1924C91.1367 12.7783 91.1836 12.1494 91.2773 11.3057C91.3242 10.9229 91.3789 10.5244 91.4414 10.1104C91.5039 9.68849 91.582 9.27052 91.6758 8.85646C91.7695 8.43459 91.875 8.02834 91.9922 7.63771C92.1172 7.23927 92.2617 6.87209 92.4258 6.53615C92.5039 6.3799 92.5859 6.2588 92.6719 6.17287C92.7578 6.07912 92.8438 6.01271 92.9297 5.97365C93.0234 5.92677 93.1172 5.89943 93.2109 5.89162C93.3125 5.87599 93.4141 5.86818 93.5156 5.86818C93.6406 5.86818 93.75 5.95412 93.8438 6.12599C93.9453 6.29787 93.9961 6.53615 93.9961 6.84084C93.9961 7.02834 93.9805 7.20412 93.9492 7.36818C93.918 7.53224 93.875 7.70021 93.8203 7.87209C93.7656 8.04396 93.707 8.23146 93.6445 8.43459C93.582 8.6299 93.5195 8.85646 93.457 9.11427C93.4102 9.32521 93.3555 9.55959 93.293 9.8174C93.2383 10.0752 93.1836 10.3369 93.1289 10.6026C93.082 10.8682 93.0391 11.1299 93 11.3877C92.9688 11.6377 92.9531 11.8643 92.9531 12.0674C92.9531 12.208 92.9766 12.3526 93.0234 12.501C93.2422 12.4776 93.6016 12.1494 94.1016 11.5166C94.3594 11.1963 94.6406 10.8447 94.9453 10.4619C95.2578 10.0791 95.5938 9.65724 95.9531 9.1963C96.2188 8.85255 96.4805 8.53224 96.7383 8.23537C97.0039 7.93849 97.2773 7.68068 97.5586 7.46193C97.8398 7.23537 98.1367 7.05959 98.4492 6.93459C98.7695 6.80177 99.1211 6.73537 99.5039 6.73537C99.9102 6.73537 100.246 6.82521 100.512 7.0049C100.785 7.17677 101.004 7.41896 101.168 7.73146C101.332 8.03615 101.457 8.40334 101.543 8.83302C101.637 9.26271 101.711 9.73537 101.766 10.251C101.812 10.6885 101.855 11.1221 101.895 11.5518C101.941 11.9815 102.027 12.3682 102.152 12.7119C102.277 13.0479 102.457 13.3213 102.691 13.5322C102.926 13.7432 103.262 13.8486 103.699 13.8486C104.035 13.8486 104.387 13.7705 104.754 13.6143C105.121 13.458 105.508 13.2432 105.914 12.9697C106.32 12.6885 106.738 12.3604 107.168 11.9854C107.605 11.6104 108.055 11.2002 108.516 10.7549C108.695 10.583 108.891 10.3682 109.102 10.1104C109.32 9.84474 109.531 9.59084 109.734 9.34865C109.945 9.10646 110.141 8.89943 110.32 8.72755C110.5 8.55568 110.645 8.46974 110.754 8.46974C110.801 8.46974 110.875 8.49318 110.977 8.54005C111.086 8.58693 111.141 8.66505 111.141 8.77443ZM117.309 8.15334C117.246 8.6924 117.195 9.29005 117.156 9.9463C117.117 10.6026 117.066 11.333 117.004 12.1377C116.98 12.4346 116.949 12.7705 116.91 13.1455C116.871 13.5205 116.828 13.9072 116.781 14.3057C116.734 14.7041 116.688 15.0986 116.641 15.4893C116.594 15.8721 116.547 16.2197 116.5 16.5322C116.43 16.9854 116.34 17.4541 116.23 17.9385C116.121 18.4307 115.984 18.9151 115.82 19.3916C115.656 19.8682 115.453 20.3213 115.211 20.751C114.977 21.1807 114.695 21.5557 114.367 21.876C114.039 22.2041 113.656 22.4619 113.219 22.6494C112.789 22.8447 112.297 22.9424 111.742 22.9424C111.391 22.9424 111.035 22.8994 110.676 22.8135C110.316 22.7276 109.961 22.6104 109.609 22.4619C109.266 22.3213 108.93 22.1494 108.602 21.9463C108.281 21.751 107.984 21.5401 107.711 21.3135C107.406 21.0635 107.137 20.8057 106.902 20.5401C106.668 20.2822 106.473 20.0166 106.316 19.7432C106.16 19.4776 106.082 19.2158 106.082 18.958C106.082 18.7158 106.16 18.5947 106.316 18.5947C106.371 18.5947 106.43 18.6221 106.492 18.6768C106.523 18.7002 106.562 18.7354 106.609 18.7822C106.648 18.8291 106.688 18.8721 106.727 18.9111C106.766 18.958 106.801 18.9971 106.832 19.0283C106.863 19.0674 106.883 19.0908 106.891 19.0986C108.398 20.4893 110.008 21.1846 111.719 21.1846C112.289 21.1846 112.754 21.0518 113.113 20.7861C113.48 20.5283 113.77 20.1885 113.98 19.7666C114.199 19.3526 114.363 18.8877 114.473 18.3721C114.59 17.8643 114.688 17.3604 114.766 16.8604C114.812 16.5479 114.852 16.2354 114.883 15.9229C114.922 15.6104 114.957 15.2861 114.988 14.9502C115.02 14.6065 115.051 14.2471 115.082 13.8721C115.113 13.4971 115.148 13.0908 115.188 12.6533C114.867 12.9971 114.461 13.3643 113.969 13.7549C113.484 14.1377 112.961 14.4932 112.398 14.8213C111.844 15.1494 111.281 15.4229 110.711 15.6416C110.148 15.8526 109.629 15.958 109.152 15.958C108.949 15.958 108.762 15.9111 108.59 15.8174C108.418 15.7236 108.27 15.5908 108.145 15.419C108.02 15.2393 107.918 15.0244 107.84 14.7744C107.77 14.5166 107.734 14.2315 107.734 13.919C107.734 13.4658 107.812 12.9815 107.969 12.4658C108.125 11.9502 108.324 11.4385 108.566 10.9307C108.809 10.4151 109.078 9.91896 109.375 9.4424C109.672 8.95802 109.961 8.52443 110.242 8.14162C110.523 7.76662 110.863 7.37599 111.262 6.96974C111.66 6.55568 112.086 6.18068 112.539 5.84474C113 5.50099 113.477 5.21974 113.969 5.00099C114.461 4.78224 114.941 4.67287 115.41 4.67287C115.824 4.67287 116.211 4.76662 116.57 4.95412C116.93 5.1338 117.207 5.40724 117.402 5.77443C117.449 5.86037 117.477 5.98927 117.484 6.16115C117.492 6.32521 117.488 6.51662 117.473 6.73537C117.457 6.9463 117.434 7.17677 117.402 7.42677C117.371 7.66896 117.34 7.91115 117.309 8.15334ZM115.387 10.2861C115.418 10.0518 115.449 9.77052 115.48 9.4424C115.512 9.10646 115.551 8.6924 115.598 8.20021C115.621 7.9424 115.645 7.68459 115.668 7.42677C115.699 7.16896 115.691 6.95802 115.645 6.79396C115.582 6.5674 115.461 6.42287 115.281 6.36037C115.102 6.29787 114.809 6.26662 114.402 6.26662C114.027 6.50099 113.652 6.79005 113.277 7.1338C112.91 7.47755 112.555 7.84865 112.211 8.24709C111.875 8.64552 111.562 9.05959 111.273 9.48927C110.984 9.91115 110.73 10.3252 110.512 10.7315C110.27 11.1768 110.078 11.6221 109.938 12.0674C109.797 12.5049 109.727 12.876 109.727 13.1807C109.727 13.3135 109.75 13.4229 109.797 13.5088C109.852 13.5947 109.918 13.6651 109.996 13.7197C110.082 13.7666 110.176 13.8018 110.277 13.8252C110.387 13.8408 110.496 13.8486 110.605 13.8486C110.879 13.8486 111.172 13.7901 111.484 13.6729C111.805 13.5557 112.121 13.4111 112.434 13.2393C112.746 13.0674 113.043 12.8877 113.324 12.7002C113.605 12.5049 113.848 12.3291 114.051 12.1729C114.137 12.1104 114.25 12.0127 114.391 11.8799C114.531 11.7471 114.672 11.5947 114.812 11.4229C114.953 11.2432 115.078 11.0557 115.188 10.8604C115.297 10.6651 115.363 10.4736 115.387 10.2861ZM128.41 8.49318C128.41 8.91505 128.395 9.42677 128.363 10.0283C128.332 10.6299 128.285 11.333 128.223 12.1377C128.191 12.6299 128.141 13.2002 128.07 13.8486C128.008 14.4893 127.922 15.1533 127.812 15.8408C127.711 16.5205 127.586 17.1885 127.438 17.8447C127.297 18.5088 127.137 19.0947 126.957 19.6026C126.801 20.0557 126.602 20.4854 126.359 20.8916C126.117 21.2979 125.828 21.6533 125.492 21.958C125.164 22.2627 124.789 22.501 124.367 22.6729C123.945 22.8526 123.477 22.9424 122.961 22.9424C122.617 22.9424 122.266 22.8994 121.906 22.8135C121.547 22.7276 121.191 22.6104 120.84 22.4619C120.496 22.3135 120.16 22.1416 119.832 21.9463C119.504 21.751 119.203 21.5401 118.93 21.3135C118.625 21.0635 118.355 20.8057 118.121 20.5401C117.887 20.2822 117.691 20.0166 117.535 19.7432C117.379 19.4697 117.301 19.208 117.301 18.958C117.301 18.7158 117.379 18.5947 117.535 18.5947C117.598 18.5947 117.656 18.6221 117.711 18.6768C117.742 18.7002 117.781 18.7315 117.828 18.7705C117.867 18.8174 117.906 18.8643 117.945 18.9111C117.984 18.958 118.02 18.9971 118.051 19.0283C118.082 19.0674 118.102 19.0908 118.109 19.0986C119.617 20.4893 121.227 21.1846 122.938 21.1846C123.508 21.1846 123.973 21.0518 124.332 20.7861C124.699 20.5283 124.988 20.1885 125.199 19.7666C125.418 19.3526 125.582 18.8877 125.691 18.3721C125.809 17.8643 125.906 17.3604 125.984 16.8604C126.031 16.5479 126.07 16.2354 126.102 15.9229C126.141 15.6026 126.176 15.2744 126.207 14.9385C126.238 14.5947 126.27 14.2354 126.301 13.8604C126.332 13.4854 126.367 13.083 126.406 12.6533C126.086 13.0049 125.691 13.3526 125.223 13.6963C124.754 14.0322 124.254 14.3369 123.723 14.6104C123.191 14.876 122.652 15.0908 122.105 15.2549C121.559 15.419 121.051 15.501 120.582 15.501C120.457 15.501 120.297 15.4893 120.102 15.4658C119.914 15.4346 119.727 15.3838 119.539 15.3135C119.359 15.2432 119.203 15.1533 119.07 15.044C118.945 14.9268 118.883 14.7861 118.883 14.6221C118.883 14.169 118.965 13.6494 119.129 13.0635C119.293 12.4776 119.5 11.8838 119.75 11.2822C120.008 10.6729 120.285 10.0947 120.582 9.54787C120.887 8.99318 121.18 8.52443 121.461 8.14162C121.836 7.62599 122.242 7.15724 122.68 6.73537C123.117 6.31349 123.551 5.95021 123.98 5.64552C124.418 5.34084 124.836 5.10646 125.234 4.9424C125.633 4.77834 125.98 4.6963 126.277 4.6963C126.488 4.6963 126.715 4.71584 126.957 4.7549C127.199 4.79396 127.43 4.85646 127.648 4.9424C127.875 5.02052 128.078 5.12599 128.258 5.2588C128.438 5.39162 128.57 5.55177 128.656 5.73927C128.703 5.83302 128.715 5.98537 128.691 6.1963C128.668 6.39943 128.637 6.6299 128.598 6.88771C128.559 7.14552 128.516 7.41896 128.469 7.70802C128.43 7.98927 128.41 8.25099 128.41 8.49318ZM126.453 10.4502C126.484 10.2549 126.516 10.0283 126.547 9.77052C126.586 9.51271 126.617 9.23537 126.641 8.93849C126.664 8.64162 126.684 8.32912 126.699 8.00099C126.715 7.67287 126.723 7.34474 126.723 7.01662C126.723 6.81349 126.637 6.65334 126.465 6.53615C126.293 6.41115 126.082 6.34865 125.832 6.34865C125.676 6.34865 125.434 6.46584 125.105 6.70021C124.777 6.92677 124.414 7.23927 124.016 7.63771C123.625 8.02834 123.227 8.48927 122.82 9.02052C122.414 9.55177 122.051 10.1221 121.73 10.7315C121.613 10.9502 121.504 11.2041 121.402 11.4932C121.309 11.7744 121.227 12.0635 121.156 12.3604C121.086 12.6494 121.031 12.9307 120.992 13.2041C120.961 13.4776 120.945 13.708 120.945 13.8955C121.18 13.8565 121.441 13.8057 121.73 13.7432C122.02 13.6729 122.316 13.5908 122.621 13.4971C122.934 13.4033 123.238 13.2979 123.535 13.1807C123.832 13.0635 124.102 12.9346 124.344 12.794C124.586 12.6533 124.824 12.4932 125.059 12.3135C125.293 12.1338 125.508 11.9424 125.703 11.7393C125.898 11.5361 126.062 11.3252 126.195 11.1065C126.328 10.8877 126.414 10.669 126.453 10.4502ZM141.727 8.0713C141.727 8.18849 141.672 8.29005 141.562 8.37599C141.461 8.45412 141.324 8.52834 141.152 8.59865C140.98 8.66896 140.785 8.73537 140.566 8.79787C140.355 8.85255 140.145 8.91505 139.934 8.98537C139.426 9.14162 138.902 9.36818 138.363 9.66505C137.832 9.95412 137.277 10.3916 136.699 10.9776C136.246 11.4385 135.855 11.9229 135.527 12.4307C135.207 12.9307 134.93 13.4619 134.695 14.0244C134.461 14.5869 134.262 15.1846 134.098 15.8174C133.934 16.4424 133.793 17.1104 133.676 17.8213C133.59 17.9151 133.516 17.9971 133.453 18.0674C133.391 18.1377 133.324 18.1963 133.254 18.2432C133.184 18.2901 133.102 18.3252 133.008 18.3486C132.922 18.3799 132.809 18.3955 132.668 18.3955C132.465 18.3955 132.305 18.3057 132.188 18.126C132.078 17.9541 131.996 17.7471 131.941 17.5049C131.887 17.2705 131.852 17.0322 131.836 16.7901C131.828 16.5479 131.824 16.3565 131.824 16.2158C131.824 16.0674 131.828 15.8799 131.836 15.6533C131.844 15.419 131.852 15.1651 131.859 14.8916C131.875 14.6182 131.891 14.3369 131.906 14.0479C131.922 13.751 131.934 13.4658 131.941 13.1924C131.957 12.919 131.969 12.669 131.977 12.4424C131.984 12.208 131.988 12.0166 131.988 11.8682C131.988 11.5088 131.98 11.2119 131.965 10.9776C131.957 10.7432 131.945 10.544 131.93 10.3799C131.914 10.2158 131.895 10.0713 131.871 9.9463C131.848 9.81349 131.828 9.67287 131.812 9.52443C131.797 9.36818 131.781 9.18849 131.766 8.98537C131.758 8.77443 131.754 8.5049 131.754 8.17677C131.754 8.01271 131.789 7.85646 131.859 7.70802C131.93 7.55177 132.02 7.41896 132.129 7.30959C132.246 7.1924 132.375 7.10255 132.516 7.04005C132.664 6.96974 132.809 6.93459 132.949 6.93459C133.113 6.93459 133.266 6.96974 133.406 7.04005C133.547 7.11037 133.668 7.20021 133.77 7.30959C133.871 7.41896 133.949 7.54787 134.004 7.6963C134.059 7.83693 134.086 7.98146 134.086 8.1299C134.086 8.42677 134.066 8.78224 134.027 9.1963C133.988 9.60255 133.945 10.0205 133.898 10.4502C133.859 10.8721 133.824 11.2822 133.793 11.6807C133.762 12.0713 133.75 12.3994 133.758 12.6651C134.094 12.0244 134.48 11.376 134.918 10.7197C135.363 10.0635 135.855 9.46974 136.395 8.93849C136.941 8.39943 137.531 7.96193 138.164 7.62599C138.797 7.28224 139.473 7.11037 140.191 7.11037C140.332 7.11037 140.492 7.12599 140.672 7.15724C140.852 7.18849 141.02 7.24318 141.176 7.3213C141.332 7.39943 141.461 7.50099 141.562 7.62599C141.672 7.74318 141.727 7.89162 141.727 8.0713ZM156.203 8.3174C156.203 8.4424 156.117 8.64943 155.945 8.93849C155.633 9.43849 155.242 9.97755 154.773 10.5557C154.312 11.1338 153.797 11.7158 153.227 12.3018C152.664 12.8799 152.062 13.4385 151.422 13.9776C150.789 14.5166 150.145 14.9932 149.488 15.4072C148.832 15.8135 148.184 16.1416 147.543 16.3916C146.902 16.6416 146.293 16.7666 145.715 16.7666H145.633C144.297 16.7666 143.297 16.3838 142.633 15.6182C141.969 14.8526 141.637 13.7861 141.637 12.419C141.637 11.8721 141.68 11.294 141.766 10.6846C141.852 10.0752 142 9.45802 142.211 8.83302C142.43 8.20021 142.723 7.5713 143.09 6.9463C143.465 6.31349 143.938 5.70412 144.508 5.11818C144.938 4.68849 145.391 4.36037 145.867 4.1338C146.344 3.89943 146.793 3.78224 147.215 3.78224C147.277 3.78224 147.359 3.79787 147.461 3.82912C147.562 3.86037 147.664 3.90334 147.766 3.95802C147.875 4.0049 147.977 4.0674 148.07 4.14552C148.172 4.21584 148.258 4.29396 148.328 4.3799C148.547 4.66115 148.707 4.93068 148.809 5.18849C148.91 5.4463 148.961 5.74709 148.961 6.09084C148.961 6.54396 148.898 6.95802 148.773 7.33302C148.648 7.70021 148.469 8.05959 148.234 8.41115C148 8.76271 147.711 9.11818 147.367 9.47755C147.023 9.82912 146.629 10.2119 146.184 10.626C146.035 10.7666 145.859 10.9229 145.656 11.0947C145.453 11.2666 145.234 11.4463 145 11.6338C144.766 11.8213 144.523 12.0166 144.273 12.2197C144.023 12.4229 143.777 12.6221 143.535 12.8174C143.598 14.2158 144.375 14.9151 145.867 14.9151C146.695 14.9151 147.578 14.6963 148.516 14.2588C148.977 14.0401 149.406 13.7901 149.805 13.5088C150.203 13.2197 150.594 12.9268 150.977 12.6299C151.164 12.4815 151.371 12.3057 151.598 12.1026C151.824 11.8994 152.055 11.6846 152.289 11.458C152.531 11.2315 152.77 11.0049 153.004 10.7783C153.246 10.5518 153.473 10.3369 153.684 10.1338C153.816 10.001 153.957 9.86037 154.105 9.71193C154.262 9.56349 154.426 9.40334 154.598 9.23146L155.23 8.59865C155.613 8.26271 155.891 8.09474 156.062 8.09474C156.156 8.09474 156.203 8.16896 156.203 8.3174ZM147.18 6.55959C147.18 6.32521 147.117 6.12209 146.992 5.95021C146.867 5.77052 146.715 5.68068 146.535 5.68068C146.402 5.68068 146.23 5.73537 146.02 5.84474C145.816 5.95412 145.598 6.14943 145.363 6.43068C144.887 7.0088 144.48 7.70802 144.145 8.52834C143.809 9.34084 143.574 10.2471 143.441 11.2471C143.934 10.8486 144.348 10.4932 144.684 10.1807C145.027 9.86818 145.336 9.57521 145.609 9.30177C145.797 9.11427 145.98 8.91505 146.16 8.70412C146.348 8.49318 146.516 8.27052 146.664 8.03615C146.82 7.80177 146.945 7.55959 147.039 7.30959C147.133 7.05959 147.18 6.80959 147.18 6.55959ZM174.078 8.77443C174.078 8.92287 174.051 9.07521 173.996 9.23146C173.949 9.3799 173.887 9.53224 173.809 9.68849C173.738 9.83693 173.656 9.98537 173.562 10.1338C173.469 10.2744 173.379 10.4111 173.293 10.544C173.066 10.8955 172.801 11.2549 172.496 11.6221C172.191 11.9815 171.863 12.333 171.512 12.6768C171.168 13.0205 170.812 13.3447 170.445 13.6494C170.078 13.9541 169.719 14.2236 169.367 14.458C169.086 14.6455 168.816 14.8213 168.559 14.9854C168.309 15.1494 168.055 15.2901 167.797 15.4072C167.539 15.5244 167.27 15.6182 166.988 15.6885C166.707 15.7588 166.398 15.794 166.062 15.794C165.414 15.794 164.887 15.6299 164.48 15.3018C164.277 15.1377 164.098 14.9268 163.941 14.669C163.793 14.4033 163.66 14.1104 163.543 13.7901C163.434 13.4697 163.336 13.1299 163.25 12.7705C163.172 12.4111 163.105 12.0557 163.051 11.7041C162.98 11.2666 162.914 10.876 162.852 10.5322C162.789 10.1807 162.715 9.88771 162.629 9.65334C162.551 9.41115 162.453 9.22755 162.336 9.10255C162.219 8.96974 162.066 8.90334 161.879 8.90334C161.73 8.90334 161.59 8.91896 161.457 8.95021C161.324 8.98146 161.184 9.04396 161.035 9.13771C160.895 9.23146 160.738 9.36427 160.566 9.53615C160.395 9.70802 160.191 9.93459 159.957 10.2158C159.73 10.4971 159.469 10.8408 159.172 11.2471C158.875 11.6533 158.527 12.1377 158.129 12.7002C157.934 12.9736 157.703 13.2744 157.438 13.6026C157.172 13.9307 156.898 14.2432 156.617 14.5401C156.344 14.8369 156.074 15.0986 155.809 15.3252C155.543 15.5518 155.309 15.6963 155.105 15.7588C154.418 15.6104 154.074 14.7549 154.074 13.1924C154.074 12.7783 154.121 12.1494 154.215 11.3057C154.262 10.9229 154.316 10.5244 154.379 10.1104C154.441 9.68849 154.52 9.27052 154.613 8.85646C154.707 8.43459 154.812 8.02834 154.93 7.63771C155.055 7.23927 155.199 6.87209 155.363 6.53615C155.441 6.3799 155.523 6.2588 155.609 6.17287C155.695 6.07912 155.781 6.01271 155.867 5.97365C155.961 5.92677 156.055 5.89943 156.148 5.89162C156.25 5.87599 156.352 5.86818 156.453 5.86818C156.578 5.86818 156.688 5.95412 156.781 6.12599C156.883 6.29787 156.934 6.53615 156.934 6.84084C156.934 7.02834 156.918 7.20412 156.887 7.36818C156.855 7.53224 156.812 7.70021 156.758 7.87209C156.703 8.04396 156.645 8.23146 156.582 8.43459C156.52 8.6299 156.457 8.85646 156.395 9.11427C156.348 9.32521 156.293 9.55959 156.23 9.8174C156.176 10.0752 156.121 10.3369 156.066 10.6026C156.02 10.8682 155.977 11.1299 155.938 11.3877C155.906 11.6377 155.891 11.8643 155.891 12.0674C155.891 12.208 155.914 12.3526 155.961 12.501C156.18 12.4776 156.539 12.1494 157.039 11.5166C157.297 11.1963 157.578 10.8447 157.883 10.4619C158.195 10.0791 158.531 9.65724 158.891 9.1963C159.156 8.85255 159.418 8.53224 159.676 8.23537C159.941 7.93849 160.215 7.68068 160.496 7.46193C160.777 7.23537 161.074 7.05959 161.387 6.93459C161.707 6.80177 162.059 6.73537 162.441 6.73537C162.848 6.73537 163.184 6.82521 163.449 7.0049C163.723 7.17677 163.941 7.41896 164.105 7.73146C164.27 8.03615 164.395 8.40334 164.48 8.83302C164.574 9.26271 164.648 9.73537 164.703 10.251C164.75 10.6885 164.793 11.1221 164.832 11.5518C164.879 11.9815 164.965 12.3682 165.09 12.7119C165.215 13.0479 165.395 13.3213 165.629 13.5322C165.863 13.7432 166.199 13.8486 166.637 13.8486C166.973 13.8486 167.324 13.7705 167.691 13.6143C168.059 13.458 168.445 13.2432 168.852 12.9697C169.258 12.6885 169.676 12.3604 170.105 11.9854C170.543 11.6104 170.992 11.2002 171.453 10.7549C171.633 10.583 171.828 10.3682 172.039 10.1104C172.258 9.84474 172.469 9.59084 172.672 9.34865C172.883 9.10646 173.078 8.89943 173.258 8.72755C173.438 8.55568 173.582 8.46974 173.691 8.46974C173.738 8.46974 173.812 8.49318 173.914 8.54005C174.023 8.58693 174.078 8.66505 174.078 8.77443ZM181.254 6.0674C181.254 6.17677 181.223 6.3213 181.16 6.50099C181.098 6.67287 181.027 6.91505 180.949 7.22755C180.879 7.53224 180.812 7.92677 180.75 8.41115C180.688 8.88771 180.656 9.48146 180.656 10.1924C180.656 10.3252 180.652 10.6729 180.645 11.2354C180.637 11.7979 180.633 12.4971 180.633 13.333C180.633 15.1768 180.402 16.7236 179.941 17.9736C179.488 19.2315 178.855 20.2354 178.043 20.9854C177.801 21.2119 177.547 21.4111 177.281 21.583C177.023 21.7627 176.742 21.9151 176.438 22.0401C176.133 22.1729 175.801 22.2705 175.441 22.333C175.082 22.4033 174.684 22.4385 174.246 22.4385C173.895 22.4385 173.512 22.3682 173.098 22.2276C172.691 22.0869 172.281 21.9072 171.867 21.6885C171.453 21.4776 171.055 21.2432 170.672 20.9854C170.297 20.7276 169.961 20.4776 169.664 20.2354C169.367 19.9932 169.133 19.7744 168.961 19.5791C168.781 19.3916 168.691 19.2588 168.691 19.1807C168.691 19.0088 168.73 18.8604 168.809 18.7354C168.879 18.6182 169.016 18.5596 169.219 18.5596C169.43 18.5596 169.68 18.6338 169.969 18.7822C170.258 18.9307 170.539 19.0947 170.812 19.2744C171.086 19.4541 171.398 19.6338 171.75 19.8135C172.109 20.001 172.465 20.1729 172.816 20.3291C173.168 20.4854 173.5 20.6104 173.812 20.7041C174.125 20.8057 174.375 20.8565 174.562 20.8565C175.031 20.8565 175.43 20.8018 175.758 20.6924C176.086 20.5908 176.371 20.4463 176.613 20.2588C176.855 20.0713 177.062 19.8526 177.234 19.6026C177.406 19.3526 177.574 19.0791 177.738 18.7822C177.934 18.4463 178.098 18.0361 178.23 17.5518C178.371 17.0752 178.484 16.5479 178.57 15.9697C178.664 15.3916 178.734 14.7744 178.781 14.1182C178.828 13.4619 178.859 12.794 178.875 12.1143C178.5 12.5127 178.055 12.9151 177.539 13.3213C177.023 13.7276 176.473 14.0908 175.887 14.4111C175.309 14.7315 174.715 14.9932 174.105 15.1963C173.496 15.3994 172.91 15.501 172.348 15.501C172.012 15.501 171.738 15.4111 171.527 15.2315C171.316 15.044 171.148 14.8252 171.023 14.5752C170.906 14.3252 170.824 14.0713 170.777 13.8135C170.73 13.5557 170.703 13.3565 170.695 13.2158V13.1455C170.695 12.8955 170.746 12.6026 170.848 12.2666C170.957 11.9307 171.098 11.583 171.27 11.2236C171.441 10.8565 171.633 10.4971 171.844 10.1455C172.062 9.78615 172.273 9.45802 172.477 9.16115C172.812 8.66896 173.227 8.15724 173.719 7.62599C174.211 7.09474 174.746 6.61037 175.324 6.17287C175.91 5.72755 176.527 5.36427 177.176 5.08302C177.832 4.79396 178.488 4.64943 179.145 4.64943C179.465 4.64943 179.754 4.68849 180.012 4.76662C180.27 4.83693 180.488 4.93849 180.668 5.0713C180.855 5.1963 181 5.34474 181.102 5.51662C181.203 5.68849 181.254 5.87209 181.254 6.0674ZM179.215 6.39552C179.152 6.34084 179.07 6.30177 178.969 6.27834C178.875 6.2549 178.766 6.24318 178.641 6.24318C178.367 6.24318 178.066 6.29787 177.738 6.40724C177.41 6.5088 177.125 6.64943 176.883 6.82912C176.367 7.22755 175.91 7.6338 175.512 8.04787C175.113 8.45412 174.738 8.8799 174.387 9.32521C174.277 9.46584 174.148 9.64552 174 9.86427C173.859 10.0752 173.715 10.3135 173.566 10.5791C173.426 10.8369 173.285 11.1065 173.145 11.3877C173.004 11.669 172.875 11.9502 172.758 12.2315C172.648 12.5049 172.559 12.7705 172.488 13.0283C172.426 13.2783 172.395 13.501 172.395 13.6963C172.566 13.7588 172.758 13.7901 172.969 13.7901C173.195 13.7901 173.422 13.7627 173.648 13.708C173.875 13.6533 174.102 13.583 174.328 13.4971C174.555 13.4111 174.785 13.3135 175.02 13.2041C175.254 13.0947 175.496 12.9854 175.746 12.876C175.965 12.7822 176.199 12.6611 176.449 12.5127C176.699 12.3643 176.953 12.2041 177.211 12.0322C177.469 11.8526 177.727 11.669 177.984 11.4815C178.242 11.2861 178.484 11.0986 178.711 10.919C178.766 10.8565 178.816 10.7276 178.863 10.5322C178.91 10.3291 178.949 10.0908 178.98 9.8174C179.02 9.54396 179.051 9.24709 179.074 8.92677C179.098 8.60646 179.117 8.29005 179.133 7.97755C179.156 7.66505 179.172 7.37209 179.18 7.09865C179.195 6.8174 179.207 6.58302 179.215 6.39552Z" fill="#004C8C"/>
</svg>
