<svg width="41" height="41" viewBox="0 0 41 41" fill="none" xmlns="http://www.w3.org/2000/svg">
<g clip-path="url(#clip0_137_7453)">
<path d="M20.8682 3.82189C26.2116 3.82189 26.8388 3.84571 28.9508 3.94098C30.9039 4.02832 31.9599 4.35385 32.6665 4.63173C33.6034 4.99696 34.2703 5.4257 34.969 6.12439C35.6677 6.82308 36.1044 7.49001 36.4617 8.42689C36.7316 9.13352 37.0651 10.1895 37.1524 12.1427C37.2477 14.2546 37.2715 14.8818 37.2715 20.2252C37.2715 25.5686 37.2477 26.1958 37.1524 28.3078C37.0651 30.261 36.7396 31.3169 36.4617 32.0236C36.0965 32.9604 35.6677 33.6274 34.969 34.3261C34.2703 35.0247 33.6034 35.4614 32.6665 35.8187C31.9599 36.0887 30.9039 36.4221 28.9508 36.5095C26.8388 36.6047 26.2116 36.6286 20.8682 36.6286C15.5248 36.6286 14.8976 36.6047 12.7856 36.5095C10.8324 36.4221 9.77647 36.0966 9.06984 35.8187C8.13296 35.4535 7.46603 35.0247 6.76733 34.3261C6.06864 33.6274 5.63196 32.9604 5.27468 32.0236C5.00473 31.3169 4.67126 30.261 4.58393 28.3078C4.48865 26.1958 4.46483 25.5686 4.46483 20.2252C4.46483 14.8818 4.48865 14.2546 4.58393 12.1427C4.67126 10.1895 4.99679 9.13352 5.27468 8.42689C5.6399 7.49001 6.06864 6.82308 6.76733 6.12439C7.46603 5.4257 8.13296 4.98902 9.06984 4.63173C9.77647 4.36179 10.8324 4.02832 12.7856 3.94098C14.8976 3.83777 15.5327 3.82189 20.8682 3.82189ZM20.8682 0.217285C15.4374 0.217285 14.7546 0.241104 12.6189 0.33638C10.491 0.431656 9.03808 0.773061 7.76773 1.26532C6.44975 1.77346 5.33819 2.46421 4.22664 3.57576C3.11509 4.68731 2.43228 5.8068 1.9162 7.11685C1.42394 8.38719 1.08253 9.84015 0.987259 11.9759C0.891983 14.1037 0.868164 14.7866 0.868164 20.2173C0.868164 25.648 0.891983 26.3308 0.987259 28.4666C1.08253 30.5944 1.42394 32.0474 1.9162 33.3257C2.42434 34.6436 3.11509 35.7552 4.22664 36.8667C5.33819 37.9783 6.45769 38.6611 7.76773 39.1772C9.03808 39.6694 10.491 40.0109 12.6268 40.1061C14.7626 40.2014 15.4374 40.2252 20.8761 40.2252C26.3148 40.2252 26.9897 40.2014 29.1254 40.1061C31.2533 40.0109 32.7062 39.6694 33.9845 39.1772C35.3025 38.6691 36.414 37.9783 37.5256 36.8667C38.6371 35.7552 39.32 34.6357 39.836 33.3257C40.3283 32.0553 40.6697 30.6024 40.765 28.4666C40.8603 26.3308 40.8841 25.6559 40.8841 20.2173C40.8841 14.7786 40.8603 14.1037 40.765 11.968C40.6697 9.84015 40.3283 8.38719 39.836 7.10891C39.3279 5.79093 38.6371 4.67937 37.5256 3.56782C36.414 2.45627 35.2945 1.77346 33.9845 1.25738C32.7142 0.765122 31.2612 0.423716 29.1254 0.32844C26.9817 0.241104 26.2989 0.217285 20.8682 0.217285Z" fill="#FDFDFD"/>
<path d="M20.8682 3.82189C26.2116 3.82189 26.8388 3.84571 28.9508 3.94098C30.9039 4.02832 31.9599 4.35385 32.6665 4.63173C33.6034 4.99696 34.2703 5.4257 34.969 6.12439C35.6677 6.82308 36.1044 7.49001 36.4617 8.42689C36.7316 9.13352 37.0651 10.1895 37.1524 12.1427C37.2477 14.2546 37.2715 14.8818 37.2715 20.2252C37.2715 25.5686 37.2477 26.1958 37.1524 28.3078C37.0651 30.261 36.7396 31.3169 36.4617 32.0236C36.0965 32.9604 35.6677 33.6274 34.969 34.3261C34.2703 35.0247 33.6034 35.4614 32.6665 35.8187C31.9599 36.0887 30.9039 36.4221 28.9508 36.5095C26.8388 36.6047 26.2116 36.6286 20.8682 36.6286C15.5248 36.6286 14.8976 36.6047 12.7856 36.5095C10.8324 36.4221 9.77647 36.0966 9.06984 35.8187C8.13296 35.4535 7.46603 35.0247 6.76733 34.3261C6.06864 33.6274 5.63196 32.9604 5.27468 32.0236C5.00473 31.3169 4.67126 30.261 4.58393 28.3078C4.48865 26.1958 4.46483 25.5686 4.46483 20.2252C4.46483 14.8818 4.48865 14.2546 4.58393 12.1427C4.67126 10.1895 4.99679 9.13352 5.27468 8.42689C5.6399 7.49001 6.06864 6.82308 6.76733 6.12439C7.46603 5.4257 8.13296 4.98902 9.06984 4.63173C9.77647 4.36179 10.8324 4.02832 12.7856 3.94098C14.8976 3.83777 15.5327 3.82189 20.8682 3.82189Z" fill="#FDFDFD"/>
<path d="M20.8682 9.95117C15.1992 9.95117 10.5942 14.5482 10.5942 20.2251C10.5942 25.9019 15.1913 30.499 20.8682 30.499C26.545 30.499 31.1421 25.9019 31.1421 20.2251C31.1421 14.5482 26.545 9.95117 20.8682 9.95117ZM20.8682 26.8865C17.1842 26.8865 14.1988 23.9011 14.1988 20.2171C14.1988 16.5331 17.1842 13.5478 20.8682 13.5478C24.5522 13.5478 27.5375 16.5331 27.5375 20.2171C27.5375 23.9011 24.5522 26.8865 20.8682 26.8865Z" fill="#0063B5"/>
<path d="M31.547 11.9362C32.8713 11.9362 33.9448 10.8627 33.9448 9.5384C33.9448 8.21415 32.8713 7.14062 31.547 7.14062C30.2228 7.14062 29.1492 8.21415 29.1492 9.5384C29.1492 10.8627 30.2228 11.9362 31.547 11.9362Z" fill="#FDFDFD"/>
</g>
<defs>
<clipPath id="clip0_137_7453">
<rect width="40" height="40" fill="white" transform="translate(0.868164 0.217285)"/>
</clipPath>
</defs>
</svg>
