<svg width="34" height="34" viewBox="0 0 34 34" fill="none" xmlns="http://www.w3.org/2000/svg">
<path d="M7.50483 14.499C10.1448 19.6873 14.3982 23.9223 19.5865 26.5806L23.6198 22.5473C24.1148 22.0523 24.8482 21.8873 25.4898 22.1073C27.5432 22.7856 29.7615 23.1523 32.0348 23.1523C33.0432 23.1523 33.8682 23.9773 33.8682 24.9856V31.384C33.8682 32.3923 33.0432 33.2173 32.0348 33.2173C14.8198 33.2173 0.868164 19.2656 0.868164 2.05062C0.868164 1.04229 1.69316 0.217285 2.7015 0.217285H9.11816C10.1265 0.217285 10.9515 1.04229 10.9515 2.05062C10.9515 4.34229 11.3182 6.54229 11.9965 8.59562C12.1982 9.23729 12.0515 9.95229 11.5382 10.4656L7.50483 14.499Z" fill="#FDFDFD"/>
</svg>
